<?xml version="1.0" encoding="UTF-8"?>
<svg id="Calque_1" xmlns="http://www.w3.org/2000/svg" version="1.1" viewBox="0 0 1581.3 374.7">
  <!-- Generator: Adobe Illustrator 29.2.1, SVG Export Plug-In . SVG Version: 2.1.0 Build 116)  -->
  <defs>
    <style>
      .st0 {
        fill: #ffe978;
      }
    </style>
  </defs>
  <path class="st0" d="M761.4,232.9c-8.5,6.9-17.6,12.9-26.5,19.4-7.5,5.5-15.8,10.3-20.8,18.6-3.7,6.1-2.3,11.2,3.9,15,7.1,4.3,14.6,4.3,22,1.6,6.9-2.5,13.4-5.8,19.9-9.2,3.2-1.7,5-1.6,6.7,1.8,2.8,5.4,5.9,10.5,9,15.7,1.5,2.6.9,4.3-1.6,5.6-9.9,5.3-19.7,10.5-30.8,13.2-19.9,4.8-39.6-1.6-51.5-17.2-8.6-11.3-8.8-27.1-.5-40.6,5.3-8.6,12.7-15.1,20.8-20.9,10.3-7.5,21-14.5,30.9-22.4,8.2-6.4,14.8-14.4,17-25.1,1.3-6.3,0-12.1-3.9-17.2-3.4-4.6-9.3-6-15.3-3.2-7.6,3.5-14.9,7.5-22.5,11.1-9.4,4.4-19.2,7.8-29.8,6-15.1-2.6-25.8-11.4-31.8-25.2-8.7-19.9-1.8-36.4,13.2-50.6,5.4-5.1,11.5-9.6,17-14.6,3.1-2.8,6.2-5.9,8.2-9.6,3.7-6.5-1.2-15.8-9.1-18.4-9.1-3-17.3-.5-25,4.2-10.2,6.1-17,15.5-23.6,25.1-1.5,2.1-2.8,4.3-4.2,6.5-1.2,1.8-2.5,2.3-4.5.9-5.7-3.9-11.6-7.6-17.3-11.6-.8-.6-1.5-2.9-1-3.6,10.5-16.3,21.6-32.1,39.1-41.7,16.7-9.2,34.2-11.6,51.7-2.2,25.1,13.5,29.8,43.9,9.9,64.3-6.3,6.4-13.4,11.9-20.1,18-2.7,2.4-5.2,5-7.5,7.8-4.8,5.9-4.8,12.2-.4,18.1,4.7,6.1,10.9,8.1,17.7,5,7.7-3.5,15.3-7.4,22.9-11.2,11.7-5.8,23.7-8.8,36.5-4.1,1.6.6,3.4,1.6,5.2,2.9,8.7,6.1,14.7,15.2,16.7,25.5s.6,9.4.8,14.7c0,16.6-6.2,32.7-17.7,44.6s-2.4,2.4-3.5,3.3Z"/>
  <path class="st0" d="M798.7,153.7c0-4.4,4.6-7.3,8.6-5.5s7.4,4.4,10.7,7.4c9.8,8.8,14.3,20.8,19.3,32.6,2.7,6.3,5.5,12.4,10.8,17.2,3.3,2.9,6.8,3.9,11,2.2,6.2-2.4,12.4-5.1,18.8-6.7,15.6-3.9,29.6.4,41.8,10.3,17.6,14.2,21.1,33,16,54-2.8,11.2-6.8,22.1-9.7,33.3-1.8,7.1-2.4,14.5,2.2,21.2,4.1,6.1,9.3,6.8,14.4,1.5,5.7-5.9,10.9-12.3,16.9-18,21.8-20.6,54-8.4,63.5,15.1,6.5,16.1,3.9,31.5-4.9,46.2-.5.9-.9,1.8-1.3,2.8h-4.6c-.5-.7-1-1.5-1.6-2-4.2-3.2-8.3-6.6-12.7-9.4-3.2-2.1-3.6-4.1-1.7-7.3,3.3-5.5,3.9-11.6,2.6-17.9-1.5-7.3-9.9-12.8-16.8-10.2-3.3,1.2-6,4.2-8.6,6.8-5.6,5.5-10.5,11.7-16.4,16.8-9.2,7.8-20.2,10.1-31.5,6-14.3-5.1-22.9-16.1-26.2-30.6-3.1-13.5-.3-26.8,3.9-39.9,2.7-8.4,5.3-16.9,7.3-25.6,1.3-5.7.9-11.7-2.7-16.7-6.8-9.6-18.3-14.6-32.7-7.3-19.1,9.8-37.1,6-50.2-9.9-6.8-8.3-10.9-17.9-14.9-27.7-2.3-5.5-4.3-11.2-8.7-15.5s-2.5-3.9-2.5-6.2v-16.9Z"/>
  <path class="st0" d="M1248,367.3c-3-13.9-4.5-27.7-.2-41.6,4.7-15.2,19.3-27.8,35-29.3,11.3-1.1,20.6,3.7,28.1,11.8,3.7,4,7.2,8.1,10.1,12.6,7.8,12.2,25.2,16.8,41,9.3,7.8-3.7,16.2-6.8,24.7-8.5,14.1-2.8,29.4,6.4,35.2,19.5,3.7,8.4,5.8,17,5.5,26.2h-27.1c-.8-4.8-1.2-9.7-2.7-14.2-1.6-4.7-5.1-6-10-4.6-3.2.9-6.3,2.3-9.3,3.7-13.5,6.3-27.1,10.9-42.4,7.6-10.6-2.3-20.3-6.1-27.9-13.8-5.8-5.8-10.5-12.6-15.9-18.8-4.3-5-8.3-5.3-13.3-1-1.6,1.4-3,3.2-4,5.1-3.3,5.9-3,12.4-2.3,18.8.6,5.7,1.7,11.4,2.6,17.1h-27.1Z"/>
  <path class="st0" d="M0,62.6c22.1-7.6,44.2-8.4,65.8,1.6,26,12.1,43,41.7,35.5,69.1-5.3,19.3-18.2,31.9-37.5,37.4-17.3,4.9-36.5-3.1-46.8-19.1-7.3-11.4-9.8-23.6-5.4-36.8,1.7-5.1,2.5-5.5,7.3-3,5.1,2.7,10.2,5.4,15.4,8,1.9.9,3,1.9,2.5,4.4-1.3,7.8,2.6,15.2,9.6,19.1,5.5,3.1,13.9,1.7,19.8-3.2,12.2-10.1,13.2-27,2.3-40.3-11.1-13.6-26-17.2-42.6-15.7-8.2.7-16.1,3-23.6,6.7-.7.3-1.5.3-2.2.4v-28.6h0Z"/>
  <path class="st0" d="M1581.3,112.9c-5.2-1.5-10.3-3-15.4-4.6-12.2-3.9-24.5-7.9-37.3-12.1-1.2,4.6-2.5,9.1-3.6,13.6-5.6,22.2-11.1,44.4-16.9,66.6-2.1,8.1-12.4,12-19.4,7.3-14.9-9.9-29.5-20.1-44.3-30.2-2.2-1.5-4.4-3.1-6.7-4.5-1.9-1.1-2.2-2.3-.9-4.1,3.9-5.6,7.7-11.2,11.5-16.9,1.8-2.8,3.7-1.9,5.8-.4,9.7,6.7,19.5,13.4,29.3,20,1.1.7,2.2,1.3,3.8,2.3,1.2-4.8,2.4-9.1,3.5-13.6,4.2-16.7,8.3-33.5,12.4-50.2.8-3.2,1.7-6.5,2.5-9.7,2.2-8.5,9.7-12.8,18.1-10.1,19.2,6.2,38.4,12.5,57.6,18.7v27.8h0Z"/>
  <path class="st0" d="M679.3,295.5c-5.2-1.5-10.3-3-15.4-4.6-12.2-3.9-24.5-7.9-37.3-12.1-1.2,4.6-2.5,9.1-3.6,13.6-5.6,22.2-11.1,44.4-16.9,66.6-2.1,8.1-12.4,12-19.4,7.3-14.9-9.9-29.5-20.1-44.3-30.2-2.2-1.5-4.4-3.1-6.7-4.5-1.9-1.1-2.2-2.3-.9-4.1,3.9-5.6,7.7-11.2,11.5-16.9,1.8-2.8,3.7-1.9,5.8-.5,9.7,6.7,19.5,13.4,29.3,20,1,.7,2.2,1.3,3.8,2.3,1.2-4.8,2.4-9.1,3.5-13.6,4.2-16.7,8.3-33.5,12.4-50.2.8-3.2,1.7-6.5,2.5-9.7,2.2-8.5,9.7-12.8,18.1-10.1,19.2,6.2,38.4,12.5,57.6,18.7v27.8h0Z"/>
  <path class="st0" d="M1581.3,171.7c-11.4-.6-19.9,5.2-26.5,13.4-7.8,9.6-14.6,19.9-22.1,29.7-8.9,11.6-19.6,20.9-33.7,26-18.5,6.8-41.8-1.7-51-19.1-4.9-9.3-3.9-11.2,6.4-12.3,4.5-.5,8.9-1.4,13.4-1.9,1.3-.1,3.2.4,3.9,1.3,5.4,7,14,9.1,21.9,5.2,8.5-4.2,14.4-11,20-18.3,8-10.5,15.4-21.6,24.1-31.5,11.4-12.9,26.1-19.8,43.7-19.6v27.1h0Z"/>
  <path class="st0" d="M299.6,286c-11.4-.5-19.9,5.2-26.5,13.4-7.8,9.6-14.5,19.9-22.1,29.7-8.9,11.6-19.6,20.9-33.7,26-18.5,6.8-41.8-1.7-51-19.1-4.9-9.3-3.9-11.2,6.4-12.3,4.5-.5,8.9-1.4,13.4-1.9,1.3-.1,3.2.4,3.9,1.3,5.4,7,14,9.1,21.9,5.2,8.5-4.2,14.4-11,20-18.3,8-10.5,15.4-21.6,24.1-31.5,11.4-12.9,26.1-19.8,43.7-19.6v27.1h0Z"/>
  <path class="st0" d="M1444.4,367.3c-1.1-6.8-2.7-13.6-3.3-20.5-2.4-25.2,5.5-46.9,23.2-65,10.7-10.9,23.6-18.5,37.5-24.4,7.1-3,14.5-5.3,21.8-7.5,2.8-.9,5.8-.9,8.8-.8.9,0,2.4,1.4,2.7,2.5,1.7,6.5,3.2,13,4.5,19.5.2.9-1.5,2.7-2.7,3.1-7.5,2.6-15.3,4.4-22.7,7.3-14.8,5.8-28.1,13.8-37.4,27.3-9.2,13.3-10.9,27.9-7.9,43.2,1,5.2,3.3,10.2,5,15.3h-29.4Z"/>
  <path class="st0" d="M449,73.8c3.5-5.9,6.8-12.1,10.7-17.8,14.4-20.8,34.5-32.3,59.7-34.7,15.2-1.4,30,1.1,44.4,5.6,7.3,2.3,14.5,5.3,21.5,8.3,2.7,1.1,5,3.1,7.2,5,.7.6.9,2.7.5,3.6-2.9,6-5.9,12-9.2,17.8-.4.8-2.9,1.1-4,.7-7.4-2.9-14.6-6.5-22.1-9.1-15-5.2-30.4-7.6-46.2-3.3-15.6,4.2-26.3,14.3-33.9,27.8-2.6,4.6-4.1,9.9-6,14.9-7.5-6.3-15-12.7-22.4-19h0Z"/>
  <path class="st0" d="M776.7,250.1c0-5.5,5.4-9.3,10.5-7.5,4.3,1.5,8.5,3.1,12.3,5.2,7.3,4,14.2,9.4,20.4,15,18.1,16.2,29.4,36.5,33.6,60.5,2.2,12.3,2.2,24.8,0,37.1-.5,2.7-2.9,4.7-5.7,4.7h-15.9c-3.7,0-6.5-3.4-5.7-7,.5-2,.8-4.1,1.1-6.1,2.8-24.9-3.8-46.8-21.1-65.2-7.3-7.8-15.8-13.7-25.2-18.4-2.7-1.4-4.4-4.1-4.4-7.1v-11h0Z"/>
  <path class="st0" d="M1571.3,367.3c1.1-4.2,2.7-8.3,3.3-12.6,2-13-1.2-24.4-11.9-32.7-9.6-7.5-24.9-5.7-31.1,3.5-3.3,4.9-4.1,10.3-2.3,15.9.9,2.6.3,4-1.9,5.4-6.3,3.9-12.5,8-19.6,12.5-1.9-4.3-4.2-8-5.1-11.9-5.6-24.8,8-48.1,31.4-54.6,17.5-4.9,33-1.1,47.2,9.8v65h-10.1Z"/>
  <path class="st0" d="M0,234.3c15.3-12.9,32.8-21,52.4-24.7,10.3-2,20.7-2.2,31.1-.9,2.4.3,3.4,1.2,2.9,3.8-1.1,6.3-2.1,12.7-2.9,19.1-.4,3-1.6,4.1-4.8,3.8-12.6-1-24.9.3-36.8,4.9-12.5,4.8-23.2,12-32.1,22.1-2.9,3.3-6.2,3.8-9.9,1.4v-29.4h0Z"/>
  <path class="st0" d="M1113.4,367.3c-13.2-9.1-27.8-14.3-43.5-16.9-6.7-1.1-13.6-1.3-20.3-2.3-1.1-.1-2.8-1.9-2.8-3-.4-6.5-.4-13.1-.7-19.7-.1-2.8,1.1-3.9,3.8-3.9,13.3,0,26.4,1.9,39.2,5.5,12.7,3.6,24.6,8.8,35.9,15.5,4.8,2.9,5,3.4,1.8,8.2-3.6,5.5-7,11-10.4,16.5h-3.1Z"/>
  <path class="st0" d="M170.9,86.9c-13.1-9.1-27.8-14.3-43.5-16.9-6.7-1.1-13.6-1.3-20.3-2.3-1.1-.2-2.8-1.9-2.8-3-.4-6.5-.4-13.1-.7-19.7-.1-2.8,1.1-3.9,3.8-3.9,13.3,0,26.4,1.9,39.2,5.5,12.7,3.6,24.6,8.8,35.9,15.5,4.8,2.9,5,3.4,1.8,8.2-3.6,5.4-7,11-10.4,16.6h-3.1Z"/>
  <path class="st0" d="M701.2,232.2c-15.8-2.2-31.3-.3-46.4,4.4-6.5,2-12.7,4.9-19.2,7.1-1.1.4-3.3-.4-3.9-1.4-3.3-5.6-6.2-11.5-9.4-17.3-1.4-2.5-.8-4,1.7-5.2,11.9-5.9,24.4-10.2,37.5-12.7,12.9-2.5,26-3.1,39.1-2.2,5.6.4,6,.8,5.3,6.5-.8,6.5-1.3,13-1.9,19.5l-2.8,1.4h0Z"/>
  <path class="st0" d="M1145.9,367.3c9.5-24.1,36.3-31.2,57.6-20.3,9,4.6,15.7,11.4,20.5,20.3h-78.1Z"/>
  <path class="st0" d="M859.2,36.8c-17.2,22.8-34.4,45.6-51.5,68.4-4.2,5.6-9.5,9.1-16.6,6.7-3-1-5.3-3.9-8-6.1-6.9.8-13.7,1.6-20.6,2.5-2.3.3-4.5,1-6.7,1.7-2.6.8-4.1.3-4.8-2.6-1.5-6-3.2-11.9-5-17.8-1-3.3-.2-4.8,3.3-5.7,10.2-2.8,20.5-4.5,30.9-5.3s9.8-3.4,14.5-6.9,11-9.6,15.4-15.4,12-15.7,18-23.6c3.3-4.3,6.5-8.6,9.7-13,1.3-1.8,2.8-2,4.6-.6,5.4,4.1,10.8,8.3,16.3,12.4,2.1,1.6,2,3.1.4,5.2h0Z"/>
  <path class="st0" d="M1064.9,99.8c10.9.4,20.7-3,30.4-7.6,6.8-3.2,13.9-6.1,21.2-7.8,11.5-2.7,21.7.9,30.1,9.2,7.2,7.1,9,20.1,5,30.4-3.5,8.8-9.7,15.4-16.5,21.5-2.2,2-4.5,3.9-6.7,5.9-8.7,7.9-6.5,15.4,1,22.4,5.6,5.2,14.6,5.4,21.7,1.6,9.2-4.9,15.1-12.5,18.8-22.1,3.5-9.3,7.2-18.6,13.9-26,10.8-11.8,28.1-16.7,41.6-9,6.4,3.7,10.3,9.6,13.5,15.9.9,1.8,1.8,3.7,2.8,5.5,2,3.7,4.3,4.5,7.4,1.9,2.8-2.3,5-1.8,7.6-.3,5.2,2.9,10.4,5.6,15.7,8.3,2.7,1.4,3,2.7,1.1,5.4-10.3,14.4-29.4,19.2-43.7,10.7-5.5-3.2-9.2-8.1-12.1-13.7-.9-1.7-1.7-3.5-2.6-5.2-3.4-6.7-8.1-7.1-12.2-.4-3.1,5.1-5.8,10.6-8,16.2-6.4,16.6-16.8,29.8-33.3,37.2-25.3,11.4-51.8,2.8-63.1-24.1-6.4-15.3-2.9-29.7,9.7-42.4,4.3-4.4,9.2-8.3,13.6-12.6,1.5-1.5,2.9-3.3,3.8-5.2,1.6-3.2.5-5-2.9-4.5-3.8.5-7.5,1.8-11,3.1-9.1,3.4-17.9,8.4-27.3,10.4-27,5.9-52.4,1.7-73.9-16.8-9.4-8.1-14.9-18.6-13-31.5,2.5-16.9,13.3-26.7,30.6-28.5,11.6-1.2,22.8,1.5,34.1,3.1,2.4.4,4.8.7,7.3.8,7,.2,10.2-2.7,11.2-9.8.8-5.9-.9-11.2-3.3-16.4-1.7-3.7-3.8-7.3-5.4-11.1-.4-.9.2-3.1.9-3.6,6.3-3.8,12.7-7.3,19.2-10.7.6-.3,2.4.3,2.9,1.1,6.1,10.2,11.1,21,12.6,32.9,1.9,16.1-5.4,33.7-20.1,41.1-9.4,4.7-19.1,4.1-29.1,2.4-8.5-1.4-17.1-2.3-25.6-3.2-1.7-.2-3.6.3-5.2,1-3.4,1.5-4.3,4.7-2.5,8,3.8,6.7,10.1,10.3,17.1,12.5,7.3,2.3,22.6,4.4,22.6,4h0Z"/>
  <path class="st0" d="M271.8,197.7c2,8.7,3.8,18.2,6.5,27.4,1.9,6.6,4.9,13,7.7,19.3,1.2,2.6.8,4-1.7,5.2-5.8,2.9-11.6,5.6-17.1,8.9-2.6,1.5-4,1-5-1.5-4.2-11.3-8.8-22.5-12.4-34-2.3-7.4-3.2-15.4-4.5-23.1-.4-2.1-1-3-3.2-3.4-39.4-5.9-62.9-41-53.8-79.9,3.6-15.2,11.7-27.5,23.5-37.6,3.1-2.7,4-2.4,6.4,1,3.5,4.9,7,9.9,10.5,14.8,1.6,2.2,1.9,3.6-.6,5.8-12,10.5-17.2,24.1-14.1,39.5,2.8,13.7,10.4,24.6,25.1,28.5,4.8,1.3,5.3,1.1,5.8-3.9,1.6-17.9,5.4-35.4,13-51.8,6.3-13.5,15-24.9,29-31.2,13.1-5.9,25.9-4.4,38.1,2.7,22.6,13.2,29.9,40,19.7,64.4-8.2,19.6-23.1,32.2-42.5,39.7-9.5,3.7-19.6,6-30.4,9.2h0ZM271.4,169.7c4.3-1.1,7.7-1.9,11.1-2.8,12.6-3.5,24-9,32.4-19.6,7.8-9.9,9.5-23.5,3.9-32.8-5.6-9.3-17-12.2-24.8-5.9-3.3,2.7-6.3,6.2-8.5,9.8-7.6,12.4-10.6,26.3-12.8,40.5-.5,3.2-.8,6.5-1.2,10.8h0Z"/>
  <path class="st0" d="M623,163.6c-1,23.2-8.3,42.5-24.7,57.3-18.5,16.6-40.1,18.4-62.9,10.9-17.5-5.7-31.9-16.1-43-30.7-16.1-21.1-22.8-44.9-17.5-71.2,5.9-29.2,22.4-50.9,48.8-64.9,2.8-1.5,4.4-1.6,5.7,2,2,5.5,4.7,10.8,7.2,16.2,1.3,2.8,1.5,4.4-1.9,6.4-21.4,12.4-33.8,30.7-34.3,55.7-.5,23.6,10.5,41.3,29.7,54.3,6.5,4.4,13.6,7.2,21.3,8.5,17.3,2.7,30.1-3.4,38.1-19,6.4-12.6,8.6-25.8,3.7-39.6-4.3-12-17.6-23.5-32.8-18.8-13.9,4.3-17.6,19.1-7.2,29.1.8.8,1.3,2.8,1,3.9-2.5,6.5-5.3,12.8-8,19.2-1,2.3-2.3,2.2-4.3,1.1-9.3-5-15.4-12.5-18.9-22.4-5.2-14.6-3.3-28.2,6-40.5,13.4-17.6,39-23.6,58.8-13.9,23.9,11.7,34.2,31.8,35.2,56.3h0Z"/>
  <path class="st0" d="M1097.5,246.9c-8.8,4.7-17.3,9.1-25.7,13.7-9.5,5.2-18.9,10.4-28.2,15.8-8.8,5.2-18.7-1.9-20-10.5-1.2-8.3-2.9-16.5-4.3-24.7-1.4-8.1-2.8-16.2-4.3-25-5,4-9.6,7.6-14.2,11.2-6.7,5.4-13.4,10.8-20,16.3-2,1.7-3.1.8-4.4-.9-4.2-5.2-8.3-10.5-12.7-15.5-1.7-1.9-1.6-3,.4-4.6,9.8-7.9,19.5-15.9,29.3-23.9,7.3-5.9,14.7-11.7,21.8-17.7,8.5-7.1,20.8-1.5,22.2,7.9,2.4,16,5.4,32,8.2,47.9.4,2.3,1,4.5,1.7,7.6,5.2-2.9,10-5.4,14.7-8.1,13.4-7.6,26.8-15.3,40.3-22.6,7.2-3.9,16.2,0,18.2,7.9,2,7.8,2.8,16,4.7,23.8,2.8,11.5,6,22.8,9.3,35.1,4.6-3,8.4-5.3,12.1-7.8,11.3-7.5,22.5-15.3,34.1-22.6,3.7-2.3,8.2-3.9,12.5-4.4,7.1-.8,12.4,3.6,13.5,10.7,2.7,16.8,5,33.6,7.5,50.4.7,4.3,1.4,8.6,2.1,13,.5,2.9-.3,4.6-3.6,5-6.1.8-12.2,1.8-18.3,2.8-3,.5-4.4-.4-4.9-3.6-1.8-13.4-3.9-26.7-5.9-40.1-.1-.7-.2-1.5-.5-3.1-3.8,2.5-7.2,4.6-10.5,6.8-11.8,7.8-23.5,15.8-35.3,23.5-9.5,6.3-18.8,3.3-22.3-7.6-5.6-17.1-10.6-34.4-15.9-51.6-.4-1.5-.9-2.9-1.6-5.3h0Z"/>
  <path class="st0" d="M1342.4,256c7.7,11.1,17.2,21.1,28.3,29.6,4,3.1,4,3.1,1.1,7.2-3.5,4.9-7.2,9.7-10.6,14.7-1.7,2.5-3.3,2.3-5.4.7-13.7-10.6-25.8-22.8-35.6-37.2-1.8-2.6-3.4-3-6.3-2.4-22.2,4.3-42-1.6-61-13.2-17.3-10.6-29.4-25.8-40.9-41.8-1.5-2.1-2.8-4.3-4.4-6.3-2-2.5-1.7-4.1,1.1-5.9,5-3,9.8-6.2,14.6-9.4,4.2-2.8,4.3-2.7,7.3,1.2,6.6,8.7,12.9,17.7,20,25.9,9.2,10.5,20.2,18.9,33.7,22.9,5.9,1.7,12.3,1.9,19.6,2.9-1-3.1-1.5-4.9-2.2-6.6-6.7-16.9-11.3-34.2-10.6-52.6.6-15.1,5.6-28.2,17.6-37.9,14.9-12.1,36.4-11.7,48.8.8,7.7,7.8,11.3,17.6,11.9,28.2,1.2,22.9-3.4,44.6-14.8,64.6-3,5.3-7.9,9.6-12.2,14.6h0ZM1328,231.6c.7-.4,1.1-.5,1.3-.8.6-.7,1.1-1.4,1.6-2.2,7.4-11.9,10.2-25.1,11.3-38.8.5-5.6,0-11.3-.8-16.9-.8-5.1-5.5-8.2-9.7-7-4.4,1.3-8.2,3.6-10.4,8-3,5.9-3.9,12.2-3.3,18.7,1.1,13.4,4.6,26.3,10.1,38.9h0Z"/>
  <path class="st0" d="M526.2,275.9c-.5,31.5-12.4,57.8-37,77.7-16.3,13.3-35.6,19.8-56.6,20.9-18.8,1-36.6-2.3-53.4-11-16.9-8.7-30.1-21.4-40.2-37.3-12-19.1-18.1-39.9-17.4-62.6.6-17.1,5.3-33,13.2-48,9.9-18.7,23.9-33.6,41.8-45,7.8-4.9,7.8-5,12.2,3.2,2.2,4.1,4.3,8.2,6.5,12.3,1.2,2.3,1.5,3.9-1.4,5.6-15.1,8.8-27.1,20.6-35.3,36.2-9.7,18.5-12.4,37.9-7.8,58.4,3.7,16.1,11.7,29.8,23.7,41.2,15.4,14.6,33.9,20.8,55,20.1,15.6-.5,29.9-5.1,42.4-14.5,12-9.1,19.6-21.1,24.1-35.4,4.4-14.1,4.7-28.1.3-42.2-.9-2.8-.3-4.2,2.5-5.2,6.1-2.1,12-4.5,18-6.9,2.5-1,3.7-.3,4.6,2.2,3.4,9.8,5.3,19.9,5,30.4h0Z"/>
  <path class="st0" d="M1461.7,64.6c-1.9-.3-3.7,1-4.1,2.9-.7,3.8-2.3,7.5-5,11-8.9,11.5-24.9,11.3-33.5-.4-4.8-6.5-7.1-13.9-8.1-21.8l42.8,7c2.3.4,4.4-1.5,4.1-3.9-.5-5.3-2.4-10.6-5.2-15.5-1.1-2-3.2-3.2-5.5-3.2h-57.8c-3.3,0-5.9,2.8-5.9,6,0,17,3.3,33.3,14.2,47.4,9.5,12.4,22,20,37.8,20.1,22.7.1,44-18.2,48.3-40.4.6-3-1.4-5.9-4.4-6.4l-17.8-2.9h0Z"/>
  <path class="st0" d="M134.2,165.5c4.1.5,7.5.8,10.9,1.2,9.3,1.1,18.7,2.1,28,3.2,10.7,1.4,15.9,11.4,10.7,20.9-5.4,10.1-11.2,20-16.8,29.9-.7,1.3-1.3,2.7-2.2,4.6,2.1.1,3.6.2,5.1.2,14.1,0,28.1,0,42.1,0,12.1,0,18,6.5,15.2,18.3-2.3,10-5.9,19.7-9.3,29.4-2.9,8.4-6.3,16.6-9.3,24.9-1.1,3-2.5,3.2-5.2,2.2-5.6-2-11.2-3.8-16.9-5.4-3.7-1-4.6-2.8-3.1-6.4,4.1-10.4,7.9-21,11.8-31.4,1.7-4.6,1.5-4.9-3.5-5-16.2,0-32.5-.5-48.7.2-10.9.4-17.9-10.6-13.1-19.5,5.2-9.6,10.5-19.2,15.7-28.7,1.7-3.1,3.5-6.2,5.7-9.9-6.8-.7-13-1.2-19.2-2-7.9-1-15.8-2-23.7-3.4-8.7-1.6-12.2-11.8-8-19.4,11.2-19.9,22.9-39.6,34.3-59.5,1.6-2.8,3.2-2.9,5.5-1.5,5.7,3.3,11.3,6.7,16.9,9.9,2,1.1,2.3,2.2,1.1,4.3-6.3,10.8-12.4,21.6-18.6,32.4-1.8,3.2-3.6,6.4-5.7,10.2h0Z"/>
  <path class="st0" d="M474.4,254.7c-.1,17.7-4.1,31.1-14.3,42.2-10.7,11.6-24.2,15.7-39.3,12.7-16.5-3.2-29.5-12.2-36.8-27.7-8.1-17.2-8.4-34.3,4.1-49.7,8.5-10.5,20-15,33.6-13.5,2.2.2,4.2.7,3.4,3.8-1.7,6.5-3.2,13-5.1,19.4-.4,1.4-2.3,3-3.7,3.4-6.2,1.6-9.5,4.8-10.6,11.2-2.5,14.5,12.5,29.4,26.9,26.6,8.2-1.6,11.6-8,13.6-15.2,3.3-12,.5-23.5-3.8-34.7-4.6-12.1-9.6-24.1-13.7-36.4-4.8-14.3-5.7-29-1.3-43.7,1.1-3.8,3.1-7.3,5-10.8.4-.8,2.6-1.4,3.3-1,6.4,3.8,12.6,7.9,18.8,12,.6.4.9,2.4.5,3.2-5.7,12.3-3.5,24.5.7,36.4,4.1,11.8,9.1,23.2,13.4,34.9,3.5,9.6,5.8,19.5,5.5,26.9h0Z"/>
  <path class="st0" d="M887.4,123.6c-.6-7.2-.9-14.5-2-21.7-.6-3.8,0-5.6,4-6.3,5.5-1,11-2.7,16.5-4.1,4.5-1.1,5.1-.7,5.9,3.8,2,11.9,3.2,23.8,1.1,35.7-.4,2.3.6,3.2,2.4,4.1,15.2,7.3,28.7,17.1,40.1,29.6,7.7,8.4,8,6.3-.7,13.5-3.4,2.8-6.8,5.4-10.1,8.4-2.5,2.2-4.1,1.9-6.2-.6-8.5-10-18.8-17.8-30.2-24.4-2.9-1.7-4.1-1-5.7,1.6-7.3,12-17.9,19.5-32.1,20.7-19.1,1.7-36.6-15-33.4-34.9,2-12,14.6-24.1,27.5-25.2,7.1-.6,14.3,0,22.8,0h0ZM879.3,149.5c-4.6-.6-9.3-1.9-13.2,1.9s-1.1,3.6.4,4.7.9.6,1.4.6c5.3.5,8.4-3.5,11.4-7.2Z"/>
  <path class="st0" d="M1242.9,78.9c3.8,6.2,7.3,12.6,11.5,18.5,2.2,3.2,2.5,5-.8,7.5-4.5,3.4-8.6,7.3-12.9,11-3.5,3-4.2,2.9-7-.8-7.1-9.7-13.5-19.8-17-31.4-.7-2.3-2-2.6-4-2.6-16.9.3-33.3-2.5-49.1-8.5-10.6-4.1-10-2.1-5.4-12.4,1.8-4,3.7-7.9,5.3-12,1.2-3.1,2.8-3.5,5.9-2.2,12.1,5.1,24.8,7.5,37.9,8.3,3.3.2,4.2-1,4.4-4,1.2-14,7.3-25.4,19.4-32.9,16.3-10.1,39.5-2.9,45.5,16.3,3.6,11.6-2.3,28.1-13.4,34.8-6.1,3.7-12.8,6.5-20.4,10.3h0ZM1240.1,51c3.8-1.8,5.9-3.1,8.7-5.3.7-.6,2.2-1.8,1.8-3.5s-.6-1.2-1.2-1.6c-2-1.4-3.5-1.1-4.6-.7-4.1,1.6-5,10.7-4.7,11.1Z"/>
  <path class="st0" d="M134.5,303c-.2,25.6-21.2,43.1-44.2,43.3-22.6.2-41.9-20.3-41.7-43.9.2-22.1,17.8-41.4,41.2-41.2,24.7.2,44.7,18.8,44.6,41.8ZM91,319.2c9.2-.1,16.9-7.8,16.8-16.7,0-7.6-8.4-14.3-17.8-14.2-8.8,0-14.5,6.1-14.3,15.1.2,8.5,7.3,15.9,15.3,15.8h0Z"/>
  <path class="st0" d="M1425.4,191.9c.2,20.9-4.5,39.2-14.3,55.9-3.3,5.6-7.6,10.6-11.7,15.8-.5.7-2.8,1-3.5.4-5.8-4.5-11.4-9.2-16.8-14-.4-.4.2-2.5.9-3.4,6.9-9.1,12.2-19,15.3-30,5.9-20.7,4.1-40.7-5.2-60.1-4.9-10.1-11.4-18.9-19.9-26.2-2.9-2.5-2.8-4.1-.4-6.8,4-4.7,7.8-9.6,11.6-14.4,1.8-2.4,3.3-2.1,5.4-.3,10.8,9.4,19.7,20.4,26.2,33.1,8.3,16.1,12.9,33.3,12.5,50.1h0Z"/>
  <path class="st0" d="M1008.4,170c-7.8-3-15.1-5.1-21.9-8.4-16.9-8.2-30-20.8-38.7-37.5-8.8-16.9-11.6-34.9-8.4-53.9,2-11.8,6.1-22.8,12.4-33,1.8-3,3.5-3.3,6.1-1.3,5.1,3.8,10.2,7.4,15.3,11,2.2,1.5,2.7,2.8,1,5.3-13.3,20.9-12.7,48.9,3.3,68.6,8.3,10.1,18.5,17.3,31.2,20.7,6.2,1.6,6.2,2,4.9,8.2-1.1,5.3-1.9,10.6-3,15.9-.3,1.3-1.4,2.5-2.5,4.3h0Z"/>
  <path class="st0" d="M308.9,33.3c8.3-1.3,15.7-3,23.2-3.5,18.8-1.2,36.3,3.2,52.2,13.4,16.1,10.3,27.4,24.6,34,42.6,4.1,11.3,6,22.8,5.6,34.8-.1,3.5-1.4,4.6-4.7,4.2-6.3-.8-12.5-1.4-18.8-2-2.6-.2-3.7-1.1-3.5-4.1,1.2-24.7-13.2-48.8-36.9-57.9-12.2-4.7-24.6-5.9-37.4-2.5-6.2,1.7-6.4,1.3-8.4-4.7-1.7-5.1-3.7-10.2-5.3-15.3-.4-1.3,0-2.8,0-5h0Z"/>
  <path class="st0" d="M1365.6,41.7c-1.9,7-3.3,13.5-5.5,19.6-7,19.8-17.8,37.3-32.5,52.3-10.3,10.6-21.9,19.4-35.1,26.2-2.9,1.5-4.3,1-5.6-1.9-2.5-5.6-5.3-11.2-8.1-16.7-1.3-2.5-1.1-4,1.7-5.5,24-12.9,41.2-32.1,51.8-57.1,2.7-6.2,4.1-13,5.9-19.5.7-2.6,1.6-3.7,4.5-3,6.5,1.4,13.2,2.4,19.7,3.7,1.1.2,2.1,1.2,3,1.9h0Z"/>
</svg>