<?xml version="1.0" encoding="UTF-8"?>
<svg id="Calque_1" xmlns="http://www.w3.org/2000/svg" version="1.1" viewBox="0 0 238 253.2">
  <!-- Generator: Adobe Illustrator 29.2.1, SVG Export Plug-In . SVG Version: 2.1.0 Build 116)  -->
  <defs>
    <style>
      .st0 {
        fill: #ffe978;
      }
    </style>
  </defs>
  <path class="st0" d="M18.7.2l204.8-.2c9.6,1.1,14.9,12.4,10.7,20.7-34.6,54.1-62.7,114.9-97.4,168.6-7.7,11.9-16.9,15.9-27.2,3.6L11.9,23.7C6.2,15.2,8.3,3.4,18.7.2Z"/>
  <path class="st0" d="M124,232l99.6-154.9c4.6-7.6,14.3-5.9,14.4,3.3-34.7,57.3-73,112.7-108.6,169.5-2.5,4.4-9.3,4.2-12.3.4C81.5,195.4,40.4,143.7,4.8,88.7,3.5,86.7.1,82.7,0,80.4c-.4-7.2,8.5-11,13.4-5.4l108.1,155.9,2.4,1.1h0Z"/>
</svg>