<?xml version="1.0" encoding="UTF-8"?><svg id="Calque_1" xmlns="http://www.w3.org/2000/svg" viewBox="0 0 61.53 99.28"><rect width="58.67" height="99.28" rx="2.62" ry="2.62" style="fill:#4b447f;"/><rect x="4.37" y="3.54" width="49.93" height="92.21" rx=".44" ry=".44" style="fill:#8d79ea;"/><path d="M15.05,85.26h46.48s-8.44,9.5-9.5,9.5H5.53l9.52-9.5Z" style="fill:#fc8563;"/><polygon points="15.05 85.26 5.53 49.47 5.53 94.76 15.05 85.26" style="fill:#f9a38f;"/><polygon points="61.53 85.26 52.86 49.47 5.53 49.47 15.05 85.26 61.53 85.26" style="fill:#ffeae6;"/><polygon points="52.86 49.47 54.86 6.52 7.53 6.52 5.53 49.47 52.86 49.47" style="fill:#ffc9bd;"/><polygon points="32.44 35.89 28.56 35.89 29.28 21.38 33.16 21.38 32.44 35.89" style="fill:#79eac5;"/><path d="M36.51,75.69c-3.12,0-6.33-2.54-7.15-5.66l-1.07-4.09c-.82-3.12,1.05-5.66,4.18-5.66s6.33,2.54,7.15,5.66l1.07,4.09c.82,3.12-1.05,5.66-4.18,5.66ZM33.13,62.81c-1.72,0-2.76,1.4-2.3,3.13l1.07,4.09c.45,1.72,2.22,3.13,3.95,3.13s2.76-1.4,2.31-3.13l-1.07-4.09c-.45-1.72-2.22-3.13-3.95-3.13Z" style="fill:#fc638d;"/><polygon points="52.86 4.52 54.86 6.52 7.53 6.52 5.53 4.52 52.86 4.52" style="fill:#ffeae6;"/><polygon points="7.53 6.52 5.53 49.47 5.53 4.52 7.53 6.52" style="fill:#f9a38f;"/></svg>