<?xml version="1.0" encoding="UTF-8"?><svg id="Calque_1" xmlns="http://www.w3.org/2000/svg" viewBox="0 0 61.53 99.28"><rect width="58.67" height="99.28" rx="2.62" ry="2.62" style="fill:#4b447f;"/><rect x="4.37" y="3.54" width="49.93" height="92.21" rx=".44" ry=".44" style="fill:#8d79ea;"/><path d="M15.05,14.02h46.48s-8.44-9.5-9.5-9.5H5.53l9.52,9.5Z" style="fill:#ffeae6;"/><polygon points="15.05 14.02 5.53 49.82 5.53 4.52 15.05 14.02" style="fill:#f9a38f;"/><polygon points="61.53 14.02 52.86 49.82 5.53 49.82 15.05 14.02 61.53 14.02" style="fill:#fc8563;"/><polygon points="52.86 49.82 54.86 92.76 7.53 92.76 5.53 49.82 52.86 49.82" style="fill:#ffc9bd;"/><polygon points="35.05 38.04 31.17 38.04 34.5 23.53 38.39 23.53 35.05 38.04" style="fill:#79eac5;"/><path d="M31.84,81.76c-3.12,0-5.89-2.54-6.16-5.66l-.36-4.09c-.27-3.12,2.04-5.66,5.17-5.66s5.89,2.54,6.16,5.66l.36,4.09c.27,3.12-2.05,5.66-5.17,5.66ZM30.71,68.88c-1.72,0-3,1.4-2.85,3.13l.36,4.09c.15,1.72,1.68,3.13,3.4,3.13s3-1.4,2.85-3.13l-.36-4.09c-.15-1.72-1.68-3.13-3.4-3.13Z" style="fill:#fc638d;"/><polygon points="52.86 94.76 54.86 92.76 7.53 92.76 5.53 94.76 52.86 94.76" style="fill:#fc8563;"/><polygon points="7.53 92.76 5.53 49.82 5.53 94.76 7.53 92.76" style="fill:#f9a38f;"/></svg>