<?xml version="1.0" encoding="UTF-8"?><svg id="Calque_2" xmlns="http://www.w3.org/2000/svg" viewBox="0 0 300 720"><rect width="300" height="693.28" style="fill:#798085;"/><rect x="0" width="24.1" height="716.74" style="fill:#fc638d;"/><rect x="275.9" width="24.1" height="716.74" style="fill:#fc638d;"/><rect x="0" y="0" width="88.05" height="34.67" style="fill:#9da7b0;"/><rect x="93.93" y="0" width="88.05" height="34.67" style="fill:#9da7b0;"/><rect x="187.85" y="0" width="88.05" height="34.67" style="fill:#9da7b0;"/><rect x="24.1" y="40.55" width="88.05" height="34.67" style="fill:#9da7b0;"/><rect x="118.02" y="40.55" width="88.05" height="34.67" style="fill:#9da7b0;"/><rect x="211.95" y="40.55" width="88.05" height="34.67" style="fill:#9da7b0;"/><rect x="0" y="81.09" width="88.05" height="34.67" style="fill:#9da7b0;"/><rect x="93.93" y="81.09" width="88.05" height="34.67" style="fill:#9da7b0;"/><rect x="187.85" y="81.09" width="88.05" height="34.67" style="fill:#9da7b0;"/><rect x="24.1" y="121.63" width="88.05" height="34.67" style="fill:#9da7b0;"/><rect x="118.02" y="121.63" width="88.05" height="34.67" style="fill:#9da7b0;"/><rect x="211.95" y="121.63" width="88.05" height="34.67" style="fill:#9da7b0;"/><rect x="0" y="162.18" width="88.05" height="34.67" style="fill:#9da7b0;"/><rect x="93.93" y="162.18" width="88.05" height="34.67" style="fill:#9da7b0;"/><rect x="187.85" y="162.18" width="88.05" height="34.67" style="fill:#9da7b0;"/><rect x="24.1" y="202.72" width="88.05" height="34.67" style="fill:#9da7b0;"/><rect x="118.02" y="202.72" width="88.05" height="34.67" style="fill:#9da7b0;"/><rect x="211.95" y="202.72" width="88.05" height="34.67" style="fill:#9da7b0;"/><rect x="0" y="243.26" width="88.05" height="34.67" style="fill:#9da7b0;"/><rect x="93.93" y="243.26" width="88.05" height="34.67" style="fill:#9da7b0;"/><rect x="187.85" y="243.26" width="88.05" height="34.67" style="fill:#9da7b0;"/><rect x="24.1" y="283.81" width="88.05" height="34.67" style="fill:#9da7b0;"/><rect x="118.02" y="283.81" width="88.05" height="34.67" style="fill:#9da7b0;"/><rect x="211.95" y="283.81" width="88.05" height="34.67" style="fill:#9da7b0;"/><rect x="0" y="324.35" width="88.05" height="34.67" style="fill:#9da7b0;"/><rect x="93.93" y="324.35" width="88.05" height="34.67" style="fill:#9da7b0;"/><rect x="187.85" y="324.35" width="88.05" height="34.67" style="fill:#9da7b0;"/><rect x="24.1" y="364.89" width="88.05" height="34.67" style="fill:#9da7b0;"/><rect x="118.02" y="364.89" width="88.05" height="34.67" style="fill:#9da7b0;"/><rect x="211.95" y="364.89" width="88.05" height="34.67" style="fill:#9da7b0;"/><rect x="0" y="405.44" width="88.05" height="34.67" style="fill:#9da7b0;"/><rect x="93.93" y="405.44" width="88.05" height="34.67" style="fill:#9da7b0;"/><rect x="187.85" y="405.44" width="88.05" height="34.67" style="fill:#9da7b0;"/><rect x="24.1" y="445.98" width="88.05" height="34.67" style="fill:#9da7b0;"/><rect x="118.02" y="445.98" width="88.05" height="34.67" style="fill:#9da7b0;"/><rect x="211.95" y="445.98" width="88.05" height="34.67" style="fill:#9da7b0;"/><rect x="0" y="486.52" width="88.05" height="34.67" style="fill:#9da7b0;"/><rect x="93.93" y="486.52" width="88.05" height="34.67" style="fill:#9da7b0;"/><rect x="187.85" y="486.52" width="88.05" height="34.67" style="fill:#9da7b0;"/><rect x="24.1" y="527.07" width="88.05" height="34.67" style="fill:#9da7b0;"/><rect x="118.02" y="527.07" width="88.05" height="34.67" style="fill:#9da7b0;"/><rect x="211.95" y="527.07" width="88.05" height="34.67" style="fill:#9da7b0;"/><rect x="0" y="567.61" width="88.05" height="34.67" style="fill:#9da7b0;"/><rect x="93.93" y="567.61" width="88.05" height="34.67" style="fill:#9da7b0;"/><rect x="187.85" y="567.61" width="88.05" height="34.67" style="fill:#9da7b0;"/><rect x="0" y="648.7" width="88.05" height="34.67" style="fill:#9da7b0;"/><rect x="93.93" y="648.7" width="88.05" height="34.67" style="fill:#9da7b0;"/><rect x="187.85" y="648.7" width="88.05" height="34.67" style="fill:#9da7b0;"/><rect x="24.1" y="608.15" width="88.05" height="34.67" style="fill:#9da7b0;"/><rect x="118.02" y="608.15" width="88.05" height="34.67" style="fill:#9da7b0;"/><rect x="211.95" y="608.15" width="88.05" height="34.67" style="fill:#9da7b0;"/><rect y="689.24" width="300" height="30.76" style="fill:#9da7b0;"/><rect x="0" y="0" width="88.05" height="5.87" style="fill:#d7dee6;"/><rect x="93.93" y="0" width="88.05" height="5.87" style="fill:#d7dee6;"/><rect x="187.85" y="0" width="88.05" height="5.87" style="fill:#d7dee6;"/><rect x="24.1" y="40.55" width="88.05" height="5.87" style="fill:#d7dee6;"/><rect x="118.03" y="40.55" width="88.05" height="5.87" style="fill:#d7dee6;"/><rect x="211.95" y="40.55" width="88.05" height="5.87" style="fill:#d7dee6;"/><rect x="0" y="81.09" width="88.05" height="5.87" style="fill:#d7dee6;"/><rect x="93.94" y="81.09" width="88.05" height="5.87" style="fill:#d7dee6;"/><rect x="187.86" y="81.09" width="88.05" height="5.87" style="fill:#d7dee6;"/><rect x="24.11" y="121.63" width="88.05" height="5.87" style="fill:#d7dee6;"/><rect x="118.04" y="121.63" width="88.05" height="5.87" style="fill:#d7dee6;"/><rect x="211.96" y="121.63" width="88.05" height="5.87" style="fill:#d7dee6;"/><rect x=".01" y="162.18" width="88.05" height="5.87" style="fill:#d7dee6;"/><rect x="93.94" y="162.18" width="88.05" height="5.87" style="fill:#d7dee6;"/><rect x="187.86" y="162.18" width="88.05" height="5.87" style="fill:#d7dee6;"/><rect x="24.11" y="202.72" width="88.05" height="5.87" style="fill:#d7dee6;"/><rect x="118.05" y="202.72" width="88.05" height="5.87" style="fill:#d7dee6;"/><rect x="211.97" y="202.72" width="88.05" height="5.87" style="fill:#d7dee6;"/><rect x="0" y="243.26" width="88.05" height="5.87" style="fill:#d7dee6;"/><rect x="93.93" y="243.26" width="88.05" height="5.87" style="fill:#d7dee6;"/><rect x="187.85" y="243.26" width="88.05" height="5.87" style="fill:#d7dee6;"/><rect x="24.1" y="283.81" width="88.05" height="5.87" style="fill:#d7dee6;"/><rect x="118.03" y="283.81" width="88.05" height="5.87" style="fill:#d7dee6;"/><rect x="211.95" y="283.81" width="88.05" height="5.87" style="fill:#d7dee6;"/><rect x="0" y="324.35" width="88.05" height="5.87" style="fill:#d7dee6;"/><rect x="93.93" y="324.35" width="88.05" height="5.87" style="fill:#d7dee6;"/><rect x="187.85" y="324.35" width="88.05" height="5.87" style="fill:#d7dee6;"/><rect x="24.1" y="364.89" width="88.05" height="5.87" style="fill:#d7dee6;"/><rect x="118.03" y="364.89" width="88.05" height="5.87" style="fill:#d7dee6;"/><rect x="211.95" y="364.89" width="88.05" height="5.87" style="fill:#d7dee6;"/><rect x="0" y="405.44" width="88.05" height="5.87" style="fill:#d7dee6;"/><rect x="93.94" y="405.44" width="88.05" height="5.87" style="fill:#d7dee6;"/><rect x="187.86" y="405.44" width="88.05" height="5.87" style="fill:#d7dee6;"/><rect x="24.1" y="445.98" width="88.05" height="5.87" style="fill:#d7dee6;"/><rect x="118.03" y="445.98" width="88.05" height="5.87" style="fill:#d7dee6;"/><rect x="211.95" y="445.98" width="88.05" height="5.87" style="fill:#d7dee6;"/><rect x="0" y="486.52" width="88.05" height="5.87" style="fill:#d7dee6;"/><rect x="93.93" y="486.52" width="88.05" height="5.87" style="fill:#d7dee6;"/><rect x="187.85" y="486.52" width="88.05" height="5.87" style="fill:#d7dee6;"/><rect x="24.1" y="527.07" width="88.05" height="5.87" style="fill:#d7dee6;"/><rect x="118.03" y="527.07" width="88.05" height="5.87" style="fill:#d7dee6;"/><rect x="211.95" y="527.07" width="88.05" height="5.87" style="fill:#d7dee6;"/><rect x="0" y="567.61" width="88.05" height="5.87" style="fill:#d7dee6;"/><rect x="93.93" y="567.61" width="88.05" height="5.87" style="fill:#d7dee6;"/><rect x="187.85" y="567.61" width="88.05" height="5.87" style="fill:#d7dee6;"/><rect x="24.1" y="608.15" width="88.05" height="5.87" style="fill:#d7dee6;"/><rect x="118.03" y="608.15" width="88.05" height="5.87" style="fill:#d7dee6;"/><rect x="211.95" y="608.15" width="88.05" height="5.87" style="fill:#d7dee6;"/><rect x="0" y="648.7" width="88.05" height="5.87" style="fill:#d7dee6;"/><rect x="93.94" y="648.7" width="88.05" height="5.87" style="fill:#d7dee6;"/><rect x="187.86" y="648.7" width="88.05" height="5.87" style="fill:#d7dee6;"/><rect x="0" y="689.24" width="300" height="5.87" style="fill:#d7dee6;"/></svg>