<?xml version="1.0" encoding="UTF-8"?><svg id="Calque_1" xmlns="http://www.w3.org/2000/svg" viewBox="0 0 597.33 197.33"><path d="M68.74,11.26c2.96,0,128,2.37,128,2.37,0,0,26.33,9.48,28.57,9.48s78.69-11.85,78.69-11.85L451.56,0l59.85,16,68.74,64,17.19,81.78-10.07,35.56-56.3-41.48-50.96,21.33-137.17,8.3-178.09-22.52-88.7,30.22L4.15,130.96l21.98-58.81L0,26.67l96.59,10.07-27.85-25.48Z" style="fill:#9da7b0;"/><polygon points="480 177.19 530.96 155.85 587.26 197.33 533.63 181.11 480 177.19" style="fill:#798085;"/><path d="M587.26,197.33s10.23-34.84,10.07-35.56l-10.48-49.86s-24.3,30.23-24.15,30.67,24.56,54.74,24.56,54.74Z" style="fill:#798085;"/><polygon points="76.04 193.19 169.52 173.3 342.83 185.48 164.74 162.96 76.04 193.19" style="fill:#798085;"/><polygon points="377.71 183.37 399.52 176.59 441.37 111.22 440.04 160.7 480 155.85 468.64 177.87 377.71 183.37" style="fill:#798085;"/><path d="M0,26.67l46.33,30.26s54.89,6,54.22,6.22-56,21.78-56,21.78l42.67-4L4.15,130.96l21.98-58.81L0,26.67Z" style="fill:#798085;"/><polygon points="68.74 11.26 73.44 22.04 0 26.67 96.59 36.74 68.74 11.26" style="fill:#798085;"/><path d="M225.31,23.11s161.76,27.96,160.87,27.67-82.19-39.52-82.19-39.52l-78.69,11.85Z" style="fill:#798085;"/><polygon points="511.41 16 546.48 94.93 553.89 75.07 580.15 80 511.41 16" style="fill:#798085;"/><polygon points="443.09 .65 450.78 2.78 468.26 48.37 455.68 4.22 474.38 6.1 451.56 0 443.09 .65" style="fill:#d7dee6;"/><path d="M553.89,75.07l26.26,4.93,5.13,24.42s-5.65-20.2-6.87-20.42-24.52-8.93-24.52-8.93Z" style="fill:#d7dee6;"/><path d="M68.74,11.26l128,2.37s26.6,9.13,27.59,9.31,161.85,27.84,161.85,27.84l-156.81-18.67-14.44,71.56,2.44-72.65-23.33-13.13-125.3-6.63Z" style="fill:#d7dee6;"/><polygon points="530.96 155.85 572.56 177.37 562.7 142.59 587.26 197.33 530.96 155.85" style="fill:#d7dee6;"/><polygon points="546.48 94.93 508.04 19.33 474.38 6.1 511.41 16 546.48 94.93" style="fill:#d7dee6;"/><path d="M387.44,80.99l74.37-14.52,45.63,23.41s-44.74-17.19-45.63-17.48-74.37,8.59-74.37,8.59Z" style="fill:#d7dee6;"/><path d="M461.81,72.4l16.37,40.63v-20.31s30.74-2.65,29.26-2.83-45.63-17.48-45.63-17.48Z" style="fill:#798085;"/><polygon points="96.59 36.74 0 26.67 46.33 56.93 21.15 33.78 96.59 36.74" style="fill:#d7dee6;"/><polygon points="96.59 36.74 68.74 11.26 132.19 12.43 81.96 14.74 96.59 36.74" style="fill:#d7dee6;"/><polygon points="4.04 130.96 75.93 193.19 164.63 162.96 77.93 181.33 4.04 130.96" style="fill:#d7dee6;"/><path d="M87.22,80.93s-41.07,4.33-42.67,4S4.04,130.96,4.04,130.96l83.19-50.04Z" style="fill:#5c6166;"/><polygon points="46.33 56.93 83.14 69.92 100.56 63.15 46.33 56.93" style="fill:#5c6166;"/><polygon points="440.04 160.7 435.19 135.19 399.52 176.59 441.37 111.22 440.04 160.7" style="fill:#5c6166;"/><polygon points="440.04 160.7 480 155.85 468.64 177.87 470.59 166.86 440.04 160.7" style="fill:#5c6166;"/><polygon points="586.86 111.92 594.45 148.07 578.96 148.07 587.26 197.33 562.7 142.59 586.86 111.92" style="fill:#5c6166;"/><polygon points="533.63 181.11 530.96 155.85 480 177.19 533.63 181.11" style="fill:#5c6166;"/><polygon points="553.89 75.07 540.46 81.37 511.41 16 580.15 80 553.89 75.07" style="fill:#5c6166;"/><polygon points="169.52 173.3 164.63 162.96 342.83 185.48 169.52 173.3" style="fill:#5c6166;"/><path d="M140.29,72.22l-.74,3.78h9.95l-.93,4.74h-9.98l-.8,4.1h11.74l-1.02,4.9h-17.95l4.48-22.4h17.54l-.99,4.9h-11.3ZM145.77,60.63h6.27l-6.56,4.86h-4.51l4.8-4.86Z" style="fill:#fff;"/><path d="M159.75,83.26c-.04.3-.06.49-.06.58,0,.98.53,1.47,1.6,1.47.58,0,1.18-.17,1.82-.51l.77,4.19c-1.2.68-2.7,1.02-4.51,1.02s-3.22-.45-4.27-1.34c-1.06-.9-1.58-2.14-1.58-3.74,0-.62.05-1.16.16-1.63l1.15-5.73h-2.56l.93-4.54h2.53l.9-4.51h6.08l-.9,4.51h3.94l-.9,4.54h-3.94l-1.15,5.7Z" style="fill:#fff;"/><path d="M184.74,82.55h-12.74c.21,1.88,1.53,2.82,3.94,2.82.77,0,1.51-.12,2.24-.35.73-.23,1.38-.59,1.95-1.06l2.53,3.81c-2.03,1.49-4.49,2.24-7.39,2.24-1.83,0-3.45-.33-4.85-.98-1.4-.65-2.47-1.57-3.23-2.75-.76-1.18-1.14-2.58-1.14-4.18,0-1.9.44-3.61,1.33-5.14.88-1.52,2.12-2.72,3.71-3.58,1.59-.86,3.41-1.3,5.46-1.3,1.73,0,3.24.31,4.53.94,1.29.63,2.28,1.52,2.98,2.67.69,1.15,1.04,2.49,1.04,4,0,.83-.12,1.78-.35,2.85ZM173.8,77.19c-.66.52-1.14,1.24-1.44,2.16h7.14c.02-.92-.27-1.64-.86-2.16-.6-.52-1.39-.78-2.37-.78s-1.8.26-2.46.78Z" style="fill:#fff;"/><path d="M189.35,72.38h6.05l-3.46,17.34h-6.05l3.46-17.34ZM190.69,69.59c-.64-.58-.96-1.29-.96-2.14,0-1,.36-1.83,1.07-2.48.71-.65,1.66-.98,2.83-.98,1.07,0,1.92.27,2.56.82.64.54.96,1.24.96,2.1,0,1.05-.36,1.9-1.09,2.56-.73.66-1.68.99-2.85.99-1.04,0-1.89-.29-2.53-.86Z" style="fill:#fff;"/><path d="M214.74,73.61c1.14,1.01,1.71,2.47,1.71,4.37,0,.7-.08,1.42-.22,2.14l-1.92,9.6h-6.08l1.79-9.02c.08-.36.13-.75.13-1.15,0-1.54-.8-2.3-2.4-2.3-1.07,0-1.94.33-2.62.98-.68.65-1.16,1.63-1.44,2.93l-1.73,8.58h-6.08l3.46-17.34h5.76l-.35,1.79c.75-.7,1.59-1.23,2.53-1.57.94-.34,1.91-.51,2.91-.51,1.9,0,3.42.51,4.56,1.52Z" style="fill:#fff;"/><path d="M220.63,89.53c-1.38-.32-2.45-.73-3.22-1.22l2.21-4.26c.79.49,1.73.88,2.82,1.17s2.15.43,3.2.43c1.86,0,2.78-.42,2.78-1.25,0-.34-.22-.59-.66-.75s-1.14-.31-2.1-.46c-1.28-.23-2.33-.49-3.15-.75s-1.54-.72-2.16-1.36c-.62-.64-.93-1.54-.93-2.69,0-2,.86-3.56,2.58-4.66,1.72-1.1,3.94-1.65,6.67-1.65,1.24,0,2.43.12,3.58.37,1.15.25,2.15.58,3.01,1.01l-2.14,4.26c-1.45-.87-3.17-1.31-5.15-1.31-.94,0-1.64.12-2.1.37-.46.25-.69.56-.69.94,0,.34.22.59.66.75s1.16.34,2.16.53c1.24.21,2.27.46,3.09.74s1.54.74,2.14,1.38c.61.64.91,1.52.91,2.62,0,2.01-.86,3.55-2.59,4.64-1.73,1.09-3.94,1.63-6.62,1.63-1.49,0-2.93-.16-4.3-.48Z" style="fill:#fff;"/><path d="M253.03,83.26c-.04.3-.06.49-.06.58,0,.98.53,1.47,1.6,1.47.58,0,1.18-.17,1.82-.51l.77,4.19c-1.2.68-2.7,1.02-4.51,1.02s-3.22-.45-4.27-1.34c-1.06-.9-1.58-2.14-1.58-3.74,0-.62.05-1.16.16-1.63l1.15-5.73h-2.56l.93-4.54h2.53l.9-4.51h6.08l-.9,4.51h3.94l-.9,4.54h-3.94l-1.15,5.7Z" style="fill:#fff;"/><path d="M278.02,82.55h-12.74c.21,1.88,1.53,2.82,3.94,2.82.77,0,1.51-.12,2.24-.35.73-.23,1.38-.59,1.95-1.06l2.53,3.81c-2.03,1.49-4.49,2.24-7.39,2.24-1.83,0-3.45-.33-4.85-.98-1.4-.65-2.47-1.57-3.23-2.75-.76-1.18-1.14-2.58-1.14-4.18,0-1.9.44-3.61,1.33-5.14.88-1.52,2.12-2.72,3.71-3.58,1.59-.86,3.41-1.3,5.46-1.3,1.73,0,3.24.31,4.53.94,1.29.63,2.28,1.52,2.98,2.67.69,1.15,1.04,2.49,1.04,4,0,.83-.12,1.78-.35,2.85ZM267.08,77.19c-.66.52-1.14,1.24-1.44,2.16h7.14c.02-.92-.27-1.64-.86-2.16-.6-.52-1.39-.78-2.37-.78s-1.8.26-2.46.78Z" style="fill:#fff;"/><path d="M281.65,89.53c-1.38-.32-2.45-.73-3.22-1.22l2.21-4.26c.79.49,1.73.88,2.82,1.17s2.15.43,3.2.43c1.86,0,2.78-.42,2.78-1.25,0-.34-.22-.59-.66-.75s-1.14-.31-2.1-.46c-1.28-.23-2.33-.49-3.15-.75s-1.54-.72-2.16-1.36c-.62-.64-.93-1.54-.93-2.69,0-2,.86-3.56,2.58-4.66,1.72-1.1,3.94-1.65,6.67-1.65,1.24,0,2.43.12,3.58.37,1.15.25,2.15.58,3.01,1.01l-2.14,4.26c-1.45-.87-3.17-1.31-5.15-1.31-.94,0-1.64.12-2.1.37-.46.25-.69.56-.69.94,0,.34.22.59.66.75s1.16.34,2.16.53c1.24.21,2.27.46,3.09.74s1.54.74,2.14,1.38c.61.64.91,1.52.91,2.62,0,2.01-.86,3.55-2.59,4.64-1.73,1.09-3.94,1.63-6.62,1.63-1.49,0-2.93-.16-4.3-.48Z" style="fill:#fff;"/><path d="M327.78,72.38l-3.46,17.34h-5.76l.35-1.63c-1.39,1.28-3.06,1.92-5.02,1.92-1.28,0-2.48-.31-3.6-.94s-2.02-1.54-2.7-2.74c-.68-1.19-1.02-2.6-1.02-4.22,0-1.88.42-3.58,1.26-5.1.84-1.52,1.98-2.72,3.42-3.6,1.44-.87,3.01-1.31,4.72-1.31,2.52,0,4.29.79,5.31,2.37l.42-2.08h6.08ZM318.98,83.77c.77-.9,1.15-2.06,1.15-3.49,0-1.02-.29-1.83-.88-2.43-.59-.6-1.39-.9-2.42-.9-1.22,0-2.21.45-2.98,1.34-.77.9-1.15,2.07-1.15,3.52,0,1.02.29,1.83.88,2.42.59.59,1.39.88,2.42.88,1.22,0,2.21-.45,2.98-1.34Z" style="fill:#fff;"/><path d="M345.72,73.03c1.12.63,2.02,1.54,2.7,2.74.68,1.2,1.02,2.59,1.02,4.19,0,1.9-.42,3.61-1.26,5.14-.84,1.53-1.98,2.73-3.42,3.6-1.44.88-3.01,1.31-4.72,1.31-2.52,0-4.29-.79-5.31-2.37l-1.66,8.29h-6.08l4.7-23.55h5.76l-.35,1.63c1.39-1.28,3.06-1.92,5.02-1.92,1.28,0,2.48.31,3.6.94ZM342.15,83.77c.77-.9,1.15-2.06,1.15-3.49,0-1.02-.29-1.83-.88-2.43-.59-.6-1.39-.9-2.42-.9-1.22,0-2.21.45-2.98,1.34-.77.9-1.15,2.07-1.15,3.52,0,1.02.29,1.83.88,2.42s1.39.88,2.42.88c1.22,0,2.21-.45,2.98-1.34Z" style="fill:#fff;"/><path d="M367.96,73.03c1.12.63,2.02,1.54,2.7,2.74.68,1.2,1.02,2.59,1.02,4.19,0,1.9-.42,3.61-1.26,5.14-.84,1.53-1.98,2.73-3.42,3.6-1.44.88-3.01,1.31-4.72,1.31-2.52,0-4.29-.79-5.31-2.37l-1.66,8.29h-6.08l4.7-23.55h5.76l-.35,1.63c1.39-1.28,3.06-1.92,5.02-1.92,1.28,0,2.48.31,3.6.94ZM364.39,83.77c.77-.9,1.15-2.06,1.15-3.49,0-1.02-.29-1.83-.88-2.43-.59-.6-1.39-.9-2.42-.9-1.22,0-2.21.45-2.98,1.34-.77.9-1.15,2.07-1.15,3.52,0,1.02.29,1.83.88,2.42s1.39.88,2.42.88c1.22,0,2.21-.45,2.98-1.34Z" style="fill:#fff;"/><path d="M394.5,72.38l-3.46,17.34h-5.76l.35-1.63c-1.39,1.28-3.06,1.92-5.02,1.92-1.28,0-2.48-.31-3.6-.94s-2.02-1.54-2.7-2.74c-.68-1.19-1.02-2.6-1.02-4.22,0-1.88.42-3.58,1.26-5.1.84-1.52,1.98-2.72,3.42-3.6,1.44-.87,3.01-1.31,4.72-1.31,2.52,0,4.29.79,5.31,2.37l.42-2.08h6.08ZM385.7,83.77c.77-.9,1.15-2.06,1.15-3.49,0-1.02-.29-1.83-.88-2.43-.59-.6-1.39-.9-2.42-.9-1.22,0-2.21.45-2.98,1.34-.77.9-1.15,2.07-1.15,3.52,0,1.02.29,1.83.88,2.42.59.59,1.39.88,2.42.88,1.22,0,2.21-.45,2.98-1.34Z" style="fill:#fff;"/><path d="M410.05,72.09l-1.06,5.47c-.53-.06-.99-.1-1.38-.1-1.37,0-2.46.33-3.28.98-.82.65-1.37,1.68-1.65,3.09l-1.66,8.19h-6.08l3.46-17.34h5.76l-.38,1.92c1.45-1.47,3.54-2.21,6.27-2.21Z" style="fill:#fff;"/><path d="M428.16,82.55h-12.74c.21,1.88,1.53,2.82,3.94,2.82.77,0,1.51-.12,2.24-.35.73-.23,1.38-.59,1.95-1.06l2.53,3.81c-2.03,1.49-4.49,2.24-7.39,2.24-1.83,0-3.45-.33-4.85-.98-1.4-.65-2.47-1.57-3.23-2.75-.76-1.18-1.14-2.58-1.14-4.18,0-1.9.44-3.61,1.33-5.14.88-1.52,2.12-2.72,3.71-3.58,1.59-.86,3.41-1.3,5.46-1.3,1.73,0,3.24.31,4.53.94,1.29.63,2.28,1.52,2.98,2.67.69,1.15,1.04,2.49,1.04,4,0,.83-.12,1.78-.35,2.85ZM417.22,77.19c-.66.52-1.14,1.24-1.44,2.16h7.14c.02-.92-.27-1.64-.86-2.16-.6-.52-1.39-.78-2.37-.78s-1.8.26-2.46.78Z" style="fill:#fff;"/><path d="M432.77,72.38h6.05l-3.46,17.34h-6.05l3.46-17.34ZM434.12,69.59c-.64-.58-.96-1.29-.96-2.14,0-1,.36-1.83,1.07-2.48.71-.65,1.66-.98,2.83-.98,1.07,0,1.92.27,2.56.82.64.54.96,1.24.96,2.1,0,1.05-.36,1.9-1.09,2.56-.73.66-1.68.99-2.85.99-1.04,0-1.89-.29-2.53-.86Z" style="fill:#fff;"/><path d="M444.03,65.98h6.08l-4.74,23.74h-6.08l4.74-23.74Z" style="fill:#fff;"/><path d="M451.79,89.53c-1.38-.32-2.45-.73-3.22-1.22l2.21-4.26c.79.49,1.73.88,2.82,1.17s2.15.43,3.2.43c1.86,0,2.78-.42,2.78-1.25,0-.34-.22-.59-.66-.75s-1.14-.31-2.1-.46c-1.28-.23-2.33-.49-3.15-.75s-1.54-.72-2.16-1.36c-.62-.64-.93-1.54-.93-2.69,0-2,.86-3.56,2.58-4.66,1.72-1.1,3.94-1.65,6.67-1.65,1.24,0,2.43.12,3.58.37,1.15.25,2.15.58,3.01,1.01l-2.14,4.26c-1.45-.87-3.17-1.31-5.15-1.31-.94,0-1.64.12-2.1.37-.46.25-.69.56-.69.94,0,.34.22.59.66.75s1.16.34,2.16.53c1.24.21,2.27.46,3.09.74s1.54.74,2.14,1.38c.61.64.91,1.52.91,2.62,0,2.01-.86,3.55-2.59,4.64-1.73,1.09-3.94,1.63-6.62,1.63-1.49,0-2.93-.16-4.3-.48Z" style="fill:#fff;"/><path d="M224.95,110.78h6.05l-3.46,17.34h-6.05l3.46-17.34ZM226.29,107.99c-.64-.58-.96-1.29-.96-2.14,0-1,.36-1.83,1.07-2.48.71-.65,1.66-.98,2.83-.98,1.07,0,1.92.27,2.56.82.64.54.96,1.24.96,2.1,0,1.05-.36,1.9-1.09,2.56-.73.66-1.68.99-2.85.99-1.04,0-1.89-.29-2.53-.86Z" style="fill:#fff;"/><path d="M250.34,112.01c1.14,1.01,1.71,2.47,1.71,4.37,0,.7-.08,1.42-.22,2.14l-1.92,9.6h-6.08l1.79-9.02c.08-.36.13-.75.13-1.15,0-1.54-.8-2.3-2.4-2.3-1.07,0-1.94.33-2.62.98-.68.65-1.16,1.63-1.44,2.93l-1.73,8.58h-6.08l3.46-17.34h5.76l-.35,1.79c.75-.7,1.59-1.23,2.53-1.57.94-.34,1.91-.51,2.91-.51,1.9,0,3.42.51,4.56,1.52Z" style="fill:#fff;"/><path d="M275.44,110.78l-3.46,17.34h-5.76l.35-1.79c-.75.7-1.58,1.23-2.51,1.57-.93.34-1.88.51-2.86.51-1.9,0-3.41-.51-4.53-1.54s-1.68-2.48-1.68-4.38c0-.7.08-1.42.22-2.14l1.92-9.57h6.08l-1.79,8.99c-.09.41-.13.8-.13,1.18,0,1.52.78,2.27,2.34,2.27,1.04,0,1.91-.33,2.59-.98.68-.65,1.15-1.62,1.41-2.9l1.73-8.58h6.08Z" style="fill:#fff;"/><path d="M283.96,121.66c-.04.3-.06.49-.06.58,0,.98.53,1.47,1.6,1.47.58,0,1.18-.17,1.82-.51l.77,4.19c-1.2.68-2.7,1.02-4.51,1.02s-3.22-.45-4.27-1.34c-1.06-.9-1.58-2.14-1.58-3.74,0-.62.05-1.16.16-1.63l1.15-5.73h-2.56l.93-4.54h2.53l.9-4.51h6.08l-.9,4.51h3.94l-.9,4.54h-3.94l-1.15,5.7Z" style="fill:#fff;"/><path d="M293.65,110.78h6.05l-3.46,17.34h-6.05l3.46-17.34ZM295,107.99c-.64-.58-.96-1.29-.96-2.14,0-1,.36-1.83,1.07-2.48.71-.65,1.66-.98,2.83-.98,1.07,0,1.92.27,2.56.82.64.54.96,1.24.96,2.1,0,1.05-.36,1.9-1.09,2.56-.73.66-1.68.99-2.85.99-1.04,0-1.89-.29-2.53-.86Z" style="fill:#fff;"/><path d="M304.92,104.38h6.08l-4.74,23.74h-6.08l4.74-23.74Z" style="fill:#fff;"/><path d="M313.65,110.78h6.05l-3.46,17.34h-6.05l3.46-17.34ZM315,107.99c-.64-.58-.96-1.29-.96-2.14,0-1,.36-1.83,1.07-2.48.71-.65,1.66-.98,2.83-.98,1.07,0,1.92.27,2.56.82.64.54.96,1.24.96,2.1,0,1.05-.36,1.9-1.09,2.56-.73.66-1.68.99-2.85.99-1.04,0-1.89-.29-2.53-.86Z" style="fill:#fff;"/><path d="M322.66,127.93c-1.38-.32-2.45-.73-3.22-1.22l2.21-4.26c.79.49,1.73.88,2.82,1.17s2.15.43,3.2.43c1.86,0,2.78-.42,2.78-1.25,0-.34-.22-.59-.66-.75s-1.14-.31-2.1-.46c-1.28-.23-2.33-.49-3.15-.75s-1.54-.72-2.16-1.36c-.62-.64-.93-1.54-.93-2.69,0-2,.86-3.56,2.58-4.66,1.72-1.1,3.94-1.65,6.67-1.65,1.24,0,2.43.12,3.58.37,1.15.25,2.15.58,3.01,1.01l-2.14,4.26c-1.45-.87-3.17-1.31-5.15-1.31-.94,0-1.64.12-2.1.37-.46.25-.69.56-.69.94,0,.34.22.59.66.75s1.16.34,2.16.53c1.24.21,2.27.46,3.09.74s1.54.74,2.14,1.38c.61.64.91,1.52.91,2.62,0,2.01-.86,3.55-2.59,4.64-1.73,1.09-3.94,1.63-6.62,1.63-1.49,0-2.93-.16-4.3-.48Z" style="fill:#fff;"/><path d="M356.95,120.95h-12.74c.21,1.88,1.53,2.82,3.94,2.82.77,0,1.51-.12,2.24-.35.73-.23,1.38-.59,1.95-1.06l2.53,3.81c-2.03,1.49-4.49,2.24-7.39,2.24-1.83,0-3.45-.33-4.85-.98-1.4-.65-2.47-1.57-3.23-2.75-.76-1.18-1.14-2.58-1.14-4.18,0-1.9.44-3.61,1.33-5.14.88-1.52,2.12-2.72,3.71-3.58,1.59-.86,3.41-1.3,5.46-1.3,1.73,0,3.24.31,4.53.94,1.29.63,2.28,1.52,2.98,2.67.69,1.15,1.04,2.49,1.04,4,0,.83-.12,1.78-.35,2.85ZM346,115.59c-.66.52-1.14,1.24-1.44,2.16h7.14c.02-.92-.27-1.64-.86-2.16-.6-.52-1.39-.78-2.37-.78s-1.8.26-2.46.78ZM351.47,103.83h6.27l-6.56,4.86h-4.51l4.8-4.86Z" style="fill:#fff;"/><path d="M360.58,127.93c-1.38-.32-2.45-.73-3.22-1.22l2.21-4.26c.79.49,1.73.88,2.82,1.17s2.15.43,3.2.43c1.86,0,2.78-.42,2.78-1.25,0-.34-.22-.59-.66-.75s-1.14-.31-2.1-.46c-1.28-.23-2.33-.49-3.15-.75s-1.54-.72-2.16-1.36c-.62-.64-.93-1.54-.93-2.69,0-2,.86-3.56,2.58-4.66,1.72-1.1,3.94-1.65,6.67-1.65,1.24,0,2.43.12,3.58.37,1.15.25,2.15.58,3.01,1.01l-2.14,4.26c-1.45-.87-3.17-1.31-5.15-1.31-.94,0-1.64.12-2.1.37-.46.25-.69.56-.69.94,0,.34.22.59.66.75s1.16.34,2.16.53c1.24.21,2.27.46,3.09.74s1.54.74,2.14,1.38c.61.64.91,1.52.91,2.62,0,2.01-.86,3.55-2.59,4.64-1.73,1.09-3.94,1.63-6.62,1.63-1.49,0-2.93-.16-4.3-.48Z" style="fill:#fff;"/></svg>