<?xml version="1.0" encoding="UTF-8"?><svg id="Calque_1" xmlns="http://www.w3.org/2000/svg" viewBox="0 0 597.33 197.33"><path d="M68.74,11.26c2.96,0,128,2.37,128,2.37,0,0,26.33,9.48,28.57,9.48s78.69-11.85,78.69-11.85L451.56,0l59.85,16,68.74,64,17.19,81.78-10.07,35.56-56.3-41.48-50.96,21.33-137.17,8.3-178.09-22.52-88.7,30.22L4.15,130.96l21.98-58.81L0,26.67l96.59,10.07-27.85-25.48Z" style="fill:#9da7b0;"/><polygon points="480 177.19 530.96 155.85 587.26 197.33 533.63 181.11 480 177.19" style="fill:#798085;"/><path d="M587.26,197.33s10.23-34.84,10.07-35.56l-10.48-49.86s-24.3,30.23-24.15,30.67,24.56,54.74,24.56,54.74Z" style="fill:#798085;"/><polygon points="76.04 193.19 169.52 173.3 342.83 185.48 164.74 162.96 76.04 193.19" style="fill:#798085;"/><polygon points="377.71 183.37 399.52 176.59 441.37 111.22 440.04 160.7 480 155.85 468.64 177.87 377.71 183.37" style="fill:#798085;"/><path d="M0,26.67l46.33,30.26s54.89,6,54.22,6.22-56,21.78-56,21.78l42.67-4L4.15,130.96l21.98-58.81L0,26.67Z" style="fill:#798085;"/><polygon points="68.74 11.26 73.44 22.04 0 26.67 96.59 36.74 68.74 11.26" style="fill:#798085;"/><path d="M225.31,23.11s161.76,27.96,160.87,27.67-82.19-39.52-82.19-39.52l-78.69,11.85Z" style="fill:#798085;"/><polygon points="511.41 16 546.48 94.93 553.89 75.07 580.15 80 511.41 16" style="fill:#798085;"/><polygon points="443.09 .65 450.78 2.78 468.26 48.37 455.68 4.22 474.38 6.1 451.56 0 443.09 .65" style="fill:#d7dee6;"/><path d="M553.89,75.07l26.26,4.93,5.13,24.42s-5.65-20.2-6.87-20.42-24.52-8.93-24.52-8.93Z" style="fill:#d7dee6;"/><path d="M68.74,11.26l128,2.37s26.6,9.13,27.59,9.31,161.85,27.84,161.85,27.84l-156.81-18.67-14.44,71.56,2.44-72.65-23.33-13.13-125.3-6.63Z" style="fill:#d7dee6;"/><polygon points="530.96 155.85 572.56 177.37 562.7 142.59 587.26 197.33 530.96 155.85" style="fill:#d7dee6;"/><polygon points="546.48 94.93 508.04 19.33 474.38 6.1 511.41 16 546.48 94.93" style="fill:#d7dee6;"/><path d="M387.44,80.99l74.37-14.52,45.63,23.41s-44.74-17.19-45.63-17.48-74.37,8.59-74.37,8.59Z" style="fill:#d7dee6;"/><path d="M461.81,72.4l16.37,40.63v-20.31s30.74-2.65,29.26-2.83-45.63-17.48-45.63-17.48Z" style="fill:#798085;"/><polygon points="96.59 36.74 0 26.67 46.33 56.93 21.15 33.78 96.59 36.74" style="fill:#d7dee6;"/><polygon points="96.59 36.74 68.74 11.26 132.19 12.43 81.96 14.74 96.59 36.74" style="fill:#d7dee6;"/><polygon points="4.04 130.96 75.93 193.19 164.63 162.96 77.93 181.33 4.04 130.96" style="fill:#d7dee6;"/><path d="M87.22,80.93s-41.07,4.33-42.67,4S4.04,130.96,4.04,130.96l83.19-50.04Z" style="fill:#5c6166;"/><polygon points="46.33 56.93 83.14 69.92 100.56 63.15 46.33 56.93" style="fill:#5c6166;"/><polygon points="440.04 160.7 435.19 135.19 399.52 176.59 441.37 111.22 440.04 160.7" style="fill:#5c6166;"/><polygon points="440.04 160.7 480 155.85 468.64 177.87 470.59 166.86 440.04 160.7" style="fill:#5c6166;"/><polygon points="586.86 111.92 594.45 148.07 578.96 148.07 587.26 197.33 562.7 142.59 586.86 111.92" style="fill:#5c6166;"/><polygon points="533.63 181.11 530.96 155.85 480 177.19 533.63 181.11" style="fill:#5c6166;"/><polygon points="553.89 75.07 540.46 81.37 511.41 16 580.15 80 553.89 75.07" style="fill:#5c6166;"/><polygon points="169.52 173.3 164.63 162.96 342.83 185.48 169.52 173.3" style="fill:#5c6166;"/><path d="M159.21,68.27c1.58,1.26,2.37,3.03,2.37,5.31,0,1.88-.45,3.52-1.36,4.93s-2.2,2.5-3.87,3.26c-1.68.77-3.62,1.15-5.84,1.15h-4.48l-1.15,5.86h-6.34l4.48-22.4h9.47c2.9,0,5.14.63,6.72,1.89ZM154.04,76.94c.76-.66,1.14-1.6,1.14-2.82,0-.92-.3-1.61-.91-2.06-.61-.46-1.48-.69-2.61-.69h-3.33l-1.31,6.56h3.78c1.41,0,2.49-.33,3.25-.99Z" style="fill:#fff;"/><path d="M176.78,71.15l-1.06,5.47c-.53-.06-.99-.1-1.38-.1-1.37,0-2.46.33-3.28.98-.82.65-1.37,1.68-1.65,3.09l-1.66,8.19h-6.08l3.46-17.34h5.76l-.38,1.92c1.45-1.47,3.54-2.21,6.27-2.21Z" style="fill:#fff;"/><path d="M194.89,81.61h-12.74c.21,1.88,1.53,2.82,3.94,2.82.77,0,1.51-.12,2.24-.35.72-.23,1.38-.59,1.95-1.06l2.53,3.81c-2.03,1.49-4.49,2.24-7.39,2.24-1.84,0-3.45-.33-4.85-.98-1.4-.65-2.47-1.57-3.23-2.75-.76-1.18-1.14-2.58-1.14-4.18,0-1.9.44-3.61,1.33-5.14s2.12-2.72,3.71-3.58c1.59-.86,3.41-1.3,5.46-1.3,1.73,0,3.24.31,4.53.94,1.29.63,2.28,1.52,2.97,2.67.69,1.15,1.04,2.49,1.04,4,0,.83-.12,1.78-.35,2.85ZM183.95,76.25c-.66.52-1.14,1.24-1.44,2.16h7.14c.02-.92-.27-1.64-.87-2.16-.6-.52-1.39-.78-2.37-.78s-1.8.26-2.46.78Z" style="fill:#fff;"/><path d="M214.91,72.67c1.14,1.01,1.71,2.47,1.71,4.37,0,.7-.08,1.42-.22,2.14l-1.92,9.6h-6.08l1.79-9.02c.08-.36.13-.75.13-1.15,0-1.54-.8-2.3-2.4-2.3-1.07,0-1.94.33-2.62.98-.68.65-1.16,1.63-1.44,2.93l-1.73,8.58h-6.08l3.46-17.34h5.76l-.35,1.79c.75-.7,1.59-1.23,2.53-1.57.94-.34,1.91-.51,2.91-.51,1.9,0,3.42.51,4.56,1.52Z" style="fill:#fff;"/><path d="M241.74,65.03l-4.73,23.74h-5.76l.35-1.7c-1.39,1.32-3.06,1.98-5.03,1.98-1.28,0-2.48-.31-3.6-.94-1.12-.63-2.02-1.54-2.7-2.74-.68-1.19-1.02-2.6-1.02-4.22,0-1.88.42-3.58,1.26-5.1.84-1.52,1.99-2.72,3.44-3.6,1.45-.87,3.03-1.31,4.74-1.31,2.47,0,4.23.77,5.28,2.3l1.7-8.42h6.08ZM231.66,82.83c.77-.9,1.15-2.06,1.15-3.49,0-1.02-.29-1.83-.86-2.43s-1.38-.9-2.4-.9c-1.21,0-2.21.45-2.98,1.34-.77.9-1.15,2.07-1.15,3.52,0,1.02.29,1.83.86,2.42s1.38.88,2.4.88c1.21,0,2.21-.45,2.97-1.34Z" style="fill:#fff;"/><path d="M243.39,88.59c-1.38-.32-2.45-.72-3.21-1.22l2.21-4.26c.79.49,1.73.88,2.82,1.17s2.15.43,3.2.43c1.86,0,2.79-.42,2.79-1.25,0-.34-.22-.59-.66-.75s-1.14-.31-2.1-.46c-1.28-.23-2.33-.49-3.15-.75-.82-.27-1.54-.72-2.16-1.36-.62-.64-.93-1.54-.93-2.69,0-2,.86-3.56,2.58-4.66,1.72-1.1,3.94-1.65,6.67-1.65,1.24,0,2.43.12,3.58.37,1.15.25,2.15.58,3.01,1.01l-2.14,4.26c-1.45-.88-3.17-1.31-5.15-1.31-.94,0-1.64.12-2.1.37s-.69.56-.69.94c0,.34.22.59.66.75s1.16.34,2.16.53c1.24.21,2.27.46,3.09.74.82.28,1.54.74,2.14,1.38.61.64.91,1.52.91,2.62,0,2.01-.86,3.55-2.59,4.64-1.73,1.09-3.94,1.63-6.62,1.63-1.49,0-2.93-.16-4.3-.48Z" style="fill:#fff;"/><path d="M272.6,88.09c-1.38-.65-2.44-1.57-3.2-2.77-.76-1.19-1.14-2.58-1.14-4.16,0-1.9.46-3.61,1.38-5.12.92-1.51,2.2-2.71,3.84-3.58,1.64-.87,3.49-1.31,5.54-1.31s3.66.41,5.09,1.23,2.47,1.98,3.14,3.47l-5.19,2.46c-.64-1.54-1.76-2.3-3.36-2.3-1.24,0-2.26.45-3.06,1.34-.8.9-1.2,2.05-1.2,3.46,0,1.02.29,1.84.88,2.45.59.61,1.42.91,2.51.91.81,0,1.53-.18,2.14-.54.62-.36,1.15-.94,1.6-1.73l4.45,2.69c-.83,1.41-2,2.51-3.5,3.3-1.5.79-3.21,1.18-5.1,1.18s-3.44-.33-4.82-.98Z" style="fill:#fff;"/><path d="M291.63,88.09c-1.37-.65-2.42-1.57-3.17-2.77-.75-1.19-1.12-2.58-1.12-4.16,0-1.9.46-3.61,1.38-5.12.92-1.51,2.19-2.71,3.81-3.58,1.62-.87,3.45-1.31,5.47-1.31,1.83,0,3.43.33,4.8.98,1.37.65,2.42,1.57,3.17,2.75.75,1.18,1.12,2.57,1.12,4.14,0,1.9-.46,3.61-1.38,5.14-.92,1.53-2.18,2.73-3.79,3.6-1.61.88-3.44,1.31-5.49,1.31-1.83,0-3.44-.33-4.8-.98ZM299.76,82.83c.77-.9,1.15-2.06,1.15-3.49,0-1.02-.29-1.83-.87-2.43-.57-.6-1.38-.9-2.4-.9-1.22,0-2.21.45-2.98,1.34-.77.9-1.15,2.07-1.15,3.52,0,1.02.29,1.83.86,2.42.58.59,1.38.88,2.4.88,1.22,0,2.21-.45,2.98-1.34Z" style="fill:#fff;"/><path d="M326.94,72.67c1.14,1.01,1.71,2.47,1.71,4.37,0,.7-.07,1.42-.22,2.14l-1.92,9.6h-6.08l1.79-9.02c.09-.36.13-.75.13-1.15,0-1.54-.8-2.3-2.4-2.3-1.07,0-1.94.33-2.62.98-.68.65-1.16,1.63-1.44,2.93l-1.73,8.58h-6.08l3.46-17.34h5.76l-.35,1.79c.75-.7,1.59-1.23,2.53-1.57.94-.34,1.91-.51,2.91-.51,1.9,0,3.42.51,4.56,1.52Z" style="fill:#fff;"/><path d="M332.83,88.59c-1.38-.32-2.45-.72-3.22-1.22l2.21-4.26c.79.49,1.73.88,2.81,1.17s2.15.43,3.2.43c1.86,0,2.78-.42,2.78-1.25,0-.34-.22-.59-.66-.75s-1.13-.31-2.1-.46c-1.28-.23-2.33-.49-3.15-.75-.82-.27-1.54-.72-2.16-1.36-.62-.64-.93-1.54-.93-2.69,0-2,.86-3.56,2.58-4.66,1.72-1.1,3.94-1.65,6.67-1.65,1.24,0,2.43.12,3.58.37,1.15.25,2.15.58,3.01,1.01l-2.14,4.26c-1.45-.88-3.17-1.31-5.15-1.31-.94,0-1.64.12-2.1.37-.46.25-.69.56-.69.94,0,.34.22.59.66.75s1.16.34,2.16.53c1.24.21,2.27.46,3.09.74.82.28,1.54.74,2.14,1.38.61.64.91,1.52.91,2.62,0,2.01-.86,3.55-2.59,4.64-1.73,1.09-3.94,1.63-6.62,1.63-1.49,0-2.93-.16-4.3-.48Z" style="fill:#fff;"/><path d="M352.73,88.09c-1.38-.65-2.44-1.57-3.2-2.77s-1.14-2.58-1.14-4.16c0-1.9.46-3.61,1.38-5.12.92-1.51,2.2-2.71,3.84-3.58,1.64-.87,3.49-1.31,5.54-1.31s3.66.41,5.09,1.23c1.43.82,2.47,1.98,3.13,3.47l-5.18,2.46c-.64-1.54-1.76-2.3-3.36-2.3-1.24,0-2.26.45-3.06,1.34-.8.9-1.2,2.05-1.2,3.46,0,1.02.29,1.84.88,2.45.59.61,1.42.91,2.51.91.81,0,1.53-.18,2.14-.54.62-.36,1.15-.94,1.6-1.73l4.45,2.69c-.83,1.41-2,2.51-3.5,3.3-1.51.79-3.21,1.18-5.11,1.18s-3.44-.33-4.82-.98Z" style="fill:#fff;"/><path d="M370.57,71.43h6.05l-3.46,17.34h-6.05l3.46-17.34ZM371.92,68.65c-.64-.58-.96-1.29-.96-2.14,0-1,.36-1.83,1.07-2.48s1.66-.98,2.83-.98c1.07,0,1.92.27,2.56.82.64.54.96,1.24.96,2.1,0,1.05-.36,1.9-1.09,2.56s-1.68.99-2.85.99c-1.04,0-1.89-.29-2.53-.86Z" style="fill:#fff;"/><path d="M396.36,81.61h-12.74c.21,1.88,1.53,2.82,3.94,2.82.77,0,1.51-.12,2.24-.35.72-.23,1.38-.59,1.95-1.06l2.53,3.81c-2.03,1.49-4.49,2.24-7.39,2.24-1.84,0-3.45-.33-4.85-.98-1.4-.65-2.47-1.57-3.23-2.75-.76-1.18-1.14-2.58-1.14-4.18,0-1.9.44-3.61,1.33-5.14s2.12-2.72,3.71-3.58c1.59-.86,3.41-1.3,5.46-1.3,1.73,0,3.24.31,4.53.94,1.29.63,2.28,1.52,2.97,2.67.69,1.15,1.04,2.49,1.04,4,0,.83-.12,1.78-.35,2.85ZM385.42,76.25c-.66.52-1.14,1.24-1.44,2.16h7.14c.02-.92-.27-1.64-.87-2.16-.6-.52-1.39-.78-2.37-.78s-1.8.26-2.46.78Z" style="fill:#fff;"/><path d="M416.38,72.67c1.14,1.01,1.71,2.47,1.71,4.37,0,.7-.07,1.42-.22,2.14l-1.92,9.6h-6.08l1.79-9.02c.09-.36.13-.75.13-1.15,0-1.54-.8-2.3-2.4-2.3-1.07,0-1.94.33-2.62.98-.68.65-1.16,1.63-1.44,2.93l-1.73,8.58h-6.08l3.46-17.34h5.76l-.35,1.79c.75-.7,1.59-1.23,2.53-1.57.94-.34,1.91-.51,2.91-.51,1.9,0,3.42.51,4.56,1.52Z" style="fill:#fff;"/><path d="M424.92,88.09c-1.38-.65-2.44-1.57-3.2-2.77-.76-1.19-1.14-2.58-1.14-4.16,0-1.9.46-3.61,1.38-5.12.92-1.51,2.2-2.71,3.84-3.58,1.64-.87,3.49-1.31,5.54-1.31s3.66.41,5.09,1.23,2.47,1.98,3.14,3.47l-5.19,2.46c-.64-1.54-1.76-2.3-3.36-2.3-1.24,0-2.26.45-3.06,1.34-.8.9-1.2,2.05-1.2,3.46,0,1.02.29,1.84.88,2.45.59.61,1.42.91,2.51.91.81,0,1.53-.18,2.14-.54.62-.36,1.15-.94,1.6-1.73l4.45,2.69c-.83,1.41-2,2.51-3.5,3.3-1.5.79-3.21,1.18-5.1,1.18s-3.44-.33-4.82-.98Z" style="fill:#fff;"/><path d="M458.38,81.61h-12.74c.21,1.88,1.53,2.82,3.94,2.82.77,0,1.51-.12,2.24-.35.72-.23,1.38-.59,1.95-1.06l2.53,3.81c-2.03,1.49-4.49,2.24-7.39,2.24-1.84,0-3.45-.33-4.85-.98-1.4-.65-2.47-1.57-3.23-2.75-.76-1.18-1.14-2.58-1.14-4.18,0-1.9.44-3.61,1.33-5.14s2.12-2.72,3.71-3.58c1.59-.86,3.41-1.3,5.46-1.3,1.73,0,3.24.31,4.53.94,1.29.63,2.28,1.52,2.97,2.67.69,1.15,1.04,2.49,1.04,4,0,.83-.12,1.78-.35,2.85ZM447.43,76.25c-.66.52-1.14,1.24-1.44,2.16h7.14c.02-.92-.27-1.64-.87-2.16-.6-.52-1.39-.78-2.37-.78s-1.8.26-2.46.78Z" style="fill:#fff;"/><path d="M201.82,103.43l-4.73,23.74h-5.76l.35-1.7c-1.39,1.32-3.06,1.98-5.03,1.98-1.28,0-2.48-.31-3.6-.94-1.12-.63-2.02-1.54-2.7-2.74-.68-1.19-1.02-2.6-1.02-4.22,0-1.88.42-3.58,1.26-5.1.84-1.53,1.99-2.72,3.44-3.6s3.03-1.31,4.74-1.31c2.47,0,4.23.77,5.28,2.3l1.7-8.42h6.08ZM191.74,121.23c.77-.9,1.15-2.06,1.15-3.49,0-1.02-.29-1.83-.86-2.43-.58-.6-1.38-.9-2.4-.9-1.21,0-2.21.45-2.98,1.34-.77.9-1.15,2.07-1.15,3.52,0,1.02.29,1.83.86,2.42s1.38.88,2.4.88c1.21,0,2.21-.45,2.97-1.34Z" style="fill:#fff;"/><path d="M220.25,120.01h-12.74c.21,1.88,1.53,2.82,3.94,2.82.77,0,1.51-.12,2.24-.35.72-.23,1.38-.59,1.95-1.06l2.53,3.81c-2.03,1.49-4.49,2.24-7.39,2.24-1.84,0-3.45-.33-4.85-.98-1.4-.65-2.47-1.57-3.23-2.75-.76-1.18-1.14-2.58-1.14-4.18,0-1.9.44-3.61,1.33-5.14.88-1.52,2.12-2.72,3.71-3.58,1.59-.86,3.41-1.3,5.46-1.3,1.73,0,3.24.32,4.53.94,1.29.63,2.28,1.52,2.97,2.67s1.04,2.49,1.04,4c0,.83-.12,1.78-.35,2.85ZM209.31,114.65c-.66.52-1.14,1.24-1.44,2.16h7.14c.02-.92-.27-1.64-.87-2.16s-1.39-.78-2.37-.78-1.8.26-2.46.78Z" style="fill:#fff;"/><path d="M238.78,120.71c-.04.3-.06.49-.06.58,0,.98.53,1.47,1.6,1.47.58,0,1.18-.17,1.82-.51l.77,4.19c-1.2.68-2.7,1.02-4.51,1.02s-3.22-.45-4.27-1.34c-1.05-.9-1.58-2.14-1.58-3.74,0-.62.05-1.16.16-1.63l1.15-5.73h-2.56l.93-4.54h2.53l.9-4.51h6.08l-.9,4.51h3.94l-.9,4.54h-3.94l-1.15,5.7Z" style="fill:#fff;"/><path d="M249.34,126.49c-1.37-.65-2.42-1.57-3.17-2.77-.75-1.19-1.12-2.58-1.12-4.16,0-1.9.46-3.6,1.38-5.12.92-1.51,2.19-2.71,3.81-3.58s3.45-1.31,5.47-1.31c1.83,0,3.43.33,4.8.98,1.37.65,2.42,1.57,3.17,2.75.75,1.18,1.12,2.57,1.12,4.14,0,1.9-.46,3.61-1.38,5.14-.92,1.53-2.18,2.73-3.79,3.6-1.61.88-3.44,1.31-5.49,1.31-1.83,0-3.44-.33-4.8-.98ZM257.47,121.23c.77-.9,1.15-2.06,1.15-3.49,0-1.02-.29-1.83-.87-2.43-.57-.6-1.38-.9-2.4-.9-1.22,0-2.21.45-2.98,1.34-.77.9-1.15,2.07-1.15,3.52,0,1.02.29,1.83.86,2.42.58.59,1.38.88,2.4.88,1.22,0,2.21-.45,2.98-1.34Z" style="fill:#fff;"/><path d="M284.65,111.07c1.14,1.01,1.71,2.47,1.71,4.37,0,.7-.07,1.42-.22,2.14l-1.92,9.6h-6.08l1.79-9.02c.09-.36.13-.75.13-1.15,0-1.54-.8-2.3-2.4-2.3-1.07,0-1.94.33-2.62.98-.68.65-1.16,1.63-1.44,2.93l-1.73,8.58h-6.08l3.46-17.34h5.76l-.35,1.79c.75-.7,1.59-1.23,2.53-1.57.94-.34,1.91-.51,2.91-.51,1.9,0,3.42.51,4.56,1.52Z" style="fill:#fff;"/><path d="M300.83,109.83h6.05l-3.46,17.34h-6.05l3.46-17.34ZM302.17,107.05c-.64-.58-.96-1.29-.96-2.14,0-1,.36-1.83,1.07-2.48.71-.65,1.66-.98,2.83-.98,1.07,0,1.92.27,2.56.82s.96,1.24.96,2.1c0,1.04-.36,1.9-1.09,2.56-.73.66-1.68.99-2.85.99-1.04,0-1.89-.29-2.53-.86Z" style="fill:#fff;"/><path d="M337.4,111.08c1.11,1.02,1.66,2.47,1.66,4.35,0,.7-.07,1.42-.22,2.14l-1.89,9.6h-6.08l1.79-8.96c.08-.41.13-.81.13-1.22,0-.77-.19-1.34-.56-1.73-.37-.38-.91-.58-1.62-.58-1.94,0-3.17,1.25-3.68,3.74l-1.76,8.74h-6.08l1.82-8.96c.08-.36.13-.76.13-1.18,0-.77-.19-1.35-.56-1.74-.38-.39-.91-.59-1.62-.59-1.96,0-3.2,1.27-3.71,3.81l-1.73,8.67h-6.08l3.46-17.34h5.76l-.35,1.76c1.43-1.37,3.16-2.05,5.19-2.05,1.15,0,2.19.24,3.1.72.92.48,1.62,1.18,2.11,2.1.81-.92,1.75-1.62,2.83-2.1,1.08-.48,2.26-.72,3.54-.72,1.83,0,3.3.51,4.42,1.54Z" style="fill:#fff;"/><path d="M358.28,110.49c1.12.63,2.02,1.54,2.71,2.74.68,1.2,1.02,2.59,1.02,4.19,0,1.9-.42,3.61-1.26,5.14-.84,1.53-1.98,2.73-3.42,3.6-1.44.88-3.01,1.31-4.72,1.31-2.52,0-4.29-.79-5.31-2.37l-1.66,8.29h-6.08l4.71-23.55h5.76l-.35,1.63c1.39-1.28,3.06-1.92,5.02-1.92,1.28,0,2.48.32,3.6.94ZM354.71,121.23c.77-.9,1.15-2.06,1.15-3.49,0-1.02-.29-1.83-.88-2.43-.59-.6-1.39-.9-2.42-.9-1.22,0-2.21.45-2.98,1.34-.77.9-1.15,2.07-1.15,3.52,0,1.02.29,1.83.88,2.42.59.59,1.39.88,2.42.88,1.21,0,2.21-.45,2.97-1.34Z" style="fill:#fff;"/><path d="M384.83,109.83l-3.46,17.34h-5.76l.35-1.63c-1.39,1.28-3.06,1.92-5.02,1.92-1.28,0-2.48-.31-3.6-.94-1.12-.63-2.02-1.54-2.71-2.74-.68-1.19-1.02-2.6-1.02-4.22,0-1.88.42-3.58,1.26-5.1.84-1.53,1.98-2.72,3.42-3.6s3.01-1.31,4.72-1.31c2.52,0,4.29.79,5.31,2.37l.42-2.08h6.08ZM376.03,121.23c.77-.9,1.15-2.06,1.15-3.49,0-1.02-.29-1.83-.88-2.43-.59-.6-1.39-.9-2.42-.9-1.21,0-2.21.45-2.98,1.34-.77.9-1.15,2.07-1.15,3.52,0,1.02.29,1.83.88,2.42s1.39.88,2.42.88c1.22,0,2.21-.45,2.98-1.34Z" style="fill:#fff;"/><path d="M390.15,126.49c-1.38-.65-2.44-1.57-3.2-2.77-.76-1.19-1.14-2.58-1.14-4.16,0-1.9.46-3.6,1.38-5.12.92-1.51,2.2-2.71,3.84-3.58,1.64-.88,3.49-1.31,5.54-1.31s3.66.41,5.09,1.23,2.47,1.98,3.14,3.47l-5.19,2.46c-.64-1.54-1.76-2.3-3.36-2.3-1.24,0-2.26.45-3.06,1.34-.8.9-1.2,2.05-1.2,3.46,0,1.02.29,1.84.88,2.45.59.61,1.42.91,2.51.91.81,0,1.53-.18,2.14-.54.62-.36,1.15-.94,1.6-1.73l4.45,2.69c-.83,1.41-2,2.51-3.5,3.3s-3.21,1.18-5.1,1.18-3.44-.33-4.82-.98Z" style="fill:#fff;"/><path d="M412.89,120.71c-.04.3-.06.49-.06.58,0,.98.53,1.47,1.6,1.47.58,0,1.18-.17,1.82-.51l.77,4.19c-1.2.68-2.7,1.02-4.51,1.02s-3.21-.45-4.27-1.34c-1.06-.9-1.58-2.14-1.58-3.74,0-.62.05-1.16.16-1.63l1.15-5.73h-2.56l.93-4.54h2.53l.9-4.51h6.08l-.9,4.51h3.94l-.9,4.54h-3.94l-1.15,5.7Z" style="fill:#fff;"/></svg>