<?xml version="1.0" encoding="UTF-8"?><svg id="Calque_1" xmlns="http://www.w3.org/2000/svg" viewBox="0 0 597.33 197.33"><path d="M68.74,11.26c2.96,0,128,2.37,128,2.37,0,0,26.33,9.48,28.57,9.48s78.69-11.85,78.69-11.85L451.56,0l59.85,16,68.74,64,17.19,81.78-10.07,35.56-56.3-41.48-50.96,21.33-137.17,8.3-178.09-22.52-88.7,30.22L4.15,130.96l21.98-58.81L0,26.67l96.59,10.07-27.85-25.48Z" style="fill:#9da7b0;"/><polygon points="480 177.19 530.96 155.85 587.26 197.33 533.63 181.11 480 177.19" style="fill:#798085;"/><path d="M587.26,197.33s10.23-34.84,10.07-35.56l-10.48-49.86s-24.3,30.23-24.15,30.67,24.56,54.74,24.56,54.74Z" style="fill:#798085;"/><polygon points="76.04 193.19 169.52 173.3 342.83 185.48 164.74 162.96 76.04 193.19" style="fill:#798085;"/><polygon points="377.71 183.37 399.52 176.59 441.37 111.22 440.04 160.7 480 155.85 468.64 177.87 377.71 183.37" style="fill:#798085;"/><path d="M0,26.67l46.33,30.26s54.89,6,54.22,6.22-56,21.78-56,21.78l42.67-4L4.15,130.96l21.98-58.81L0,26.67Z" style="fill:#798085;"/><polygon points="68.74 11.26 73.44 22.04 0 26.67 96.59 36.74 68.74 11.26" style="fill:#798085;"/><path d="M225.31,23.11s161.76,27.96,160.87,27.67-82.19-39.52-82.19-39.52l-78.69,11.85Z" style="fill:#798085;"/><polygon points="511.41 16 546.48 94.93 553.89 75.07 580.15 80 511.41 16" style="fill:#798085;"/><polygon points="443.09 .65 450.78 2.78 468.26 48.37 455.68 4.22 474.38 6.1 451.56 0 443.09 .65" style="fill:#d7dee6;"/><path d="M553.89,75.07l26.26,4.93,5.13,24.42s-5.65-20.2-6.87-20.42-24.52-8.93-24.52-8.93Z" style="fill:#d7dee6;"/><path d="M68.74,11.26l128,2.37s26.6,9.13,27.59,9.31,161.85,27.84,161.85,27.84l-156.81-18.67-14.44,71.56,2.44-72.65-23.33-13.13-125.3-6.63Z" style="fill:#d7dee6;"/><polygon points="530.96 155.85 572.56 177.37 562.7 142.59 587.26 197.33 530.96 155.85" style="fill:#d7dee6;"/><polygon points="546.48 94.93 508.04 19.33 474.38 6.1 511.41 16 546.48 94.93" style="fill:#d7dee6;"/><path d="M387.44,80.99l74.37-14.52,45.63,23.41s-44.74-17.19-45.63-17.48-74.37,8.59-74.37,8.59Z" style="fill:#d7dee6;"/><path d="M461.81,72.4l16.37,40.63v-20.31s30.74-2.65,29.26-2.83-45.63-17.48-45.63-17.48Z" style="fill:#798085;"/><polygon points="96.59 36.74 0 26.67 46.33 56.93 21.15 33.78 96.59 36.74" style="fill:#d7dee6;"/><polygon points="96.59 36.74 68.74 11.26 132.19 12.43 81.96 14.74 96.59 36.74" style="fill:#d7dee6;"/><polygon points="4.04 130.96 75.93 193.19 164.63 162.96 77.93 181.33 4.04 130.96" style="fill:#d7dee6;"/><path d="M87.22,80.93s-41.07,4.33-42.67,4S4.04,130.96,4.04,130.96l83.19-50.04Z" style="fill:#5c6166;"/><polygon points="46.33 56.93 83.14 69.92 100.56 63.15 46.33 56.93" style="fill:#5c6166;"/><polygon points="440.04 160.7 435.19 135.19 399.52 176.59 441.37 111.22 440.04 160.7" style="fill:#5c6166;"/><polygon points="440.04 160.7 480 155.85 468.64 177.87 470.59 166.86 440.04 160.7" style="fill:#5c6166;"/><polygon points="586.86 111.92 594.45 148.07 578.96 148.07 587.26 197.33 562.7 142.59 586.86 111.92" style="fill:#5c6166;"/><polygon points="533.63 181.11 530.96 155.85 480 177.19 533.63 181.11" style="fill:#5c6166;"/><polygon points="553.89 75.07 540.46 81.37 511.41 16 580.15 80 553.89 75.07" style="fill:#5c6166;"/><polygon points="169.52 173.3 164.63 162.96 342.83 185.48 169.52 173.3" style="fill:#5c6166;"/><path d="M101.44,78.81c-1.09,1.48-2.61,2.57-4.58,3.25l3.81,6.72h-6.62l-3.33-5.95h-3.2l-1.18,5.95h-6.34l4.48-22.4h9.57c2.86,0,5.08.63,6.66,1.89,1.58,1.26,2.37,3.01,2.37,5.25,0,2.05-.54,3.81-1.63,5.3ZM95.74,72.06c-.62-.46-1.48-.69-2.59-.69h-3.33l-1.34,6.56h3.78c1.41,0,2.5-.33,3.26-.99.77-.66,1.15-1.6,1.15-2.82,0-.92-.31-1.61-.93-2.06Z" style="fill:#fff;"/><path d="M122.65,81.61h-12.74c.21,1.88,1.53,2.82,3.94,2.82.77,0,1.51-.12,2.24-.35.73-.23,1.38-.59,1.95-1.06l2.53,3.81c-2.03,1.49-4.49,2.24-7.39,2.24-1.83,0-3.45-.33-4.85-.98-1.4-.65-2.47-1.57-3.23-2.75-.76-1.18-1.14-2.58-1.14-4.18,0-1.9.44-3.61,1.33-5.14.88-1.52,2.12-2.72,3.71-3.58,1.59-.86,3.41-1.3,5.46-1.3,1.73,0,3.24.31,4.53.94,1.29.63,2.28,1.52,2.98,2.67.69,1.15,1.04,2.49,1.04,4,0,.83-.12,1.78-.35,2.85ZM111.71,76.25c-.66.52-1.14,1.24-1.44,2.16h7.14c.02-.92-.27-1.64-.86-2.16-.6-.52-1.39-.78-2.37-.78s-1.8.26-2.46.78ZM117.18,64.49h6.27l-6.56,4.86h-4.51l4.8-4.86Z" style="fill:#fff;"/><path d="M134.65,69.98c-.38.37-.66.95-.83,1.74l-.06.35h4.1l-.9,4.54h-3.94l-2.43,12.16h-6.08l2.43-12.16h-2.56l.93-4.54h2.56l.13-.7c.41-2.05,1.3-3.66,2.69-4.85s3.21-1.78,5.47-1.78c1.73,0,3.12.31,4.19.93l-2.34,4.26c-.55-.34-1.15-.51-1.79-.51s-1.18.19-1.57.56ZM141.53,65.03h6.08l-4.74,23.74h-6.08l4.74-23.74Z" style="fill:#fff;"/><path d="M166.08,81.61h-12.74c.21,1.88,1.53,2.82,3.94,2.82.77,0,1.51-.12,2.24-.35.73-.23,1.38-.59,1.95-1.06l2.53,3.81c-2.03,1.49-4.49,2.24-7.39,2.24-1.83,0-3.45-.33-4.85-.98-1.4-.65-2.47-1.57-3.23-2.75-.76-1.18-1.14-2.58-1.14-4.18,0-1.9.44-3.61,1.33-5.14.88-1.52,2.12-2.72,3.71-3.58,1.59-.86,3.41-1.3,5.46-1.3,1.73,0,3.24.31,4.53.94,1.29.63,2.28,1.52,2.98,2.67.69,1.15,1.04,2.49,1.04,4,0,.83-.12,1.78-.35,2.85ZM155.13,76.25c-.66.52-1.14,1.24-1.44,2.16h7.14c.02-.92-.27-1.64-.86-2.16-.6-.52-1.39-.78-2.37-.78s-1.8.26-2.46.78ZM160.6,64.49h6.27l-6.56,4.86h-4.51l4.8-4.86Z" style="fill:#fff;"/><path d="M172.11,88.09c-1.38-.65-2.44-1.57-3.2-2.77-.76-1.19-1.14-2.58-1.14-4.16,0-1.9.46-3.6,1.38-5.12s2.2-2.71,3.84-3.58c1.64-.87,3.49-1.31,5.54-1.31s3.66.41,5.09,1.23c1.43.82,2.47,1.98,3.14,3.47l-5.18,2.46c-.64-1.54-1.76-2.3-3.36-2.3-1.24,0-2.26.45-3.06,1.34-.8.9-1.2,2.05-1.2,3.46,0,1.02.29,1.84.88,2.45.59.61,1.42.91,2.51.91.81,0,1.53-.18,2.14-.54.62-.36,1.15-.94,1.6-1.73l4.45,2.69c-.83,1.41-2,2.51-3.5,3.3-1.5.79-3.21,1.18-5.1,1.18s-3.44-.33-4.82-.98Z" style="fill:#fff;"/><path d="M205.28,72.68c1.15,1.02,1.73,2.5,1.73,4.42,0,.7-.08,1.4-.22,2.08l-1.92,9.6h-6.08l1.79-9.02c.08-.36.13-.75.13-1.15,0-1.54-.8-2.3-2.4-2.3-1.07,0-1.94.33-2.62.98-.68.65-1.16,1.63-1.44,2.93l-1.73,8.58h-6.08l4.74-23.74h6.08l-1.57,7.84c1.47-1.15,3.16-1.73,5.06-1.73s3.39.51,4.54,1.54Z" style="fill:#fff;"/><path d="M212.16,71.43h6.05l-3.46,17.34h-6.05l3.46-17.34ZM213.5,68.65c-.64-.58-.96-1.29-.96-2.14,0-1,.36-1.83,1.07-2.48.71-.65,1.66-.98,2.83-.98,1.07,0,1.92.27,2.56.82.64.54.96,1.24.96,2.1,0,1.05-.36,1.9-1.09,2.56-.73.66-1.68.99-2.85.99-1.04,0-1.89-.29-2.53-.86Z" style="fill:#fff;"/><path d="M221.16,88.59c-1.38-.32-2.45-.73-3.22-1.22l2.21-4.26c.79.49,1.73.88,2.82,1.17s2.15.43,3.2.43c1.86,0,2.78-.42,2.78-1.25,0-.34-.22-.59-.66-.75s-1.14-.31-2.1-.46c-1.28-.23-2.33-.49-3.15-.75s-1.54-.72-2.16-1.36c-.62-.64-.93-1.54-.93-2.69,0-2,.86-3.56,2.58-4.66,1.72-1.1,3.94-1.65,6.67-1.65,1.24,0,2.43.12,3.58.37,1.15.25,2.15.58,3.01,1.01l-2.14,4.26c-1.45-.87-3.17-1.31-5.15-1.31-.94,0-1.64.12-2.1.37-.46.25-.69.56-.69.94,0,.34.22.59.66.75s1.16.34,2.16.53c1.24.21,2.27.46,3.09.74s1.54.74,2.14,1.38c.61.64.91,1.52.91,2.62,0,2.01-.86,3.55-2.59,4.64-1.73,1.09-3.94,1.63-6.62,1.63-1.49,0-2.93-.16-4.3-.48Z" style="fill:#fff;"/><path d="M267.29,71.43l-3.46,17.34h-5.76l.35-1.63c-1.39,1.28-3.06,1.92-5.02,1.92-1.28,0-2.48-.31-3.6-.94s-2.02-1.54-2.7-2.74c-.68-1.19-1.02-2.6-1.02-4.22,0-1.88.42-3.58,1.26-5.1.84-1.52,1.98-2.72,3.42-3.6,1.44-.87,3.01-1.31,4.72-1.31,2.52,0,4.29.79,5.31,2.37l.42-2.08h6.08ZM258.49,82.83c.77-.9,1.15-2.06,1.15-3.49,0-1.02-.29-1.83-.88-2.43-.59-.6-1.39-.9-2.42-.9-1.22,0-2.21.45-2.98,1.34-.77.9-1.15,2.07-1.15,3.52,0,1.02.29,1.83.88,2.42.59.59,1.39.88,2.42.88,1.22,0,2.21-.45,2.98-1.34Z" style="fill:#fff;"/><path d="M289.47,71.43l-10.59,17.34h-6.3l-3.68-17.34h6.02l2.11,10.62,6.43-10.62h6.02Z" style="fill:#fff;"/><path d="M308.89,71.43l-3.46,17.34h-5.76l.35-1.63c-1.39,1.28-3.06,1.92-5.02,1.92-1.28,0-2.48-.31-3.6-.94s-2.02-1.54-2.7-2.74c-.68-1.19-1.02-2.6-1.02-4.22,0-1.88.42-3.58,1.26-5.1.84-1.52,1.98-2.72,3.42-3.6,1.44-.87,3.01-1.31,4.72-1.31,2.52,0,4.29.79,5.31,2.37l.42-2.08h6.08ZM300.09,82.83c.77-.9,1.15-2.06,1.15-3.49,0-1.02-.29-1.83-.88-2.43-.59-.6-1.39-.9-2.42-.9-1.22,0-2.21.45-2.98,1.34-.77.9-1.15,2.07-1.15,3.52,0,1.02.29,1.83.88,2.42.59.59,1.39.88,2.42.88,1.22,0,2.21-.45,2.98-1.34Z" style="fill:#fff;"/><path d="M328.2,72.67c1.14,1.01,1.71,2.47,1.71,4.37,0,.7-.08,1.42-.22,2.14l-1.92,9.6h-6.08l1.79-9.02c.08-.36.13-.75.13-1.15,0-1.54-.8-2.3-2.4-2.3-1.07,0-1.94.33-2.62.98-.68.65-1.16,1.63-1.44,2.93l-1.73,8.58h-6.08l3.46-17.34h5.76l-.35,1.79c.75-.7,1.59-1.23,2.53-1.57.94-.34,1.91-.51,2.91-.51,1.9,0,3.42.51,4.56,1.52Z" style="fill:#fff;"/><path d="M339.68,82.31c-.04.3-.06.49-.06.58,0,.98.53,1.47,1.6,1.47.58,0,1.18-.17,1.82-.51l.77,4.19c-1.2.68-2.7,1.02-4.51,1.02s-3.22-.45-4.27-1.34c-1.06-.9-1.58-2.14-1.58-3.74,0-.62.05-1.16.16-1.63l1.15-5.73h-2.56l.93-4.54h2.53l.9-4.51h6.08l-.9,4.51h3.94l-.9,4.54h-3.94l-1.15,5.7Z" style="fill:#fff;"/><path d="M378.39,65.03l-4.74,23.74h-5.76l.35-1.7c-1.39,1.32-3.06,1.98-5.02,1.98-1.28,0-2.48-.31-3.6-.94s-2.02-1.54-2.7-2.74c-.68-1.19-1.02-2.6-1.02-4.22,0-1.88.42-3.58,1.26-5.1.84-1.52,1.99-2.72,3.44-3.6,1.45-.87,3.03-1.31,4.74-1.31,2.47,0,4.23.77,5.28,2.3l1.7-8.42h6.08ZM368.31,82.83c.77-.9,1.15-2.06,1.15-3.49,0-1.02-.29-1.83-.86-2.43-.58-.6-1.38-.9-2.4-.9-1.22,0-2.21.45-2.98,1.34-.77.9-1.15,2.07-1.15,3.52,0,1.02.29,1.83.86,2.42.58.59,1.38.88,2.4.88,1.22,0,2.21-.45,2.98-1.34Z" style="fill:#fff;"/><path d="M381.37,66.38h5.15l-2.27,9.34h-4.32l1.44-9.34Z" style="fill:#fff;"/><path d="M407.1,71.43l-3.46,17.34h-5.76l.35-1.63c-1.39,1.28-3.06,1.92-5.02,1.92-1.28,0-2.48-.31-3.6-.94s-2.02-1.54-2.7-2.74c-.68-1.19-1.02-2.6-1.02-4.22,0-1.88.42-3.58,1.26-5.1.84-1.52,1.98-2.72,3.42-3.6,1.44-.87,3.01-1.31,4.72-1.31,2.52,0,4.29.79,5.31,2.37l.42-2.08h6.08ZM398.3,82.83c.77-.9,1.15-2.06,1.15-3.49,0-1.02-.29-1.83-.88-2.43-.59-.6-1.39-.9-2.42-.9-1.22,0-2.21.45-2.98,1.34-.77.9-1.15,2.07-1.15,3.52,0,1.02.29,1.83.88,2.42.59.59,1.39.88,2.42.88,1.22,0,2.21-.45,2.98-1.34Z" style="fill:#fff;"/><path d="M412.43,88.09c-1.38-.65-2.44-1.57-3.2-2.77-.76-1.19-1.14-2.58-1.14-4.16,0-1.9.46-3.6,1.38-5.12s2.2-2.71,3.84-3.58c1.64-.87,3.49-1.31,5.54-1.31s3.66.41,5.09,1.23c1.43.82,2.47,1.98,3.14,3.47l-5.18,2.46c-.64-1.54-1.76-2.3-3.36-2.3-1.24,0-2.26.45-3.06,1.34-.8.9-1.2,2.05-1.2,3.46,0,1.02.29,1.84.88,2.45.59.61,1.42.91,2.51.91.81,0,1.53-.18,2.14-.54.62-.36,1.15-.94,1.6-1.73l4.45,2.69c-.83,1.41-2,2.51-3.5,3.3-1.5.79-3.21,1.18-5.1,1.18s-3.44-.33-4.82-.98Z" style="fill:#fff;"/><path d="M445.59,72.68c1.15,1.02,1.73,2.5,1.73,4.42,0,.7-.08,1.4-.22,2.08l-1.92,9.6h-6.08l1.79-9.02c.08-.36.13-.75.13-1.15,0-1.54-.8-2.3-2.4-2.3-1.07,0-1.94.33-2.62.98-.68.65-1.16,1.63-1.44,2.93l-1.73,8.58h-6.08l4.74-23.74h6.08l-1.57,7.84c1.47-1.15,3.16-1.73,5.06-1.73s3.39.51,4.54,1.54Z" style="fill:#fff;"/><path d="M468.54,81.61h-12.74c.21,1.88,1.53,2.82,3.94,2.82.77,0,1.51-.12,2.24-.35.73-.23,1.38-.59,1.95-1.06l2.53,3.81c-2.03,1.49-4.49,2.24-7.39,2.24-1.83,0-3.45-.33-4.85-.98-1.4-.65-2.47-1.57-3.23-2.75-.76-1.18-1.14-2.58-1.14-4.18,0-1.9.44-3.61,1.33-5.14.88-1.52,2.12-2.72,3.71-3.58,1.59-.86,3.41-1.3,5.46-1.3,1.73,0,3.24.31,4.53.94,1.29.63,2.28,1.52,2.98,2.67.69,1.15,1.04,2.49,1.04,4,0,.83-.12,1.78-.35,2.85ZM457.59,76.25c-.66.52-1.14,1.24-1.44,2.16h7.14c.02-.92-.27-1.64-.86-2.16-.6-.52-1.39-.78-2.37-.78s-1.8.26-2.46.78Z" style="fill:#fff;"/><path d="M477.75,82.31c-.04.3-.06.49-.06.58,0,.98.53,1.47,1.6,1.47.58,0,1.18-.17,1.82-.51l.77,4.19c-1.2.68-2.7,1.02-4.51,1.02s-3.22-.45-4.27-1.34c-1.06-.9-1.58-2.14-1.58-3.74,0-.62.05-1.16.16-1.63l1.15-5.73h-2.56l.93-4.54h2.53l.9-4.51h6.08l-.9,4.51h3.94l-.9,4.54h-3.94l-1.15,5.7Z" style="fill:#fff;"/><path d="M502.75,81.61h-12.74c.21,1.88,1.53,2.82,3.94,2.82.77,0,1.51-.12,2.24-.35.73-.23,1.38-.59,1.95-1.06l2.53,3.81c-2.03,1.49-4.49,2.24-7.39,2.24-1.83,0-3.45-.33-4.85-.98-1.4-.65-2.47-1.57-3.23-2.75-.76-1.18-1.14-2.58-1.14-4.18,0-1.9.44-3.61,1.33-5.14.88-1.52,2.12-2.72,3.71-3.58,1.59-.86,3.41-1.3,5.46-1.3,1.73,0,3.24.31,4.53.94,1.29.63,2.28,1.52,2.98,2.67.69,1.15,1.04,2.49,1.04,4,0,.83-.12,1.78-.35,2.85ZM491.8,76.25c-.66.52-1.14,1.24-1.44,2.16h7.14c.02-.92-.27-1.64-.86-2.16-.6-.52-1.39-.78-2.37-.78s-1.8.26-2.46.78Z" style="fill:#fff;"/><path d="M519,71.15l-1.06,5.47c-.53-.06-.99-.1-1.38-.1-1.37,0-2.46.33-3.28.98-.82.65-1.37,1.68-1.65,3.09l-1.66,8.19h-6.08l3.46-17.34h5.76l-.38,1.92c1.45-1.47,3.54-2.21,6.27-2.21Z" style="fill:#fff;"/><path d="M98.91,103.43l-4.74,23.74h-5.76l.35-1.7c-1.39,1.32-3.06,1.98-5.02,1.98-1.28,0-2.48-.31-3.6-.94s-2.02-1.54-2.7-2.74c-.68-1.19-1.02-2.6-1.02-4.22,0-1.88.42-3.58,1.26-5.1.84-1.52,1.99-2.72,3.44-3.6,1.45-.87,3.03-1.31,4.74-1.31,2.47,0,4.23.77,5.28,2.3l1.7-8.42h6.08ZM88.83,121.23c.77-.9,1.15-2.06,1.15-3.49,0-1.02-.29-1.83-.86-2.43-.58-.6-1.38-.9-2.4-.9-1.22,0-2.21.45-2.98,1.34-.77.9-1.15,2.07-1.15,3.52,0,1.02.29,1.83.86,2.42.58.59,1.38.88,2.4.88,1.22,0,2.21-.45,2.98-1.34Z" style="fill:#fff;"/><path d="M117.34,120.01h-12.74c.21,1.88,1.53,2.82,3.94,2.82.77,0,1.51-.12,2.24-.35.73-.23,1.38-.59,1.95-1.06l2.53,3.81c-2.03,1.49-4.49,2.24-7.39,2.24-1.83,0-3.45-.33-4.85-.98-1.4-.65-2.47-1.57-3.23-2.75-.76-1.18-1.14-2.58-1.14-4.18,0-1.9.44-3.61,1.33-5.14.88-1.52,2.12-2.72,3.71-3.58,1.59-.86,3.41-1.3,5.46-1.3,1.73,0,3.24.31,4.53.94,1.29.63,2.28,1.52,2.98,2.67.69,1.15,1.04,2.49,1.04,4,0,.83-.12,1.78-.35,2.85ZM106.4,114.65c-.66.52-1.14,1.24-1.44,2.16h7.14c.02-.92-.27-1.64-.86-2.16-.6-.52-1.39-.78-2.37-.78s-1.8.26-2.46.78Z" style="fill:#fff;"/><path d="M146.67,111.07c1.14,1.01,1.71,2.47,1.71,4.37,0,.7-.08,1.42-.22,2.14l-1.92,9.6h-6.08l1.79-9.02c.08-.36.13-.75.13-1.15,0-1.54-.8-2.3-2.4-2.3-1.07,0-1.94.33-2.62.98-.68.65-1.16,1.63-1.44,2.93l-1.73,8.58h-6.08l3.46-17.34h5.76l-.35,1.79c.75-.7,1.59-1.23,2.53-1.57.94-.34,1.91-.51,2.91-.51,1.9,0,3.42.51,4.56,1.52Z" style="fill:#fff;"/><path d="M155.17,126.49c-1.37-.65-2.42-1.57-3.17-2.77-.75-1.19-1.12-2.58-1.12-4.16,0-1.9.46-3.6,1.38-5.12s2.19-2.71,3.81-3.58c1.62-.87,3.45-1.31,5.47-1.31,1.83,0,3.43.33,4.8.98s2.42,1.57,3.17,2.75c.75,1.18,1.12,2.57,1.12,4.14,0,1.9-.46,3.61-1.38,5.14-.92,1.53-2.18,2.73-3.79,3.6-1.61.88-3.44,1.31-5.49,1.31-1.83,0-3.44-.33-4.8-.98ZM163.29,121.23c.77-.9,1.15-2.06,1.15-3.49,0-1.02-.29-1.83-.86-2.43-.58-.6-1.38-.9-2.4-.9-1.22,0-2.21.45-2.98,1.34-.77.9-1.15,2.07-1.15,3.52,0,1.02.29,1.83.86,2.42.58.59,1.38.88,2.4.88,1.22,0,2.21-.45,2.98-1.34Z" style="fill:#fff;"/><path d="M193.31,109.83l-3.46,17.34h-5.76l.35-1.79c-.75.7-1.58,1.23-2.51,1.57-.93.34-1.88.51-2.86.51-1.9,0-3.41-.51-4.53-1.54s-1.68-2.48-1.68-4.38c0-.7.08-1.42.22-2.14l1.92-9.57h6.08l-1.79,8.99c-.09.41-.13.8-.13,1.18,0,1.52.78,2.27,2.34,2.27,1.04,0,1.91-.33,2.59-.98.68-.65,1.15-1.62,1.41-2.9l1.73-8.58h6.08Z" style="fill:#fff;"/><path d="M215.48,109.83l-10.59,17.34h-6.3l-3.68-17.34h6.02l2.11,10.62,6.43-10.62h6.02Z" style="fill:#fff;"/><path d="M232.38,120.01h-12.74c.21,1.88,1.53,2.82,3.94,2.82.77,0,1.51-.12,2.24-.35.73-.23,1.38-.59,1.95-1.06l2.53,3.81c-2.03,1.49-4.49,2.24-7.39,2.24-1.83,0-3.45-.33-4.85-.98-1.4-.65-2.47-1.57-3.23-2.75-.76-1.18-1.14-2.58-1.14-4.18,0-1.9.44-3.61,1.33-5.14.88-1.52,2.12-2.72,3.71-3.58,1.59-.86,3.41-1.3,5.46-1.3,1.73,0,3.24.31,4.53.94,1.29.63,2.28,1.52,2.98,2.67.69,1.15,1.04,2.49,1.04,4,0,.83-.12,1.78-.35,2.85ZM221.44,114.65c-.66.52-1.14,1.24-1.44,2.16h7.14c.02-.92-.27-1.64-.86-2.16-.6-.52-1.39-.78-2.37-.78s-1.8.26-2.46.78Z" style="fill:#fff;"/><path d="M238.27,103.43h6.08l-4.74,23.74h-6.08l4.74-23.74Z" style="fill:#fff;"/><path d="M248.28,103.43h6.08l-4.74,23.74h-6.08l4.74-23.74Z" style="fill:#fff;"/><path d="M272.83,120.01h-12.74c.21,1.88,1.53,2.82,3.94,2.82.77,0,1.51-.12,2.24-.35.73-.23,1.38-.59,1.95-1.06l2.53,3.81c-2.03,1.49-4.49,2.24-7.39,2.24-1.83,0-3.45-.33-4.85-.98-1.4-.65-2.47-1.57-3.23-2.75-.76-1.18-1.14-2.58-1.14-4.18,0-1.9.44-3.61,1.33-5.14.88-1.52,2.12-2.72,3.71-3.58,1.59-.86,3.41-1.3,5.46-1.3,1.73,0,3.24.31,4.53.94,1.29.63,2.28,1.52,2.98,2.67.69,1.15,1.04,2.49,1.04,4,0,.83-.12,1.78-.35,2.85ZM261.88,114.65c-.66.52-1.14,1.24-1.44,2.16h7.14c.02-.92-.27-1.64-.86-2.16-.6-.52-1.39-.78-2.37-.78s-1.8.26-2.46.78Z" style="fill:#fff;"/><path d="M276.46,126.99c-1.38-.32-2.45-.73-3.22-1.22l2.21-4.26c.79.49,1.73.88,2.82,1.17s2.15.43,3.2.43c1.86,0,2.78-.42,2.78-1.25,0-.34-.22-.59-.66-.75s-1.14-.31-2.1-.46c-1.28-.23-2.33-.49-3.15-.75s-1.54-.72-2.16-1.36c-.62-.64-.93-1.54-.93-2.69,0-2,.86-3.56,2.58-4.66,1.72-1.1,3.94-1.65,6.67-1.65,1.24,0,2.43.12,3.58.37,1.15.25,2.15.58,3.01,1.01l-2.14,4.26c-1.45-.87-3.17-1.31-5.15-1.31-.94,0-1.64.12-2.1.37-.46.25-.69.56-.69.94,0,.34.22.59.66.75s1.16.34,2.16.53c1.24.21,2.27.46,3.09.74s1.54.74,2.14,1.38c.61.64.91,1.52.91,2.62,0,2.01-.86,3.55-2.59,4.64-1.73,1.09-3.94,1.63-6.62,1.63-1.49,0-2.93-.16-4.3-.48Z" style="fill:#fff;"/><path d="M308.86,120.71c-.04.3-.06.49-.06.58,0,.98.53,1.47,1.6,1.47.58,0,1.18-.17,1.82-.51l.77,4.19c-1.2.68-2.7,1.02-4.51,1.02s-3.22-.45-4.27-1.34c-1.06-.9-1.58-2.14-1.58-3.74,0-.62.05-1.16.16-1.63l1.15-5.73h-2.56l.93-4.54h2.53l.9-4.51h6.08l-.9,4.51h3.94l-.9,4.54h-3.94l-1.15,5.7Z" style="fill:#fff;"/><path d="M333.85,120.01h-12.74c.21,1.88,1.53,2.82,3.94,2.82.77,0,1.51-.12,2.24-.35.73-.23,1.38-.59,1.95-1.06l2.53,3.81c-2.03,1.49-4.49,2.24-7.39,2.24-1.83,0-3.45-.33-4.85-.98-1.4-.65-2.47-1.57-3.23-2.75-.76-1.18-1.14-2.58-1.14-4.18,0-1.9.44-3.61,1.33-5.14.88-1.52,2.12-2.72,3.71-3.58,1.59-.86,3.41-1.3,5.46-1.3,1.73,0,3.24.31,4.53.94,1.29.63,2.28,1.52,2.98,2.67.69,1.15,1.04,2.49,1.04,4,0,.83-.12,1.78-.35,2.85ZM322.91,114.65c-.66.52-1.14,1.24-1.44,2.16h7.14c.02-.92-.27-1.64-.86-2.16-.6-.52-1.39-.78-2.37-.78s-1.8.26-2.46.78Z" style="fill:#fff;"/><path d="M339.88,126.49c-1.38-.65-2.44-1.57-3.2-2.77-.76-1.19-1.14-2.58-1.14-4.16,0-1.9.46-3.6,1.38-5.12s2.2-2.71,3.84-3.58c1.64-.87,3.49-1.31,5.54-1.31s3.66.41,5.09,1.23c1.43.82,2.47,1.98,3.14,3.47l-5.18,2.46c-.64-1.54-1.76-2.3-3.36-2.3-1.24,0-2.26.45-3.06,1.34-.8.9-1.2,2.05-1.2,3.46,0,1.02.29,1.84.88,2.45.59.61,1.42.91,2.51.91.81,0,1.53-.18,2.14-.54.62-.36,1.15-.94,1.6-1.73l4.45,2.69c-.83,1.41-2,2.51-3.5,3.3-1.5.79-3.21,1.18-5.1,1.18s-3.44-.33-4.82-.98Z" style="fill:#fff;"/><path d="M373.05,111.08c1.15,1.02,1.73,2.5,1.73,4.42,0,.7-.08,1.4-.22,2.08l-1.92,9.6h-6.08l1.79-9.02c.08-.36.13-.75.13-1.15,0-1.54-.8-2.3-2.4-2.3-1.07,0-1.94.33-2.62.98-.68.65-1.16,1.63-1.44,2.93l-1.73,8.58h-6.08l4.74-23.74h6.08l-1.57,7.84c1.47-1.15,3.16-1.73,5.06-1.73s3.39.51,4.54,1.54Z" style="fill:#fff;"/><path d="M395.34,111.07c1.14,1.01,1.71,2.47,1.71,4.37,0,.7-.08,1.42-.22,2.14l-1.92,9.6h-6.08l1.79-9.02c.08-.36.13-.75.13-1.15,0-1.54-.8-2.3-2.4-2.3-1.07,0-1.94.33-2.62.98-.68.65-1.16,1.63-1.44,2.93l-1.73,8.58h-6.08l3.46-17.34h5.76l-.35,1.79c.75-.7,1.59-1.23,2.53-1.57.94-.34,1.91-.51,2.91-.51,1.9,0,3.42.51,4.56,1.52Z" style="fill:#fff;"/><path d="M403.83,126.49c-1.37-.65-2.42-1.57-3.17-2.77-.75-1.19-1.12-2.58-1.12-4.16,0-1.9.46-3.6,1.38-5.12s2.19-2.71,3.81-3.58c1.62-.87,3.45-1.31,5.47-1.31,1.83,0,3.43.33,4.8.98s2.42,1.57,3.17,2.75c.75,1.18,1.12,2.57,1.12,4.14,0,1.9-.46,3.61-1.38,5.14-.92,1.53-2.18,2.73-3.79,3.6-1.61.88-3.44,1.31-5.49,1.31-1.83,0-3.44-.33-4.8-.98ZM411.96,121.23c.77-.9,1.15-2.06,1.15-3.49,0-1.02-.29-1.83-.86-2.43-.58-.6-1.38-.9-2.4-.9-1.22,0-2.21.45-2.98,1.34-.77.9-1.15,2.07-1.15,3.52,0,1.02.29,1.83.86,2.42.58.59,1.38.88,2.4.88,1.22,0,2.21-.45,2.98-1.34Z" style="fill:#fff;"/><path d="M425.02,103.43h6.08l-4.74,23.74h-6.08l4.74-23.74Z" style="fill:#fff;"/><path d="M435.13,126.49c-1.37-.65-2.42-1.57-3.17-2.77-.75-1.19-1.12-2.58-1.12-4.16,0-1.9.46-3.6,1.38-5.12s2.19-2.71,3.81-3.58c1.62-.87,3.45-1.31,5.47-1.31,1.83,0,3.43.33,4.8.98s2.42,1.57,3.17,2.75c.75,1.18,1.12,2.57,1.12,4.14,0,1.9-.46,3.61-1.38,5.14-.92,1.53-2.18,2.73-3.79,3.6-1.61.88-3.44,1.31-5.49,1.31-1.83,0-3.44-.33-4.8-.98ZM443.26,121.23c.77-.9,1.15-2.06,1.15-3.49,0-1.02-.29-1.83-.86-2.43-.58-.6-1.38-.9-2.4-.9-1.22,0-2.21.45-2.98,1.34-.77.9-1.15,2.07-1.15,3.52,0,1.02.29,1.83.86,2.42.58.59,1.38.88,2.4.88,1.22,0,2.21-.45,2.98-1.34Z" style="fill:#fff;"/><path d="M473.69,109.83l-2.82,14.14c-.66,3.35-1.95,5.8-3.87,7.36-1.92,1.56-4.45,2.34-7.58,2.34-3.5,0-6.32-.75-8.45-2.24l2.72-4.22c.7.55,1.58.99,2.62,1.31,1.04.32,2.13.48,3.26.48,1.51,0,2.66-.33,3.44-.98.78-.65,1.3-1.63,1.55-2.93l.13-.58c-1.3,1.17-2.91,1.76-4.83,1.76-1.39,0-2.66-.3-3.81-.9-1.15-.6-2.07-1.46-2.75-2.58-.68-1.12-1.02-2.43-1.02-3.92,0-1.71.42-3.27,1.25-4.7.83-1.43,1.97-2.56,3.42-3.39,1.45-.83,3.06-1.25,4.83-1.25,1.32,0,2.47.25,3.44.74.97.49,1.68,1.26,2.13,2.3l.54-2.75h5.79ZM464.62,120.27c.76-.77,1.14-1.77,1.14-3.01,0-.85-.29-1.54-.86-2.06-.58-.52-1.37-.78-2.37-.78-1.22,0-2.21.39-2.98,1.17-.77.78-1.15,1.79-1.15,3.02,0,.85.29,1.54.86,2.05.58.51,1.38.77,2.4.77,1.22,0,2.2-.38,2.96-1.15Z" style="fill:#fff;"/><path d="M477.59,109.83h6.05l-3.46,17.34h-6.05l3.46-17.34ZM478.94,107.05c-.64-.58-.96-1.29-.96-2.14,0-1,.36-1.83,1.07-2.48.71-.65,1.66-.98,2.83-.98,1.07,0,1.92.27,2.56.82.64.54.96,1.24.96,2.1,0,1.05-.36,1.9-1.09,2.56-.73.66-1.68.99-2.85.99-1.04,0-1.89-.29-2.53-.86Z" style="fill:#fff;"/><path d="M503.38,120.01h-12.74c.21,1.88,1.53,2.82,3.94,2.82.77,0,1.51-.12,2.24-.35.73-.23,1.38-.59,1.95-1.06l2.53,3.81c-2.03,1.49-4.49,2.24-7.39,2.24-1.83,0-3.45-.33-4.85-.98-1.4-.65-2.47-1.57-3.23-2.75-.76-1.18-1.14-2.58-1.14-4.18,0-1.9.44-3.61,1.33-5.14.88-1.52,2.12-2.72,3.71-3.58,1.59-.86,3.41-1.3,5.46-1.3,1.73,0,3.24.31,4.53.94,1.29.63,2.28,1.52,2.98,2.67.69,1.15,1.04,2.49,1.04,4,0,.83-.12,1.78-.35,2.85ZM492.44,114.65c-.66.52-1.14,1.24-1.44,2.16h7.14c.02-.92-.27-1.64-.86-2.16-.6-.52-1.39-.78-2.37-.78s-1.8.26-2.46.78Z" style="fill:#fff;"/><path d="M507.02,126.99c-1.38-.32-2.45-.73-3.22-1.22l2.21-4.26c.79.49,1.73.88,2.82,1.17s2.15.43,3.2.43c1.86,0,2.78-.42,2.78-1.25,0-.34-.22-.59-.66-.75s-1.14-.31-2.1-.46c-1.28-.23-2.33-.49-3.15-.75s-1.54-.72-2.16-1.36c-.62-.64-.93-1.54-.93-2.69,0-2,.86-3.56,2.58-4.66,1.72-1.1,3.94-1.65,6.67-1.65,1.24,0,2.43.12,3.58.37,1.15.25,2.15.58,3.01,1.01l-2.14,4.26c-1.45-.87-3.17-1.31-5.15-1.31-.94,0-1.64.12-2.1.37-.46.25-.69.56-.69.94,0,.34.22.59.66.75s1.16.34,2.16.53c1.24.21,2.27.46,3.09.74s1.54.74,2.14,1.38c.61.64.91,1.52.91,2.62,0,2.01-.86,3.55-2.59,4.64-1.73,1.09-3.94,1.63-6.62,1.63-1.49,0-2.93-.16-4.3-.48Z" style="fill:#fff;"/></svg>