<?xml version="1.0" encoding="UTF-8"?><svg id="Calque_1" xmlns="http://www.w3.org/2000/svg" viewBox="0 0 597.33 197.33"><path d="M68.74,11.26c2.96,0,128,2.37,128,2.37,0,0,26.33,9.48,28.57,9.48s78.69-11.85,78.69-11.85L451.56,0l59.85,16,68.74,64,17.19,81.78-10.07,35.56-56.3-41.48-50.96,21.33-137.17,8.3-178.09-22.52-88.7,30.22L4.15,130.96l21.98-58.81L0,26.67l96.59,10.07-27.85-25.48Z" style="fill:#9da7b0;"/><polygon points="480 177.19 530.96 155.85 587.26 197.33 533.63 181.11 480 177.19" style="fill:#798085;"/><path d="M587.26,197.33s10.23-34.84,10.07-35.56l-10.48-49.86s-24.3,30.23-24.15,30.67,24.56,54.74,24.56,54.74Z" style="fill:#798085;"/><polygon points="76.04 193.19 169.52 173.3 342.83 185.48 164.74 162.96 76.04 193.19" style="fill:#798085;"/><polygon points="377.71 183.37 399.52 176.59 441.37 111.22 440.04 160.7 480 155.85 468.64 177.87 377.71 183.37" style="fill:#798085;"/><path d="M0,26.67l46.33,30.26s54.89,6,54.22,6.22-56,21.78-56,21.78l42.67-4L4.15,130.96l21.98-58.81L0,26.67Z" style="fill:#798085;"/><polygon points="68.74 11.26 73.44 22.04 0 26.67 96.59 36.74 68.74 11.26" style="fill:#798085;"/><path d="M225.31,23.11s161.76,27.96,160.87,27.67-82.19-39.52-82.19-39.52l-78.69,11.85Z" style="fill:#798085;"/><polygon points="511.41 16 546.48 94.93 553.89 75.07 580.15 80 511.41 16" style="fill:#798085;"/><polygon points="443.09 .65 450.78 2.78 468.26 48.37 455.68 4.22 474.38 6.1 451.56 0 443.09 .65" style="fill:#d7dee6;"/><path d="M553.89,75.07l26.26,4.93,5.13,24.42s-5.65-20.2-6.87-20.42-24.52-8.93-24.52-8.93Z" style="fill:#d7dee6;"/><path d="M68.74,11.26l128,2.37s26.6,9.13,27.59,9.31,161.85,27.84,161.85,27.84l-156.81-18.67-14.44,71.56,2.44-72.65-23.33-13.13-125.3-6.63Z" style="fill:#d7dee6;"/><polygon points="530.96 155.85 572.56 177.37 562.7 142.59 587.26 197.33 530.96 155.85" style="fill:#d7dee6;"/><polygon points="546.48 94.93 508.04 19.33 474.38 6.1 511.41 16 546.48 94.93" style="fill:#d7dee6;"/><path d="M387.44,80.99l74.37-14.52,45.63,23.41s-44.74-17.19-45.63-17.48-74.37,8.59-74.37,8.59Z" style="fill:#d7dee6;"/><path d="M461.81,72.4l16.37,40.63v-20.31s30.74-2.65,29.26-2.83-45.63-17.48-45.63-17.48Z" style="fill:#798085;"/><polygon points="96.59 36.74 0 26.67 46.33 56.93 21.15 33.78 96.59 36.74" style="fill:#d7dee6;"/><polygon points="96.59 36.74 68.74 11.26 132.19 12.43 81.96 14.74 96.59 36.74" style="fill:#d7dee6;"/><polygon points="4.04 130.96 75.93 193.19 164.63 162.96 77.93 181.33 4.04 130.96" style="fill:#d7dee6;"/><path d="M87.22,80.93s-41.07,4.33-42.67,4S4.04,130.96,4.04,130.96l83.19-50.04Z" style="fill:#5c6166;"/><polygon points="46.33 56.93 83.14 69.92 100.56 63.15 46.33 56.93" style="fill:#5c6166;"/><polygon points="440.04 160.7 435.19 135.19 399.52 176.59 441.37 111.22 440.04 160.7" style="fill:#5c6166;"/><polygon points="440.04 160.7 480 155.85 468.64 177.87 470.59 166.86 440.04 160.7" style="fill:#5c6166;"/><polygon points="586.86 111.92 594.45 148.07 578.96 148.07 587.26 197.33 562.7 142.59 586.86 111.92" style="fill:#5c6166;"/><polygon points="533.63 181.11 530.96 155.85 480 177.19 533.63 181.11" style="fill:#5c6166;"/><polygon points="553.89 75.07 540.46 81.37 511.41 16 580.15 80 553.89 75.07" style="fill:#5c6166;"/><polygon points="169.52 173.3 164.63 162.96 342.83 185.48 169.52 173.3" style="fill:#5c6166;"/><path d="M181.27,88.25c-1.41-.65-2.49-1.58-3.23-2.8-.75-1.22-1.12-2.65-1.12-4.29,0-.68.08-1.47.26-2.37l2.5-12.42h6.34l-2.46,12.32c-.13.64-.19,1.23-.19,1.76,0,2.35,1.24,3.52,3.71,3.52,1.34,0,2.4-.41,3.18-1.23.78-.82,1.36-2.17,1.74-4.05l2.46-12.32h6.24l-2.53,12.7c-1.37,6.76-5.32,10.14-11.87,10.14-1.94,0-3.62-.33-5.02-.98Z" style="fill:#fff;"/><path d="M208.31,82.31c-.04.3-.06.49-.06.58,0,.98.53,1.47,1.6,1.47.58,0,1.18-.17,1.82-.51l.77,4.19c-1.2.68-2.7,1.02-4.51,1.02s-3.22-.45-4.27-1.34c-1.06-.9-1.58-2.14-1.58-3.74,0-.62.05-1.16.16-1.63l1.15-5.73h-2.56l.93-4.54h2.53l.9-4.51h6.08l-.9,4.51h3.94l-.9,4.54h-3.94l-1.15,5.7Z" style="fill:#fff;"/><path d="M218,71.43h6.05l-3.46,17.34h-6.05l3.46-17.34ZM219.35,68.65c-.64-.58-.96-1.29-.96-2.14,0-1,.36-1.83,1.07-2.48.71-.65,1.66-.98,2.83-.98,1.07,0,1.92.27,2.56.82.64.54.96,1.24.96,2.1,0,1.05-.36,1.9-1.09,2.56-.73.66-1.68.99-2.85.99-1.04,0-1.89-.29-2.53-.86Z" style="fill:#fff;"/><path d="M229.27,65.03h6.08l-4.74,23.74h-6.08l4.74-23.74Z" style="fill:#fff;"/><path d="M238,71.43h6.05l-3.46,17.34h-6.05l3.46-17.34ZM239.35,68.65c-.64-.58-.96-1.29-.96-2.14,0-1,.36-1.83,1.07-2.48.71-.65,1.66-.98,2.83-.98,1.07,0,1.92.27,2.56.82.64.54.96,1.24.96,2.1,0,1.05-.36,1.9-1.09,2.56-.73.66-1.68.99-2.85.99-1.04,0-1.89-.29-2.53-.86Z" style="fill:#fff;"/><path d="M247.01,88.59c-1.38-.32-2.45-.73-3.22-1.22l2.21-4.26c.79.49,1.73.88,2.82,1.17s2.15.43,3.2.43c1.86,0,2.78-.42,2.78-1.25,0-.34-.22-.59-.66-.75s-1.14-.31-2.1-.46c-1.28-.23-2.33-.49-3.15-.75s-1.54-.72-2.16-1.36c-.62-.64-.93-1.54-.93-2.69,0-2,.86-3.56,2.58-4.66,1.72-1.1,3.94-1.65,6.67-1.65,1.24,0,2.43.12,3.58.37,1.15.25,2.15.58,3.01,1.01l-2.14,4.26c-1.45-.87-3.17-1.31-5.15-1.31-.94,0-1.64.12-2.1.37-.46.25-.69.56-.69.94,0,.34.22.59.66.75s1.16.34,2.16.53c1.24.21,2.27.46,3.09.74s1.54.74,2.14,1.38c.61.64.91,1.52.91,2.62,0,2.01-.86,3.55-2.59,4.64-1.73,1.09-3.94,1.63-6.62,1.63-1.49,0-2.93-.16-4.3-.48Z" style="fill:#fff;"/><path d="M281.3,81.61h-12.74c.21,1.88,1.53,2.82,3.94,2.82.77,0,1.51-.12,2.24-.35.73-.23,1.38-.59,1.95-1.06l2.53,3.81c-2.03,1.49-4.49,2.24-7.39,2.24-1.83,0-3.45-.33-4.85-.98-1.4-.65-2.47-1.57-3.23-2.75-.76-1.18-1.14-2.58-1.14-4.18,0-1.9.44-3.61,1.33-5.14.88-1.52,2.12-2.72,3.71-3.58,1.59-.86,3.41-1.3,5.46-1.3,1.73,0,3.24.31,4.53.94,1.29.63,2.28,1.52,2.98,2.67.69,1.15,1.04,2.49,1.04,4,0,.83-.12,1.78-.35,2.85ZM270.36,76.25c-.66.52-1.14,1.24-1.44,2.16h7.14c.02-.92-.27-1.64-.86-2.16-.6-.52-1.39-.78-2.37-.78s-1.8.26-2.46.78Z" style="fill:#fff;"/><path d="M296.5,65.03h6.08l-4.74,23.74h-6.08l4.74-23.74Z" style="fill:#fff;"/><path d="M321.04,81.61h-12.74c.21,1.88,1.53,2.82,3.94,2.82.77,0,1.51-.12,2.24-.35.73-.23,1.38-.59,1.95-1.06l2.53,3.81c-2.03,1.49-4.49,2.24-7.39,2.24-1.83,0-3.45-.33-4.85-.98-1.4-.65-2.47-1.57-3.23-2.75-.76-1.18-1.14-2.58-1.14-4.18,0-1.9.44-3.61,1.33-5.14.88-1.52,2.12-2.72,3.71-3.58,1.59-.86,3.41-1.3,5.46-1.3,1.73,0,3.24.31,4.53.94,1.29.63,2.28,1.52,2.98,2.67.69,1.15,1.04,2.49,1.04,4,0,.83-.12,1.78-.35,2.85ZM310.1,76.25c-.66.52-1.14,1.24-1.44,2.16h7.14c.02-.92-.27-1.64-.86-2.16-.6-.52-1.39-.78-2.37-.78s-1.8.26-2.46.78Z" style="fill:#fff;"/><path d="M371.41,66.38l-11.74,22.4h-6.78l-1.63-13.5-7.14,13.5h-6.82l-2.75-22.4h6.24l1.73,14.3,7.55-14.3h5.86l1.6,14.5,7.62-14.5h6.27Z" style="fill:#fff;"/><path d="M372.85,71.43h6.05l-3.46,17.34h-6.05l3.46-17.34ZM374.19,68.65c-.64-.58-.96-1.29-.96-2.14,0-1,.36-1.83,1.07-2.48.71-.65,1.66-.98,2.83-.98,1.07,0,1.92.27,2.56.82.64.54.96,1.24.96,2.1,0,1.05-.36,1.9-1.09,2.56-.73.66-1.68.99-2.85.99-1.04,0-1.89-.29-2.53-.86Z" style="fill:#fff;"/><path d="M381.27,77.32h9.31l-.93,4.67h-9.31l.93-4.67Z" style="fill:#fff;"/><path d="M401.91,71.27l-.99,4.93h9.89l-.99,4.9h-9.86l-1.54,7.68h-6.34l4.48-22.4h17.54l-.99,4.9h-11.2Z" style="fill:#fff;"/><path d="M415.47,71.43h6.05l-3.46,17.34h-6.05l3.46-17.34ZM416.82,68.65c-.64-.58-.96-1.29-.96-2.14,0-1,.36-1.83,1.07-2.48.71-.65,1.66-.98,2.83-.98,1.07,0,1.92.27,2.56.82.64.54.96,1.24.96,2.1,0,1.05-.36,1.9-1.09,2.56-.73.66-1.68.99-2.85.99-1.04,0-1.89-.29-2.53-.86Z" style="fill:#fff;"/><path d="M177.97,110.49c1.12.63,2.02,1.54,2.7,2.74.68,1.2,1.02,2.59,1.02,4.19,0,1.9-.42,3.61-1.26,5.14-.84,1.53-1.98,2.73-3.42,3.6-1.44.88-3.01,1.31-4.72,1.31-2.52,0-4.29-.79-5.31-2.37l-1.66,8.29h-6.08l4.7-23.55h5.76l-.35,1.63c1.39-1.28,3.06-1.92,5.02-1.92,1.28,0,2.48.31,3.6.94ZM174.41,121.23c.77-.9,1.15-2.06,1.15-3.49,0-1.02-.29-1.83-.88-2.43-.59-.6-1.39-.9-2.42-.9-1.22,0-2.21.45-2.98,1.34-.77.9-1.15,2.07-1.15,3.52,0,1.02.29,1.83.88,2.42s1.39.88,2.42.88c1.22,0,2.21-.45,2.98-1.34Z" style="fill:#fff;"/><path d="M187.46,103.43h6.08l-4.74,23.74h-6.08l4.74-23.74Z" style="fill:#fff;"/><path d="M214.44,109.83l-3.46,17.34h-5.76l.35-1.79c-.75.7-1.58,1.23-2.51,1.57-.93.34-1.88.51-2.86.51-1.9,0-3.41-.51-4.53-1.54s-1.68-2.48-1.68-4.38c0-.7.08-1.42.22-2.14l1.92-9.57h6.08l-1.79,8.99c-.09.41-.13.8-.13,1.18,0,1.52.78,2.27,2.34,2.27,1.04,0,1.91-.33,2.59-.98.68-.65,1.15-1.62,1.41-2.9l1.73-8.58h6.08Z" style="fill:#fff;"/><path d="M222.95,120.71c-.04.3-.06.49-.06.58,0,.98.53,1.47,1.6,1.47.58,0,1.18-.17,1.82-.51l.77,4.19c-1.2.68-2.7,1.02-4.51,1.02s-3.22-.45-4.27-1.34c-1.06-.9-1.58-2.14-1.58-3.74,0-.62.05-1.16.16-1.63l1.15-5.73h-2.56l.93-4.54h2.53l.9-4.51h6.08l-.9,4.51h3.94l-.9,4.54h-3.94l-1.15,5.7Z" style="fill:#fff;"/><path d="M233.51,126.49c-1.37-.65-2.42-1.57-3.17-2.77-.75-1.19-1.12-2.58-1.12-4.16,0-1.9.46-3.6,1.38-5.12s2.19-2.71,3.81-3.58c1.62-.87,3.45-1.31,5.47-1.31,1.83,0,3.43.33,4.8.98s2.42,1.57,3.17,2.75c.75,1.18,1.12,2.57,1.12,4.14,0,1.9-.46,3.61-1.38,5.14-.92,1.53-2.18,2.73-3.79,3.6-1.61.88-3.44,1.31-5.49,1.31-1.83,0-3.44-.33-4.8-.98ZM244,107.75l-2.4-2.46-3.1,2.46h-4.16l4.86-4.86h5.25l3.49,4.86h-3.94ZM241.64,121.23c.77-.9,1.15-2.06,1.15-3.49,0-1.02-.29-1.83-.86-2.43-.58-.6-1.38-.9-2.4-.9-1.22,0-2.21.45-2.98,1.34-.77.9-1.15,2.07-1.15,3.52,0,1.02.29,1.83.86,2.42.58.59,1.38.88,2.4.88,1.22,0,2.21-.45,2.98-1.34Z" style="fill:#fff;"/><path d="M258.02,120.71c-.04.3-.06.49-.06.58,0,.98.53,1.47,1.6,1.47.58,0,1.18-.17,1.82-.51l.77,4.19c-1.2.68-2.7,1.02-4.51,1.02s-3.22-.45-4.27-1.34c-1.06-.9-1.58-2.14-1.58-3.74,0-.62.05-1.16.16-1.63l1.15-5.73h-2.56l.93-4.54h2.53l.9-4.51h6.08l-.9,4.51h3.94l-.9,4.54h-3.94l-1.15,5.7Z" style="fill:#fff;"/><path d="M295.36,109.83l-4.7,23.55h-6.08l1.5-7.49c-1.3,1.05-2.84,1.57-4.61,1.57-1.28,0-2.48-.31-3.6-.94s-2.02-1.54-2.7-2.74c-.68-1.19-1.02-2.6-1.02-4.22,0-1.88.42-3.58,1.26-5.1.84-1.52,1.98-2.72,3.42-3.6,1.44-.87,3.01-1.31,4.72-1.31,2.71,0,4.54.91,5.5,2.72l.51-2.43h5.79ZM281.17,121.69c.59.59,1.39.88,2.42.88,1.22,0,2.21-.45,2.98-1.34.77-.9,1.15-2.06,1.15-3.49,0-1.02-.29-1.83-.88-2.43-.59-.6-1.39-.9-2.42-.9-1.22,0-2.21.45-2.98,1.34-.77.9-1.15,2.07-1.15,3.52,0,1.02.29,1.83.88,2.42Z" style="fill:#fff;"/><path d="M317.51,109.83l-3.46,17.34h-5.76l.35-1.79c-.75.7-1.58,1.23-2.51,1.57-.93.34-1.88.51-2.86.51-1.9,0-3.41-.51-4.53-1.54s-1.68-2.48-1.68-4.38c0-.7.08-1.42.22-2.14l1.92-9.57h6.08l-1.79,8.99c-.09.41-.13.8-.13,1.18,0,1.52.78,2.27,2.34,2.27,1.04,0,1.91-.33,2.59-.98.68-.65,1.15-1.62,1.41-2.9l1.73-8.58h6.08Z" style="fill:#fff;"/><path d="M337.22,120.01h-12.74c.21,1.88,1.53,2.82,3.94,2.82.77,0,1.51-.12,2.24-.35.73-.23,1.38-.59,1.95-1.06l2.53,3.81c-2.03,1.49-4.49,2.24-7.39,2.24-1.83,0-3.45-.33-4.85-.98-1.4-.65-2.47-1.57-3.23-2.75-.76-1.18-1.14-2.58-1.14-4.18,0-1.9.44-3.61,1.33-5.14.88-1.52,2.12-2.72,3.71-3.58,1.59-.86,3.41-1.3,5.46-1.3,1.73,0,3.24.31,4.53.94,1.29.63,2.28,1.52,2.98,2.67.69,1.15,1.04,2.49,1.04,4,0,.83-.12,1.78-.35,2.85ZM326.28,114.65c-.66.52-1.14,1.24-1.44,2.16h7.14c.02-.92-.27-1.64-.86-2.16-.6-.52-1.39-.78-2.37-.78s-1.8.26-2.46.78Z" style="fill:#fff;"/><path d="M352.42,103.43h6.08l-4.74,23.74h-6.08l4.74-23.74Z" style="fill:#fff;"/><path d="M379.49,109.83l-3.46,17.34h-5.76l.35-1.63c-1.39,1.28-3.06,1.92-5.02,1.92-1.28,0-2.48-.31-3.6-.94s-2.02-1.54-2.7-2.74c-.68-1.19-1.02-2.6-1.02-4.22,0-1.88.42-3.58,1.26-5.1.84-1.52,1.98-2.72,3.42-3.6,1.44-.87,3.01-1.31,4.72-1.31,2.52,0,4.29.79,5.31,2.37l.42-2.08h6.08ZM370.69,121.23c.77-.9,1.15-2.06,1.15-3.49,0-1.02-.29-1.83-.88-2.43-.59-.6-1.39-.9-2.42-.9-1.22,0-2.21.45-2.98,1.34-.77.9-1.15,2.07-1.15,3.52,0,1.02.29,1.83.88,2.42.59.59,1.39.88,2.42.88,1.22,0,2.21-.45,2.98-1.34Z" style="fill:#fff;"/><path d="M410.34,122.89h-3.33l-.86,4.29h-6.14l.86-4.29h-11.84l.8-4.13,12.61-13.98h6.82l-11.55,13.09h4.45l.77-3.81h5.86l-.77,3.81h3.36l-1.02,5.02Z" style="fill:#fff;"/><path d="M429.6,115.5h5.6l-1.89,9.44c-1.15.88-2.49,1.54-4.02,2s-3.13.69-4.82.69c-2.26,0-4.24-.41-5.94-1.23-1.7-.82-3.01-1.98-3.94-3.47-.93-1.49-1.39-3.21-1.39-5.15,0-2.58.6-4.89,1.79-6.93,1.2-2.04,2.87-3.63,5.02-4.78,2.15-1.15,4.63-1.73,7.42-1.73,4.44,0,7.69,1.38,9.76,4.13l-4.54,3.58c-.73-.9-1.53-1.53-2.4-1.9-.88-.37-1.91-.56-3.1-.56-1.51,0-2.84.34-3.98,1.01-1.14.67-2.02,1.59-2.64,2.77-.62,1.17-.93,2.51-.93,4s.5,2.76,1.5,3.66c1,.91,2.41,1.36,4.22,1.36,1.09,0,2.08-.18,2.98-.54l1.28-6.34Z" style="fill:#fff;"/></svg>