<?xml version="1.0" encoding="UTF-8"?><svg id="Calque_1" xmlns="http://www.w3.org/2000/svg" viewBox="0 0 187.89 426.24"><path d="M161.98,376.89l-4.05-68.54c-.22-10.18,13.04-14.79,19.08-6.97,2.03,2.63,2.7,8.52,2.98,12.03,1.35,16.97,1.18,34.94,1.97,52.03.53,11.42,3.47,28.02,1.95,38.87-1.31,9.32-9.68,9.02-17.42,9.58-25.12,1.82-52.81,3.32-77.95,4.05-5.91.17-14.39,1.41-18.01-4.07-4.15-6.28-1.53-15.19,6.19-16.74,13.17-2.64,33.66-1.45,47.76-2.24,1.94-.11,3.84-.92,5.97-1.03,2.46-.13,16.58,1.02,16.52-1.46-37.37-35.11-73.62-74.41-101-117.98C-12.21,181.85-18.64,88.3,78.27,20.67c7.34-5.12,23.14-18.43,31.16-9.72,11.14,12.09-10.43,20.82-17.76,26.13C-.27,103.69,12.02,185.23,69.58,271.8c25.52,38.38,58.48,74.12,92.4,105.09Z" style="fill:#fff;"/></svg>