<?xml version="1.0" encoding="UTF-8"?>
<svg id="Calque_1" xmlns="http://www.w3.org/2000/svg" version="1.1" viewBox="0 0 187.9 426.2">
  <!-- Generator: Adobe Illustrator 29.2.1, SVG Export Plug-In . SVG Version: 2.1.0 Build 116)  -->
  <defs>
    <style>
      .st0 {
        fill: #f8e2d8;
      }
    </style>
  </defs>
  <path class="st0" d="M162,376.9l-4.1-68.5c-.2-10.2,13-14.8,19.1-7,2,2.6,2.7,8.5,3,12,1.4,17,1.2,34.9,2,52,.5,11.4,3.5,28,1.9,38.9-1.3,9.3-9.7,9-17.4,9.6-25.1,1.8-52.8,3.3-77.9,4-5.9.2-14.4,1.4-18-4.1-4.2-6.3-1.5-15.2,6.2-16.7,13.2-2.6,33.7-1.5,47.8-2.2,1.9-.1,3.8-.9,6-1,2.5-.1,16.6,1,16.5-1.5-37.4-35.1-73.6-74.4-101-118C-12.2,181.9-18.6,88.3,78.3,20.7c7.3-5.1,23.1-18.4,31.2-9.7,11.1,12.1-10.4,20.8-17.8,26.1C-.3,103.7,12,185.2,69.6,271.8c25.5,38.4,58.5,74.1,92.4,105.1h0Z"/>
</svg>