<?xml version="1.0" encoding="UTF-8"?><svg id="Calque_1" xmlns="http://www.w3.org/2000/svg" viewBox="0 0 1617.52 557.12"><path d="M690.45,325.29c-12.74,0-25.33-2.58-37.76-7.73l-.91-57.32c11.07,4.7,23.27,7.05,36.62,7.05,6.82,0,12.05-1.06,15.69-3.18,3.64-2.12,5.46-4.85,5.46-8.19s-1.59-5.69-4.78-7.51-7.36-2.73-12.51-2.73c-3.49,0-7.96.76-13.42,2.27-5.46,1.52-9.25,3.11-11.37,4.78l-14.33-9.78.23-80.29h88.48v59.36h-56.41v12.51c5.76-1.21,12.2-1.82,19.33-1.82,11.67,0,21.83,3.56,30.48,10.69,8.64,7.13,12.96,16.98,12.96,29.57,0,17.44-5.23,30.52-15.69,39.24-10.46,8.72-24.49,13.08-42.08,13.08Z" style="fill:#fc8563;"/><path d="M777.79,353.5l-13.19-10.69c3.79-1.97,7.54-5.08,11.26-9.33,3.71-4.25,6.03-8.34,6.94-12.28-1.36.45-2.88.68-4.55.68-4.55,0-8.42-1.63-11.6-4.89-3.18-3.26-4.78-7.39-4.78-12.4s1.89-9.63,5.69-13.42c3.79-3.79,8.26-5.69,13.42-5.69,5.91,0,10.92,2.2,15.01,6.6,4.09,4.4,6.14,10.39,6.14,17.97,0,17.44-8.11,31.92-24.34,43.44Z" style="fill:#fc8563;"/><path d="M906.19,311.65c-9.78,8.8-22.48,13.19-38.1,13.19s-28.32-4.4-38.1-13.19c-9.78-8.79-14.67-20.39-14.67-34.8,0-9.55,2.2-17.82,6.6-24.79,4.4-6.97,10.54-11.75,18.42-14.33v-1.82c-6.82-2.58-12.05-6.9-15.69-12.96-3.64-6.06-5.46-13.04-5.46-20.93,0-12.74,4.62-23.12,13.87-31.16,9.25-8.04,20.92-12.05,35.03-12.05s25.82,4.02,35.14,12.05c9.33,8.04,13.99,18.42,13.99,31.16,0,7.89-1.86,14.86-5.57,20.93-3.72,6.07-8.98,10.39-15.81,12.96v1.82c7.58,2.73,13.65,7.54,18.2,14.44,4.55,6.9,6.82,15.13,6.82,24.68,0,14.41-4.89,26.01-14.67,34.8ZM868.09,266.84c9.85,0,14.78-3.56,14.78-10.69,0-3.33-1.37-5.87-4.09-7.62-2.73-1.74-6.29-2.62-10.69-2.62s-7.96.87-10.69,2.62c-2.73,1.75-4.09,4.29-4.09,7.62,0,7.13,4.93,10.69,14.78,10.69ZM868.09,235c4.09,0,7.35-.83,9.78-2.5,2.42-1.67,3.64-4.02,3.64-7.05s-1.25-5.35-3.75-6.94c-2.5-1.59-5.72-2.39-9.67-2.39-8.8,0-13.19,3.11-13.19,9.33,0,3.03,1.21,5.38,3.64,7.05,2.42,1.67,5.61,2.5,9.55,2.5Z" style="fill:#fc8563;"/><path d="M973.17,321.88h-47.08l28.2-58.23-26.16-55.5h46.63l3.18,45.72h2.05l2.73-45.72h47.08l-26.16,55.5,27.98,58.23h-47.76l-3.87-50.95h-2.05l-4.78,50.95Z" style="fill:#fc8563;"/><path d="M502.98,464.36h-18.86v-68.76h17.09l-2.65,17.98h1.18c.59-6.29,2.03-11.1,4.32-14.44,2.29-3.34,5.21-5.01,8.74-5.01,4.13,0,7.38,2.26,9.77,6.78,2.39,4.52,3.59,10.94,3.59,19.25s-1.2,14.74-3.59,19.25c-2.39,4.52-5.65,6.78-9.77,6.78-3.86,0-6.96-1.9-9.28-5.7-2.33-3.8-3.65-9.3-3.98-16.5h-1.18l4.62,40.38ZM505.34,423.3c3.6,0,5.4-1.38,5.4-4.13,0-1.24-.48-2.24-1.42-3-.95-.75-2.28-1.13-3.98-1.13s-2.93.38-3.88,1.13c-.95.75-1.42,1.75-1.42,3,0,2.75,1.77,4.13,5.3,4.13Z" style="fill:#fc8563;"/><path d="M551.41,422.32v22.4h-21.91v-68.76h18.17l-2.36,46.37h6.09Z" style="fill:#fc8563;"/><path d="M564.28,446.19c-4,0-6.78-1.49-8.35-4.47-1.57-2.98-2.36-7.97-2.36-14.98v-31.14h18.76l-1.77,19.16c0,.2-.03.53-.1.98-.39,1.83-.43,3.54-.1,5.11.33,1.57,1.34,2.36,3.05,2.36,2.75,0,3.8-3.24,3.14-9.72l-1.67-17.88h17.09v49.12h-17l2.06-19.65h-1.28c0,5.83-.97,10.81-2.9,14.93-1.93,4.13-4.8,6.19-8.6,6.19Z" style="fill:#fc8563;"/><path d="M613.3,446.19c-2.42,0-5.52-.33-9.28-.98-3.77-.65-6.8-1.41-9.09-2.26v-22.5c2.55,1.57,5.42,2.83,8.6,3.78,3.18.95,5.94,1.42,8.3,1.42,2.55,0,4.31-.11,5.26-.34.95-.23,1.42-.83,1.42-1.82,0-.79-1.23-1.33-3.68-1.62s-5.16-.59-8.1-.88-5.65-1.51-8.1-3.63c-2.46-2.13-3.68-5.16-3.68-9.09,0-4.45,1.72-7.92,5.16-10.41,3.44-2.49,8.33-3.73,14.69-3.73,5.43,0,10.61,1.02,15.52,3.04l.1,20.53c-3.87-2.95-8.55-4.42-14.05-4.42-2.1,0-3.6.12-4.52.34-.92.23-1.38.77-1.38,1.62,0,.53.8.9,2.41,1.13,1.6.23,3.55.53,5.84.88,2.29.36,4.6.93,6.93,1.72,2.32.79,4.29,2.19,5.89,4.22,1.6,2.03,2.41,4.62,2.41,7.76,0,4.91-1.82,8.68-5.45,11.3-3.63,2.62-8.69,3.93-15.18,3.93Z" style="fill:#fc8563;"/><path d="M673.91,446.19c-7.21,0-12.72-2.37-16.55-7.12-3.83-4.75-5.75-11.18-5.75-19.3s1.72-14.01,5.16-18.67c3.44-4.65,8.3-6.97,14.59-6.97s10.67,2.18,13.95,6.53c3.27,4.36,4.91,10.43,4.91,18.22,0,1.9-.1,3.34-.29,4.32h-23.09c.26,2.88,3.8,4.32,10.61,4.32,3.34,0,6.58-1.14,9.73-3.44l.98,18.47c-3.8,2.42-8.55,3.63-14.24,3.63ZM676.36,390.29h-11.1l8.94-17.49h14.93l-12.77,17.49ZM666.44,419.47h9.43c-.13-4.26-1.67-6.39-4.62-6.39s-4.42,2.13-4.81,6.39Z" style="fill:#fc8563;"/><path d="M708.98,426.84l1.67,17.88h-17.09v-49.12h17l-2.06,19.65h1.28c0-5.83.97-10.81,2.9-14.93s4.8-6.19,8.6-6.19c3.99,0,6.76,1.49,8.3,4.47,1.54,2.98,2.31,7.97,2.31,14.98l-.1,31.14h-18.57l1.77-19.16c.46-1.96.56-3.86.29-5.7-.26-1.83-1.31-2.75-3.14-2.75-2.75,0-3.8,3.24-3.14,9.73Z" style="fill:#fc8563;"/><path d="M757.11,446.19c-7.21,0-12.72-2.37-16.55-7.12-3.83-4.75-5.75-11.18-5.75-19.3s1.72-14.01,5.16-18.67c3.44-4.65,8.3-6.97,14.59-6.97s10.67,2.18,13.95,6.53c3.27,4.36,4.91,10.43,4.91,18.22,0,1.9-.1,3.34-.29,4.32h-23.09c.26,2.88,3.8,4.32,10.61,4.32,3.34,0,6.58-1.14,9.73-3.44l.98,18.47c-3.8,2.42-8.55,3.63-14.24,3.63ZM759.57,390.29h-11.1l8.94-17.49h14.93l-12.77,17.49ZM749.64,419.47h9.43c-.13-4.26-1.67-6.39-4.62-6.39s-4.42,2.13-4.81,6.39Z" style="fill:#fc8563;"/><path d="M792.18,427.53l1.67,17.19h-17.09v-49.12h17l-2.36,19.65h1.47c0-3.67.38-7.04,1.13-10.12.75-3.08,2.03-5.68,3.83-7.81,1.8-2.13,4.01-3.19,6.63-3.19,3.08,0,5.21,1.18,6.39,3.54l-1.67,25.84c-.92-1.7-2.21-3.19-3.88-4.47-1.67-1.28-3.36-1.92-5.06-1.92-2.75,0-4.86.98-6.34,2.95s-2.05,4.46-1.72,7.47Z" style="fill:#fc8563;"/><path d="M821.06,465.84c-4.26,0-7.58-2.05-9.97-6.14-2.39-4.09-2.77-9.58-1.13-16.46l4.52-18.76,10.02,2.36.29-1.08c-3.93-.85-7.04-2.54-9.33-5.06-2.29-2.52-3.44-5.71-3.44-9.58,0-5.04,1.95-9.14,5.84-12.28,3.9-3.14,8.86-4.71,14.88-4.71,6.55,0,15.23.49,26.03,1.47v19.65l-13.07-13.46-.79.98c4.32,2.95,6.48,7.11,6.48,12.48,0,4.06-1.64,7.35-4.91,9.87-3.28,2.52-7.89,3.78-13.85,3.78h-5.7l-1.18,3.44c-.66,2.42-.72,4.13-.2,5.11.52.98,1.38,1.47,2.55,1.47,1.11,0,2.21-.47,3.29-1.42,1.08-.95,2.05-2,2.9-3.14.85-1.15,2.1-2.19,3.73-3.14,1.64-.95,3.5-1.42,5.6-1.42,3.54,0,6.37,1.1,8.5,3.29,2.13,2.2,3.5,5.84,4.13,10.95.62,5.11-.05,11.89-2.01,20.33h-15.62c.06-.33.21-.82.44-1.47.23-.66.39-1.2.49-1.62.1-.43.25-.97.44-1.62.2-.66.33-1.21.39-1.67.06-.46.13-.97.2-1.52.06-.56.06-1.02,0-1.38-.07-.36-.16-.71-.29-1.03-.13-.33-.34-.57-.64-.74-.29-.16-.67-.25-1.13-.25-.92,0-1.9.67-2.95,2.01-1.05,1.34-2.03,2.8-2.95,4.37-.92,1.57-2.41,3.03-4.47,4.37-2.06,1.34-4.44,2.01-7.12,2.01ZM832.16,423.89c3.27,0,4.91-1.18,4.91-3.54s-1.64-3.63-4.91-3.63-4.91,1.21-4.91,3.63,1.64,3.54,4.91,3.54Z" style="fill:#fc8563;"/><path d="M885.4,444.72h-15.23v-26.72h-7.86v-22.4h23.08v49.12ZM883.54,390.79c-1.7,1.77-4.32,2.65-7.86,2.65s-6.16-.88-7.86-2.65c-1.7-1.77-2.55-4.12-2.55-7.07s.87-5.11,2.6-6.88c1.73-1.77,4.34-2.65,7.81-2.65s6.07.88,7.81,2.65,2.6,4.06,2.6,6.88-.85,5.3-2.55,7.07Z" style="fill:#fc8563;"/><path d="M920.96,444.72h-20.73l-12.48-49.12h20.04l2.36,27.51h.98l2.06-27.51h20.24l-12.48,49.12Z" style="fill:#fc8563;"/><path d="M952.6,446.19c-6.75,0-11.94-2.27-15.57-6.83-3.63-4.55-5.45-10.95-5.45-19.21s1.82-14.65,5.45-19.21c3.63-4.55,8.82-6.83,15.57-6.83s12.05,2.28,15.72,6.83c3.67,4.55,5.5,10.95,5.5,19.21s-1.83,14.65-5.5,19.21c-3.67,4.55-8.91,6.83-15.72,6.83ZM952.6,423.79c5.11,0,7.66-1.21,7.66-3.63s-2.55-3.73-7.66-3.73-7.47,1.25-7.47,3.73,2.49,3.63,7.47,3.63Z" style="fill:#fc8563;"/><path d="M992.58,427.53l1.67,17.19h-17.09v-49.12h17l-2.36,19.65h1.47c0-3.67.38-7.04,1.13-10.12.75-3.08,2.03-5.68,3.83-7.81,1.8-2.13,4.01-3.19,6.63-3.19,3.08,0,5.21,1.18,6.39,3.54l-1.67,25.84c-.92-1.7-2.21-3.19-3.88-4.47-1.67-1.28-3.36-1.92-5.06-1.92-2.75,0-4.86.98-6.34,2.95s-2.05,4.46-1.72,7.47Z" style="fill:#fc8563;"/><path d="M1034.33,446.19c-7.21,0-12.72-2.37-16.55-7.12-3.83-4.75-5.75-11.18-5.75-19.3s1.72-14.01,5.16-18.67c3.44-4.65,8.3-6.97,14.59-6.97s10.67,2.18,13.95,6.53c3.27,4.36,4.91,10.43,4.91,18.22,0,1.9-.1,3.34-.29,4.32h-23.09c.26,2.88,3.8,4.32,10.61,4.32,3.34,0,6.58-1.14,9.73-3.44l.98,18.47c-3.8,2.42-8.55,3.63-14.24,3.63ZM1026.86,419.47h9.43c-.13-4.26-1.67-6.39-4.62-6.39s-4.42,2.13-4.81,6.39Z" style="fill:#fc8563;"/><path d="M1110.75,464.36h-18.86l4.62-40.38h-1.18c-.33,7.21-1.65,12.71-3.98,16.5-2.33,3.8-5.42,5.7-9.28,5.7-4.13,0-7.38-2.26-9.77-6.78-2.39-4.52-3.59-10.94-3.59-19.25s1.19-14.74,3.59-19.25c2.39-4.52,5.65-6.78,9.77-6.78,3.54,0,6.45,1.67,8.74,5.01,2.29,3.34,3.73,8.15,4.32,14.44h1.18l-2.65-17.98h17.09v68.76ZM1089.53,423.3c3.54,0,5.3-1.38,5.3-4.13,0-1.24-.48-2.24-1.42-3-.95-.75-2.24-1.13-3.88-1.13s-3.03.38-3.98,1.13c-.95.75-1.42,1.75-1.42,3,0,2.75,1.8,4.13,5.4,4.13Z" style="fill:#fc8563;"/><path d="M1125.39,446.19c-4,0-6.78-1.49-8.35-4.47-1.57-2.98-2.36-7.97-2.36-14.98v-31.14h18.76l-1.77,19.16c0,.2-.03.53-.1.98-.39,1.83-.43,3.54-.1,5.11.33,1.57,1.34,2.36,3.05,2.36,2.75,0,3.8-3.24,3.14-9.72l-1.67-17.88h17.09v49.12h-17l2.06-19.65h-1.28c0,5.83-.97,10.81-2.9,14.93-1.93,4.13-4.8,6.19-8.6,6.19Z" style="fill:#fc8563;"/><path d="M1178.73,446.19c-7.21,0-12.72-2.37-16.55-7.12-3.83-4.75-5.75-11.18-5.75-19.3s1.72-14.01,5.16-18.67c3.44-4.65,8.3-6.97,14.59-6.97s10.67,2.18,13.95,6.53c3.27,4.36,4.91,10.43,4.91,18.22,0,1.9-.1,3.34-.29,4.32h-23.09c.26,2.88,3.8,4.32,10.61,4.32,3.34,0,6.58-1.14,9.73-3.44l.98,18.47c-3.8,2.42-8.55,3.63-14.24,3.63ZM1171.27,419.47h9.43c-.13-4.26-1.67-6.39-4.62-6.39s-4.42,2.13-4.81,6.39Z" style="fill:#fc8563;"/><path d="M1591.72,195.48v5.9c-3.05,9.46-11.23,15.02-21.15,11.77-5.16-1.69-13.44-11.07-18.28-14.97-56.9-45.83-138.82-45.82-195.71,0-4.5,3.62-8.58,8.27-12.9,11.77-10.19,8.26-22.77,3.47-26.53-8.56v-5.9c1.74-6.5,7.43-11.4,12.33-15.83,69.89-63.1,180.12-63.38,249.91,0,4.79,4.35,10.58,9.51,12.33,15.83Z" style="fill:#65dbd1;"/><path d="M1447.89,184.38c35.15-1.84,73.38,11.67,98.79,36.03,7.63,7.32,12.63,18.17,2.93,26.54-12.49,10.78-21.21-.94-30.03-8.02-36.21-29.03-87.1-30.56-125.05-3.89-10.13,7.12-23.25,25.18-36.36,10.86-12.94-14.14,6.07-28.03,16.43-35.61,21.18-15.51,47-24.53,73.3-25.91Z" style="fill:#65dbd1;"/><path d="M1513.23,260.56c10.37,11.52,2.11,28.95-13.43,27.1-6.12-.73-9.74-5.85-14.33-9.27-17.54-13.04-41.72-13.81-59.96-1.62-3.71,2.48-7.33,6.93-10.93,8.91-16.05,8.79-31.65-11.01-18.96-25.13,28.55-31.76,89.05-31.74,117.6,0Z" style="fill:#65dbd1;"/><path d="M1473.55,339.02c-13.74,13.58-37.68,8.36-44.33-9.72-8.32-22.63,14.19-43.73,36.3-34.16,17.06,7.39,21.25,30.82,8.03,43.88Z" style="fill:#65dbd1;"/><path d="M1430.87,447.57h-16.4l-3.12-30.56h-.64l-3.12,30.56h-16.4l-4.72-56h17.92l-2.16,31.92.88.16,5.04-29.44h5.68l5.12,29.44.88-.16-2.16-31.92h17.92l-4.72,56Z" style="fill:#65dbd1;"/><path d="M1454.87,447.57h-12.4v-21.76h-6.4v-18.24h18.8v40ZM1453.35,403.65c-1.39,1.44-3.52,2.16-6.4,2.16s-5.01-.72-6.4-2.16c-1.39-1.44-2.08-3.36-2.08-5.76s.71-4.16,2.12-5.6c1.41-1.44,3.53-2.16,6.36-2.16s4.95.72,6.36,2.16,2.12,3.31,2.12,5.6-.69,4.32-2.08,5.76Z" style="fill:#65dbd1;"/><path d="M1474.87,447.57h-16v-56h30.08v23.2l-16.48-.8v3.2l10.32-.8v10.08l-10.32-.8,2.4,21.92Z" style="fill:#65dbd1;"/><path d="M1492.15,416.37v-24.8h28.64v24.8l-8.8-.8.4,8,8.4-.8v24.8h-28.64v-24.8l8.32.8.4-8-8.72.8Z" style="fill:#65dbd1;"/><path d="M286.99,9.13c11.74,1.84,26.59,14.33,28.42,25.7.22,27.58-.11,217.85.12,247.58.08,1.54,1.5,1.05,2.47.37,10.45-7.42,25.38-25.5,35.43-35.86,8.09-8.38,17.15-16.69,28.8-19.63,19.65-5.64,40.24,11.33,39.43,31.44-1.97,23.96-28.18,40.98-44.03,56.78-14,13.12-25.67,26.49-39.67,41.16-4.5,4.75-9.05,9.44-13.68,14.03-10.63,10.09-19.34,19.59-32.61,24.27-12.54,4.39-27.16-.86-34.75-11.57-3.35-4.41-5.95-10.21-6.38-14.45-.14-31.14-.07-296.76-.07-326.19.26-18.38,16.85-35.94,36.2-33.68l.32.05Z" style="fill:#fc638d;"/><path d="M168.95,9.49c13.81,2.22,25.19,16.61,26.28,29.16.05,30.48-.76,302.46-.79,333.06-2.39,16.48-23.39,29.01-39.52,23.69-12.65-4.06-24.85-17.43-24.67-30.83-.1-23.92.19-192.56-.1-241.42-.1-.65-.51-1.05-1.16-.86-12.96,8.41-26.33,26.42-38.15,37.31-8.35,8.19-19.7,16.39-31.14,17.45-18.94,2.52-36.36-17.05-33.62-35.82,5.47-28.54,79.21-88.84,103.32-114.85,10.34-9.54,24.16-19.76,39.21-16.96l.33.06Z" style="fill:#fc638d;"/><path d="M206.46,548.23h-23.63v-17.92h-38.96v-16.92l44.02-65.51h18.56v51.18h12.66v31.11h-12.66v18.06ZM182.83,479.7l-12.52,19.5h12.52v-19.5Z" style="fill:#fc638d;"/><path d="M250.9,550.38c-6.94,0-13.24-4.56-18.92-13.69-5.67-9.13-8.51-21.91-8.51-38.35,0-17.58,3.75-30.75,11.25-39.5,7.5-8.75,17.49-13.12,29.96-13.12,7.78,0,15.09,1,21.94,3.01l-2.95,41.29c-5.06-2.29-11.11-3.44-18.14-3.44-5.44,0-9.77,1.03-13.01,3.08-3.23,2.06-4.85,4.9-4.85,8.53,0,3.82,1.27,6.74,3.8,8.75,2.53,2.01,5.81,3.01,9.84,3.01,5.63,0,8.58-1.96,8.86-5.88h-15.47v-13.05h40.36l-.14,13.05h-6.61l2.39,44.15h-21.24l4.92-35.7h-1.69c-1.41,10.23-3.07,18.06-4.99,23.51-1.92,5.45-4.17,9.2-6.75,11.25-2.58,2.05-5.93,3.08-10.06,3.08Z" style="fill:#fc638d;"/></svg>