<?xml version="1.0" encoding="UTF-8"?><svg id="Calque_1" xmlns="http://www.w3.org/2000/svg" viewBox="0 0 1477.6 350.64"><path d="M643.46,210.33c-12.74,0-25.33-2.58-37.76-7.73l-.91-57.32c11.07,4.7,23.27,7.05,36.62,7.05,6.82,0,12.05-1.06,15.69-3.18,3.64-2.12,5.46-4.85,5.46-8.19s-1.59-5.69-4.78-7.51c-3.18-1.82-7.36-2.73-12.51-2.73-3.49,0-7.96.76-13.42,2.27-5.46,1.52-9.25,3.11-11.37,4.78l-14.33-9.78.23-80.29h88.48v59.36h-56.41v12.51c5.76-1.21,12.2-1.82,19.33-1.82,11.67,0,21.83,3.56,30.48,10.69,8.64,7.13,12.96,16.98,12.96,29.57,0,17.44-5.23,30.52-15.69,39.23-10.46,8.72-24.49,13.08-42.08,13.08Z" style="fill:#fc8563;"/><path d="M730.8,238.53l-13.19-10.69c3.79-1.97,7.54-5.08,11.26-9.33,3.71-4.25,6.03-8.34,6.94-12.28-1.36.46-2.88.68-4.55.68-4.55,0-8.42-1.63-11.6-4.89-3.18-3.26-4.78-7.39-4.78-12.4s1.89-9.63,5.69-13.42,8.26-5.69,13.42-5.69c5.91,0,10.92,2.2,15.01,6.6,4.09,4.4,6.14,10.39,6.14,17.97,0,17.43-8.11,31.92-24.34,43.44Z" style="fill:#fc8563;"/><path d="M859.19,196.68c-9.78,8.8-22.48,13.19-38.1,13.19s-28.32-4.4-38.1-13.19c-9.78-8.79-14.67-20.39-14.67-34.8,0-9.55,2.2-17.82,6.6-24.79,4.4-6.97,10.54-11.75,18.42-14.33v-1.82c-6.82-2.58-12.05-6.9-15.69-12.96-3.64-6.06-5.46-13.04-5.46-20.93,0-12.74,4.62-23.12,13.87-31.16,9.25-8.04,20.92-12.05,35.03-12.05s25.82,4.02,35.14,12.05c9.33,8.04,13.99,18.42,13.99,31.16,0,7.89-1.86,14.86-5.57,20.93-3.72,6.07-8.98,10.39-15.81,12.96v1.82c7.58,2.73,13.65,7.54,18.2,14.44,4.55,6.9,6.82,15.12,6.82,24.68,0,14.41-4.89,26.01-14.67,34.8ZM821.09,151.87c9.85,0,14.78-3.56,14.78-10.69,0-3.33-1.37-5.88-4.09-7.62-2.73-1.74-6.29-2.62-10.69-2.62s-7.96.87-10.69,2.62c-2.73,1.75-4.09,4.29-4.09,7.62,0,7.13,4.93,10.69,14.78,10.69ZM821.09,120.03c4.09,0,7.35-.83,9.78-2.5,2.42-1.67,3.64-4.02,3.64-7.05s-1.25-5.35-3.75-6.94c-2.5-1.59-5.72-2.39-9.67-2.39-8.8,0-13.19,3.11-13.19,9.33,0,3.03,1.21,5.38,3.64,7.05,2.42,1.67,5.61,2.5,9.55,2.5Z" style="fill:#fc8563;"/><path d="M926.17,206.92h-47.08l28.2-58.23-26.16-55.5h46.63l3.18,45.72h2.05l2.73-45.72h47.08l-26.16,55.5,27.98,58.23h-47.76l-3.87-50.95h-2.05l-4.78,50.95Z" style="fill:#fc8563;"/><path d="M455.99,349.4h-18.86v-68.76h17.09l-2.65,17.98h1.18c.59-6.29,2.03-11.1,4.32-14.44,2.29-3.34,5.21-5.01,8.74-5.01,4.13,0,7.38,2.26,9.77,6.78,2.39,4.52,3.59,10.94,3.59,19.25s-1.2,14.74-3.59,19.25c-2.39,4.52-5.65,6.78-9.77,6.78-3.86,0-6.96-1.9-9.28-5.7-2.33-3.8-3.65-9.3-3.98-16.5h-1.18l4.62,40.37ZM458.34,308.33c3.6,0,5.4-1.38,5.4-4.13,0-1.24-.48-2.24-1.42-3-.95-.75-2.28-1.13-3.98-1.13s-2.93.38-3.88,1.13c-.95.75-1.42,1.75-1.42,3,0,2.75,1.77,4.13,5.3,4.13Z" style="fill:#fc8563;"/><path d="M504.41,307.35v22.4h-21.91v-68.76h18.17l-2.36,46.37h6.09Z" style="fill:#fc8563;"/><path d="M517.28,331.22c-4,0-6.78-1.49-8.35-4.47-1.57-2.98-2.36-7.97-2.36-14.98v-31.14h18.76l-1.77,19.16c0,.2-.03.52-.1.98-.39,1.83-.43,3.54-.1,5.11.33,1.57,1.34,2.36,3.05,2.36,2.75,0,3.8-3.24,3.14-9.72l-1.67-17.88h17.09v49.12h-17l2.06-19.65h-1.28c0,5.83-.97,10.81-2.9,14.93-1.93,4.13-4.8,6.19-8.6,6.19Z" style="fill:#fc8563;"/><path d="M566.3,331.22c-2.42,0-5.52-.33-9.28-.98-3.77-.65-6.8-1.41-9.09-2.26v-22.5c2.55,1.57,5.42,2.83,8.6,3.78,3.18.95,5.94,1.42,8.3,1.42,2.55,0,4.31-.11,5.26-.34.95-.23,1.42-.84,1.42-1.82,0-.79-1.23-1.33-3.68-1.62s-5.16-.59-8.1-.88c-2.95-.29-5.65-1.5-8.1-3.63-2.46-2.13-3.68-5.16-3.68-9.09,0-4.45,1.72-7.92,5.16-10.41,3.44-2.49,8.33-3.73,14.69-3.73,5.43,0,10.61,1.02,15.52,3.05l.1,20.53c-3.87-2.95-8.55-4.42-14.05-4.42-2.1,0-3.6.12-4.52.34-.92.23-1.38.77-1.38,1.62,0,.53.8.9,2.41,1.13,1.6.23,3.55.52,5.84.88,2.29.36,4.6.93,6.93,1.72,2.32.79,4.29,2.19,5.89,4.22,1.6,2.03,2.41,4.62,2.41,7.76,0,4.91-1.82,8.68-5.45,11.3-3.63,2.62-8.69,3.93-15.18,3.93Z" style="fill:#fc8563;"/><path d="M626.91,331.22c-7.21,0-12.72-2.37-16.55-7.12-3.83-4.75-5.75-11.18-5.75-19.3s1.72-14.01,5.16-18.67c3.44-4.65,8.3-6.97,14.59-6.97s10.67,2.18,13.95,6.53c3.27,4.36,4.91,10.43,4.91,18.22,0,1.9-.1,3.34-.29,4.32h-23.09c.26,2.88,3.8,4.32,10.61,4.32,3.34,0,6.58-1.14,9.73-3.44l.98,18.47c-3.8,2.42-8.55,3.63-14.24,3.63ZM629.37,275.33h-11.1l8.94-17.49h14.93l-12.77,17.49ZM619.45,304.5h9.43c-.13-4.26-1.67-6.38-4.62-6.38s-4.42,2.13-4.81,6.38Z" style="fill:#fc8563;"/><path d="M661.98,311.87l1.67,17.88h-17.09v-49.12h17l-2.06,19.65h1.28c0-5.83.97-10.81,2.9-14.93,1.93-4.12,4.8-6.19,8.6-6.19,3.99,0,6.76,1.49,8.3,4.47,1.54,2.98,2.31,7.97,2.31,14.98l-.1,31.14h-18.57l1.77-19.16c.46-1.96.56-3.86.29-5.7-.26-1.83-1.31-2.75-3.14-2.75-2.75,0-3.8,3.24-3.14,9.72Z" style="fill:#fc8563;"/><path d="M710.12,331.22c-7.21,0-12.72-2.37-16.55-7.12-3.83-4.75-5.75-11.18-5.75-19.3s1.72-14.01,5.16-18.67c3.44-4.65,8.3-6.97,14.59-6.97s10.67,2.18,13.95,6.53c3.27,4.36,4.91,10.43,4.91,18.22,0,1.9-.1,3.34-.29,4.32h-23.09c.26,2.88,3.8,4.32,10.61,4.32,3.34,0,6.58-1.14,9.73-3.44l.98,18.47c-3.8,2.42-8.55,3.63-14.24,3.63ZM712.57,275.33h-11.1l8.94-17.49h14.93l-12.77,17.49ZM702.65,304.5h9.43c-.13-4.26-1.67-6.38-4.62-6.38s-4.42,2.13-4.81,6.38Z" style="fill:#fc8563;"/><path d="M745.19,312.56l1.67,17.19h-17.09v-49.12h17l-2.36,19.65h1.47c0-3.67.38-7.04,1.13-10.12.75-3.08,2.03-5.68,3.83-7.81,1.8-2.13,4.01-3.19,6.63-3.19,3.08,0,5.21,1.18,6.39,3.54l-1.67,25.84c-.92-1.7-2.21-3.19-3.88-4.47-1.67-1.28-3.36-1.92-5.06-1.92-2.75,0-4.86.98-6.34,2.95s-2.05,4.45-1.72,7.46Z" style="fill:#fc8563;"/><path d="M774.07,350.87c-4.26,0-7.58-2.05-9.97-6.14-2.39-4.09-2.77-9.58-1.13-16.45l4.52-18.76,10.02,2.36.29-1.08c-3.93-.85-7.04-2.54-9.33-5.06-2.29-2.52-3.44-5.71-3.44-9.58,0-5.04,1.95-9.14,5.84-12.28,3.9-3.14,8.86-4.72,14.88-4.72,6.55,0,15.23.49,26.03,1.47v19.65l-13.07-13.46-.79.98c4.32,2.95,6.48,7.11,6.48,12.48,0,4.06-1.64,7.35-4.91,9.87-3.28,2.52-7.89,3.78-13.85,3.78h-5.7l-1.18,3.44c-.66,2.42-.72,4.12-.2,5.11.52.98,1.38,1.47,2.55,1.47,1.11,0,2.21-.47,3.29-1.42,1.08-.95,2.05-2,2.9-3.14.85-1.14,2.1-2.19,3.73-3.14,1.64-.95,3.5-1.42,5.6-1.42,3.54,0,6.37,1.1,8.5,3.29,2.13,2.2,3.5,5.85,4.13,10.95.62,5.11-.05,11.89-2.01,20.33h-15.62c.06-.33.21-.82.44-1.47.23-.66.39-1.2.49-1.62.1-.43.25-.97.44-1.62s.33-1.21.39-1.67c.06-.46.13-.97.2-1.52.06-.56.06-1.02,0-1.38-.07-.36-.16-.7-.29-1.03-.13-.33-.34-.57-.64-.74-.29-.16-.67-.25-1.13-.25-.92,0-1.9.67-2.95,2.01-1.05,1.34-2.03,2.8-2.95,4.37-.92,1.57-2.41,3.03-4.47,4.37-2.06,1.34-4.44,2.01-7.12,2.01ZM785.17,308.92c3.27,0,4.91-1.18,4.91-3.54s-1.64-3.63-4.91-3.63-4.91,1.21-4.91,3.63,1.64,3.54,4.91,3.54Z" style="fill:#fc8563;"/><path d="M838.41,329.75h-15.23v-26.72h-7.86v-22.4h23.08v49.12ZM836.54,275.82c-1.7,1.77-4.32,2.65-7.86,2.65s-6.16-.88-7.86-2.65c-1.7-1.77-2.55-4.12-2.55-7.07s.87-5.11,2.6-6.88c1.73-1.77,4.34-2.65,7.81-2.65s6.07.88,7.81,2.65c1.74,1.77,2.6,4.06,2.6,6.88s-.85,5.3-2.55,7.07Z" style="fill:#fc8563;"/><path d="M873.97,329.75h-20.73l-12.48-49.12h20.04l2.36,27.51h.98l2.06-27.51h20.24l-12.48,49.12Z" style="fill:#fc8563;"/><path d="M905.6,331.22c-6.75,0-11.94-2.28-15.57-6.83-3.63-4.55-5.45-10.95-5.45-19.21s1.82-14.65,5.45-19.21c3.63-4.55,8.82-6.83,15.57-6.83s12.05,2.28,15.72,6.83c3.67,4.55,5.5,10.95,5.5,19.21s-1.83,14.65-5.5,19.21c-3.67,4.55-8.91,6.83-15.72,6.83ZM905.6,308.83c5.11,0,7.66-1.21,7.66-3.63s-2.55-3.73-7.66-3.73-7.47,1.24-7.47,3.73,2.49,3.63,7.47,3.63Z" style="fill:#fc8563;"/><path d="M945.58,312.56l1.67,17.19h-17.09v-49.12h17l-2.36,19.65h1.47c0-3.67.38-7.04,1.13-10.12.75-3.08,2.03-5.68,3.83-7.81,1.8-2.13,4.01-3.19,6.63-3.19,3.08,0,5.21,1.18,6.39,3.54l-1.67,25.84c-.92-1.7-2.21-3.19-3.88-4.47-1.67-1.28-3.36-1.92-5.06-1.92-2.75,0-4.86.98-6.34,2.95s-2.05,4.45-1.72,7.46Z" style="fill:#fc8563;"/><path d="M987.33,331.22c-7.21,0-12.72-2.37-16.55-7.12-3.83-4.75-5.75-11.18-5.75-19.3s1.72-14.01,5.16-18.67c3.44-4.65,8.3-6.97,14.59-6.97s10.67,2.18,13.95,6.53c3.27,4.36,4.91,10.43,4.91,18.22,0,1.9-.1,3.34-.29,4.32h-23.09c.26,2.88,3.8,4.32,10.61,4.32,3.34,0,6.58-1.14,9.73-3.44l.98,18.47c-3.8,2.42-8.55,3.63-14.24,3.63ZM979.87,304.5h9.43c-.13-4.26-1.67-6.38-4.62-6.38s-4.42,2.13-4.81,6.38Z" style="fill:#fc8563;"/><path d="M1063.76,349.4h-18.86l4.62-40.37h-1.18c-.33,7.2-1.65,12.71-3.98,16.5-2.33,3.8-5.42,5.7-9.28,5.7-4.13,0-7.38-2.26-9.77-6.78-2.39-4.52-3.59-10.94-3.59-19.25s1.19-14.74,3.59-19.25c2.39-4.52,5.65-6.78,9.77-6.78,3.54,0,6.45,1.67,8.74,5.01,2.29,3.34,3.73,8.15,4.32,14.44h1.18l-2.65-17.98h17.09v68.76ZM1042.54,308.33c3.54,0,5.3-1.38,5.3-4.13,0-1.24-.48-2.24-1.42-3-.95-.75-2.24-1.13-3.88-1.13s-3.03.38-3.98,1.13c-.95.75-1.42,1.75-1.42,3,0,2.75,1.8,4.13,5.4,4.13Z" style="fill:#fc8563;"/><path d="M1078.39,331.22c-4,0-6.78-1.49-8.35-4.47-1.57-2.98-2.36-7.97-2.36-14.98v-31.14h18.76l-1.77,19.16c0,.2-.03.52-.1.98-.39,1.83-.43,3.54-.1,5.11.33,1.57,1.34,2.36,3.05,2.36,2.75,0,3.8-3.24,3.14-9.72l-1.67-17.88h17.09v49.12h-17l2.06-19.65h-1.28c0,5.83-.97,10.81-2.9,14.93-1.93,4.13-4.8,6.19-8.6,6.19Z" style="fill:#fc8563;"/><path d="M1131.74,331.22c-7.21,0-12.72-2.37-16.55-7.12-3.83-4.75-5.75-11.18-5.75-19.3s1.72-14.01,5.16-18.67c3.44-4.65,8.3-6.97,14.59-6.97s10.67,2.18,13.95,6.53c3.27,4.36,4.91,10.43,4.91,18.22,0,1.9-.1,3.34-.29,4.32h-23.09c.26,2.88,3.8,4.32,10.61,4.32,3.34,0,6.58-1.14,9.73-3.44l.98,18.47c-3.8,2.42-8.55,3.63-14.24,3.63ZM1124.27,304.5h9.43c-.13-4.26-1.67-6.38-4.62-6.38s-4.42,2.13-4.81,6.38Z" style="fill:#fc8563;"/><path d="M1428.39,99.72v2.52c-1.31,4.04-4.8,6.42-9.04,5.03-2.21-.72-5.74-4.73-7.81-6.4-24.32-19.59-59.34-19.59-83.66,0-1.92,1.55-3.67,3.53-5.51,5.03-4.36,3.53-9.73,1.48-11.34-3.66v-2.52c.74-2.78,3.18-4.88,5.27-6.77,29.87-26.97,76.99-27.09,106.83,0,2.05,1.86,4.52,4.06,5.27,6.77Z" style="fill:#65dbd1;"/><path d="M1366.91,94.97c15.03-.79,31.37,4.99,42.23,15.4,3.26,3.13,5.4,7.77,1.25,11.35-5.34,4.61-9.06-.4-12.84-3.43-15.48-12.41-37.23-13.06-53.46-1.66-4.33,3.04-9.94,10.76-15.54,4.64-5.53-6.04,2.59-11.98,7.02-15.22,9.05-6.63,20.09-10.49,31.33-11.08Z" style="fill:#65dbd1;"/><path d="M1394.84,127.53c4.43,4.93.9,12.37-5.74,11.58-2.62-.31-4.16-2.5-6.12-3.96-7.5-5.58-17.83-5.9-25.63-.69-1.59,1.06-3.13,2.96-4.67,3.81-6.86,3.76-13.53-4.71-8.1-10.74,12.2-13.58,38.07-13.57,50.27,0Z" style="fill:#65dbd1;"/><path d="M1377.88,161.07c-5.87,5.8-16.11,3.57-18.95-4.16-3.56-9.67,6.07-18.7,15.52-14.6,7.29,3.16,9.08,13.17,3.43,18.76Z" style="fill:#65dbd1;"/><path d="M1340.78,257.04h-20.14l-3.83-37.53h-.79l-3.83,37.53h-20.14l-5.8-68.76h22l-2.65,39.2,1.08.2,6.19-36.15h6.97l6.29,36.15,1.08-.2-2.65-39.2h22l-5.8,68.76Z" style="fill:#65dbd1;"/><path d="M1370.25,257.04h-15.23v-26.72h-7.86v-22.4h23.08v49.12ZM1368.38,203.11c-1.7,1.77-4.32,2.65-7.86,2.65s-6.16-.88-7.86-2.65c-1.7-1.77-2.55-4.13-2.55-7.07s.87-5.11,2.6-6.88c1.73-1.77,4.34-2.65,7.81-2.65s6.07.88,7.81,2.65,2.6,4.06,2.6,6.88-.85,5.31-2.55,7.07Z" style="fill:#65dbd1;"/><path d="M1394.81,257.04h-19.65v-68.76h36.94v28.49l-20.24-.98v3.93l12.67-.98v12.38l-12.67-.98,2.95,26.92Z" style="fill:#65dbd1;"/><path d="M1416.03,218.73v-30.45h35.17v30.45l-10.81-.98.49,9.82,10.31-.98v30.45h-35.17v-30.45l10.22.98.49-9.82-10.71.98Z" style="fill:#65dbd1;"/><path d="M299.11,34.09v193.24c0,3.92-3.18,7.1-7.1,7.1h-42.17c-3.92,0-7.1-3.18-7.1-7.1V34.09c0-15.57,12.62-28.18,28.18-28.18h0c15.57,0,28.18,12.62,28.18,28.18Z" style="fill:#fc638d;"/><path d="M225.98,90.46v136.87c0,3.92-3.18,7.1-7.1,7.1h-42.17c-3.92,0-7.1-3.18-7.1-7.1V90.46c0-15.57,12.62-28.18,28.18-28.18h0c15.57,0,28.18,12.62,28.18,28.18Z" style="fill:#fc638d;"/><path d="M152.86,146.82v80.5c0,3.92-3.18,7.1-7.1,7.1h-42.17c-3.92,0-7.1-3.18-7.1-7.1v-80.5c0-15.57,12.62-28.18,28.18-28.18h0c15.57,0,28.18,12.62,28.18,28.18Z" style="fill:#fc638d;"/><path d="M74.16,234.42H31.99c-3.92,0-7.1-3.18-7.1-7.1v-27.19c0-15.56,12.62-28.18,28.18-28.17h0c15.55,0,28.16,12.61,28.17,28.16v27.2c.02,3.92-3.16,7.1-7.08,7.1Z" style="fill:#fc638d;"/><path d="M153.65,326.21h-16.5v-12.28h-27.21v-11.59l30.75-44.89h12.97v35.07h8.84v21.32h-8.84v12.38ZM137.15,279.25l-8.74,13.36h8.74v-13.36Z" style="fill:#fc638d;"/><path d="M184.69,327.68c-4.85,0-9.25-3.13-13.21-9.38-3.96-6.25-5.94-15.01-5.94-26.28,0-12.05,2.62-21.07,7.86-27.06,5.24-5.99,12.21-8.99,20.92-8.99,5.43,0,10.54.69,15.32,2.06l-2.06,28.29c-3.54-1.57-7.76-2.36-12.67-2.36-3.8,0-6.83.7-9.09,2.11-2.26,1.41-3.39,3.36-3.39,5.85,0,2.62.88,4.62,2.65,5.99,1.77,1.38,4.06,2.06,6.88,2.06,3.93,0,5.99-1.34,6.19-4.03h-10.81v-8.94h28.19l-.1,8.94h-4.62l1.67,30.26h-14.83l3.44-24.46h-1.18c-.98,7.01-2.15,12.38-3.49,16.11-1.34,3.73-2.91,6.3-4.71,7.71-1.8,1.41-4.14,2.11-7.02,2.11Z" style="fill:#fc638d;"/></svg>