<?xml version="1.0" encoding="UTF-8"?><svg id="Calque_1" xmlns="http://www.w3.org/2000/svg" viewBox="0 0 1581.35 374.73"><path d="M782.68,205.69c-5.32,10.44-12.2,19.8-21.28,27.16-8.47,6.87-17.62,12.91-26.45,19.35-7.55,5.51-15.76,10.28-20.82,18.57-3.74,6.13-2.27,11.23,3.87,14.95,7.1,4.31,14.62,4.26,21.95,1.63,6.86-2.46,13.43-5.82,19.9-9.2,3.19-1.67,4.96-1.64,6.72,1.76,2.77,5.36,5.89,10.55,8.98,15.74,1.55,2.59.9,4.28-1.62,5.63-9.88,5.27-19.74,10.48-30.79,13.16-19.93,4.84-39.57-1.56-51.45-17.23-8.6-11.34-8.77-27.06-.45-40.64,5.27-8.61,12.68-15.11,20.75-20.94,10.32-7.46,20.96-14.51,30.94-22.4,8.16-6.45,14.76-14.4,16.95-25.09,1.29-6.3-.1-12.05-3.91-17.16-3.42-4.6-9.28-5.99-15.35-3.22-7.6,3.46-14.93,7.5-22.49,11.06-9.41,4.44-19.17,7.8-29.78,6-15.14-2.58-25.76-11.41-31.82-25.25-8.71-19.88-1.85-36.43,13.25-50.61,5.43-5.1,11.47-9.55,16.95-14.59,3.08-2.84,6.21-5.95,8.23-9.55,3.66-6.53-1.25-15.79-9.08-18.36-9.1-2.98-17.28-.49-25.05,4.2-10.19,6.14-16.99,15.52-23.59,25.06-1.46,2.12-2.83,4.3-4.22,6.46-1.18,1.83-2.45,2.29-4.45.92-5.72-3.93-11.62-7.61-17.28-11.61-.83-.58-1.5-2.87-1.03-3.59,10.49-16.29,21.63-32.14,39.12-41.74,16.71-9.17,34.16-11.64,51.65-2.21,25.1,13.54,29.77,43.91,9.89,64.29-6.26,6.42-13.44,11.94-20.1,17.99-2.66,2.41-5.22,4.98-7.49,7.76-4.82,5.91-4.85,12.24-.4,18.06,4.67,6.11,10.89,8.08,17.71,5.01,7.73-3.48,15.26-7.39,22.86-11.16,11.66-5.78,23.7-8.82,36.45-4.07,9.01,3.35,15.68,9.66,20.7,17.78.6.97,1.33,1.86,2.01,2.79v43.31Z" style="fill:#e5e5e5;"/><path d="M798.67,146.14c7.8.35,13.81,4.55,19.29,9.46,9.81,8.8,14.35,20.83,19.29,32.57,2.66,6.32,5.55,12.45,10.77,17.17,3.26,2.95,6.77,3.85,11.01,2.22,6.23-2.4,12.4-5.13,18.84-6.74,15.63-3.91,29.6.44,41.84,10.33,17.62,14.23,21.13,33.01,15.98,53.96-2.76,11.22-6.78,22.13-9.65,33.33-1.83,7.15-2.38,14.55,2.16,21.24,4.13,6.09,9.3,6.75,14.41,1.51,5.74-5.89,10.93-12.34,16.9-17.97,21.83-20.57,53.95-8.43,63.46,15.15,6.52,16.15,3.9,31.53-4.86,46.18-.52.88-.89,1.84-1.33,2.77h-4.64c-.53-.68-.95-1.52-1.62-2.03-4.18-3.21-8.27-6.56-12.67-9.43-3.18-2.08-3.59-4.1-1.68-7.26,3.35-5.54,3.92-11.62,2.64-17.88-1.49-7.29-9.9-12.77-16.77-10.23-3.27,1.21-6.02,4.21-8.63,6.78-5.58,5.49-10.51,11.7-16.44,16.76-9.17,7.81-20.17,10.11-31.51,6.02-14.26-5.14-22.93-16.07-26.25-30.6-3.09-13.54-.27-26.82,3.88-39.87,2.69-8.44,5.28-16.94,7.26-25.56,1.31-5.7.9-11.69-2.65-16.72-6.76-9.58-18.31-14.64-32.67-7.28-19.12,9.8-37.11,6.03-50.24-9.95-6.78-8.26-10.93-17.91-14.94-27.7-2.65-6.46-5.08-13.26-11.17-17.63v-28.62Z" style="fill:#e5e5e5;"/><path d="M1248.01,367.33c-2.96-13.86-4.48-27.67-.18-41.61,4.69-15.2,19.26-27.84,35.04-29.32,11.31-1.06,20.59,3.69,28.13,11.82,3.66,3.95,7.22,8.1,10.12,12.62,7.82,12.18,25.23,16.78,41.01,9.32,7.83-3.7,16.2-6.79,24.66-8.49,14.06-2.83,29.4,6.35,35.19,19.47,3.7,8.38,5.79,17.02,5.46,26.2h-27.07c-.85-4.75-1.15-9.7-2.71-14.21-1.63-4.69-5.14-5.99-9.99-4.57-3.19.94-6.29,2.28-9.31,3.69-13.48,6.26-27.1,10.92-42.43,7.61-10.58-2.28-20.32-6.08-27.93-13.75-5.76-5.8-10.53-12.57-15.9-18.78-4.35-5.04-8.31-5.34-13.26-1.05-1.61,1.4-2.99,3.21-4.03,5.09-3.28,5.92-3.03,12.41-2.32,18.83.64,5.74,1.72,11.43,2.6,17.14h-27.07Z" style="fill:#e5e5e5;"/><path d="M0,62.61c22.13-7.59,44.25-8.44,65.82,1.58,26.05,12.1,43.02,41.73,35.47,69.13-5.33,19.33-18.19,31.92-37.46,37.43-17.32,4.95-36.51-3.05-46.81-19.14-7.3-11.41-9.77-23.62-5.44-36.82,1.66-5.06,2.48-5.47,7.27-2.98,5.13,2.68,10.24,5.4,15.39,8.04,1.86.95,2.98,1.86,2.55,4.42-1.28,7.77,2.61,15.17,9.57,19.06,5.5,3.07,13.94,1.72,19.82-3.19,12.17-10.15,13.17-27,2.29-40.35-11.09-13.61-26.02-17.15-42.6-15.67-8.23.74-16.15,3.04-23.64,6.66-.66.32-1.48.3-2.23.44v-28.62Z" style="fill:#e5e5e5;"/><path d="M1581.35,112.88c-5.15-1.53-10.32-2.99-15.44-4.62-12.24-3.91-24.46-7.9-37.31-12.06-1.23,4.61-2.47,9.1-3.62,13.62-5.63,22.19-11.13,44.42-16.91,66.58-2.13,8.15-12.38,11.98-19.43,7.27-14.86-9.93-29.54-20.13-44.29-30.22-2.23-1.52-4.41-3.14-6.72-4.51-1.89-1.12-2.15-2.31-.93-4.08,3.86-5.61,7.72-11.23,11.49-16.9,1.83-2.75,3.69-1.92,5.83-.45,9.74,6.71,19.51,13.36,29.29,20.02,1.05.71,2.17,1.31,3.85,2.32,1.24-4.76,2.43-9.15,3.53-13.57,4.16-16.73,8.29-33.46,12.44-50.19.8-3.24,1.67-6.47,2.48-9.71,2.15-8.54,9.72-12.78,18.14-10.05,19.21,6.22,38.41,12.48,57.61,18.73v27.84Z" style="fill:#e5e5e5;"/><path d="M679.33,295.48c-5.15-1.53-10.32-2.99-15.44-4.62-12.24-3.91-24.46-7.9-37.31-12.06-1.23,4.61-2.47,9.1-3.62,13.62-5.63,22.19-11.13,44.42-16.91,66.58-2.13,8.15-12.38,11.98-19.43,7.27-14.86-9.93-29.54-20.13-44.29-30.22-2.23-1.52-4.41-3.14-6.72-4.51-1.89-1.12-2.15-2.31-.93-4.08,3.86-5.61,7.72-11.23,11.49-16.9,1.83-2.75,3.69-1.92,5.83-.45,9.74,6.71,19.51,13.36,29.29,20.02,1.05.71,2.17,1.31,3.85,2.32,1.24-4.76,2.43-9.15,3.53-13.57,4.16-16.73,8.29-33.46,12.44-50.19.8-3.24,1.67-6.47,2.48-9.71,2.15-8.54,9.72-12.78,18.14-10.05,19.21,6.22,38.41,12.48,57.61,18.73v27.84Z" style="fill:#e5e5e5;"/><path d="M1581.35,171.66c-11.38-.55-19.86,5.16-26.54,13.4-7.76,9.57-14.55,19.92-22.06,29.7-8.9,11.62-19.62,20.87-33.72,26.01-18.53,6.75-41.79-1.71-51.03-19.06-4.93-9.26-3.86-11.23,6.36-12.27,4.48-.46,8.9-1.42,13.38-1.86,1.28-.13,3.2.36,3.91,1.28,5.39,7.02,14.01,9.11,21.93,5.2,8.47-4.17,14.43-11.03,19.99-18.34,8.01-10.52,15.38-21.61,24.1-31.5,11.39-12.91,26.09-19.84,43.68-19.63v27.07Z" style="fill:#e5e5e5;"/><path d="M299.57,286.01c-11.38-.55-19.86,5.16-26.54,13.4-7.76,9.57-14.55,19.92-22.06,29.7-8.9,11.62-19.62,20.87-33.72,26.01-18.53,6.75-41.79-1.71-51.03-19.06-4.93-9.26-3.86-11.23,6.36-12.27,4.48-.46,8.9-1.42,13.38-1.86,1.28-.13,3.2.36,3.91,1.28,5.39,7.02,14.01,9.11,21.93,5.2,8.47-4.17,14.43-11.03,19.99-18.34,8.01-10.52,15.38-21.61,24.1-31.5,11.39-12.91,26.09-19.84,43.68-19.63v27.07Z" style="fill:#e5e5e5;"/><path d="M1444.45,367.33c-1.14-6.84-2.69-13.63-3.34-20.51-2.41-25.21,5.46-46.89,23.17-64.99,10.69-10.92,23.6-18.53,37.54-24.37,7.09-2.97,14.48-5.29,21.85-7.54,2.76-.85,5.84-.9,8.77-.83.95.02,2.42,1.45,2.69,2.48,1.69,6.46,3.23,12.97,4.46,19.53.16.88-1.5,2.73-2.66,3.13-7.54,2.57-15.33,4.44-22.74,7.32-14.83,5.76-28.12,13.78-37.45,27.29-9.16,13.26-10.86,27.86-7.93,43.18,1,5.23,3.32,10.22,5.04,15.31h-29.39Z" style="fill:#e5e5e5;"/><path d="M448.98,73.75c3.54-5.95,6.75-12.14,10.69-17.82,14.44-20.81,34.45-32.28,59.66-34.65,15.21-1.44,29.98,1.09,44.4,5.64,7.34,2.31,14.47,5.31,21.55,8.35,2.66,1.14,5.04,3.09,7.23,5.03.71.63.91,2.67.45,3.63-2.88,6.02-5.91,11.99-9.21,17.79-.44.78-2.91,1.12-4.05.67-7.41-2.91-14.58-6.51-22.09-9.1-15.04-5.18-30.37-7.64-46.22-3.35-15.56,4.21-26.28,14.26-33.94,27.85-2.62,4.64-4.06,9.94-6.04,14.95-7.48-6.33-14.96-12.65-22.44-18.98Z" style="fill:#e5e5e5;"/><path d="M776.74,250.07c0-5.46,5.38-9.29,10.53-7.51,4.26,1.47,8.45,3.05,12.34,5.19,7.34,4.04,14.15,9.36,20.41,14.99,18.07,16.24,29.41,36.52,33.59,60.47,2.15,12.34,2.19,24.76-.09,37.08-.51,2.73-2.92,4.69-5.69,4.69h-15.88c-3.7,0-6.46-3.42-5.66-7.03.45-2.04.85-4.08,1.08-6.15,2.81-24.89-3.8-46.77-21.1-65.24-7.29-7.78-15.83-13.66-25.16-18.44-2.67-1.37-4.38-4.09-4.38-7.09v-10.97Z" style="fill:#e5e5e5;"/><path d="M1571.29,367.33c1.13-4.18,2.67-8.3,3.33-12.56,2.03-13-1.2-24.35-11.86-32.72-9.55-7.49-24.92-5.7-31.08,3.47-3.26,4.85-4.08,10.33-2.26,15.87.87,2.65.27,4-1.93,5.36-6.31,3.91-12.53,7.95-19.58,12.45-1.87-4.3-4.2-7.96-5.09-11.94-5.56-24.83,7.96-48.08,31.39-54.65,17.48-4.9,33.01-1.1,47.15,9.76v64.97h-10.05Z" style="fill:#e5e5e5;"/><path d="M0,234.31c15.29-12.85,32.8-20.98,52.38-24.74,10.33-1.98,20.71-2.17,31.15-.94,2.42.28,3.4,1.2,2.95,3.78-1.1,6.33-2.12,12.69-2.94,19.06-.39,3.04-1.6,4.09-4.75,3.83-12.6-1.04-24.9.31-36.8,4.93-12.46,4.84-23.23,12-32.06,22.06Q5.6,267.26,0,263.7v-29.39Z" style="fill:#e5e5e5;"/><path d="M1113.44,367.33c-13.15-9.07-27.83-14.3-43.46-16.89-6.7-1.11-13.55-1.33-20.29-2.27-1.11-.15-2.78-1.9-2.85-2.99-.44-6.54-.42-13.11-.69-19.67-.12-2.84,1.05-3.9,3.85-3.89,13.33.05,26.4,1.86,39.22,5.47,12.67,3.56,24.6,8.83,35.94,15.52,4.82,2.85,4.98,3.37,1.82,8.17-3.58,5.45-6.98,11.03-10.45,16.55h-3.09Z" style="fill:#e5e5e5;"/><path d="M170.85,86.86c-13.15-9.07-27.83-14.3-43.46-16.89-6.7-1.11-13.55-1.33-20.29-2.27-1.11-.15-2.78-1.9-2.85-2.99-.44-6.54-.42-13.11-.69-19.67-.12-2.84,1.05-3.9,3.85-3.89,13.33.05,26.4,1.86,39.22,5.47,12.67,3.56,24.6,8.83,35.94,15.52,4.82,2.85,4.98,3.37,1.82,8.17-3.58,5.45-6.98,11.03-10.45,16.55h-3.09Z" style="fill:#e5e5e5;"/><path d="M701.22,232.25c-15.82-2.21-31.29-.31-46.42,4.37-6.49,2.01-12.71,4.88-19.15,7.06-1.06.36-3.33-.45-3.89-1.4-3.32-5.65-6.25-11.53-9.43-17.28-1.38-2.49-.81-3.96,1.7-5.2,11.94-5.92,24.44-10.16,37.51-12.69,12.92-2.49,25.95-3.13,39.08-2.23,5.59.38,5.96.79,5.29,6.49-.76,6.48-1.29,12.98-1.93,19.48l-2.77,1.39Z" style="fill:#e5e5e5;"/><path d="M1145.92,367.33c9.52-24.12,36.31-31.16,57.61-20.29,9.02,4.6,15.73,11.44,20.5,20.29h-78.11Z" style="fill:#e5e5e5;"/><path d="M859.15,36.79c-17.23,22.78-34.41,45.6-51.54,68.45-4.22,5.63-9.5,9.12-16.57,6.66-2.99-1.03-5.33-3.94-7.96-6.05-6.86.82-13.72,1.6-20.56,2.52-2.27.31-4.52.98-6.73,1.66-2.58.79-4.06.26-4.76-2.63-1.48-6-3.18-11.93-4.96-17.85-.99-3.26-.18-4.76,3.31-5.7,10.21-2.77,20.52-4.51,30.94-5.27s20.59-7.01,25.65-16.64h0c7.4-9.72,14.81-19.43,22.2-29.15,3.26-4.3,6.5-8.61,9.72-12.95,1.34-1.82,2.81-2.01,4.59-.65,5.41,4.15,10.82,8.31,16.26,12.42,2.13,1.62,1.97,3.13.41,5.19Z" style="fill:#e5e5e5;"/><path d="M1064.87,99.82c10.86.36,20.7-3.03,30.41-7.57,6.82-3.19,13.93-6.14,21.22-7.82,11.46-2.65,21.69.9,30.07,9.17,7.17,7.06,8.99,20.14,4.97,30.38-3.47,8.82-9.65,15.37-16.54,21.46-2.22,1.96-4.46,3.88-6.66,5.87-8.74,7.89-6.47,15.43.97,22.35,5.61,5.21,14.6,5.4,21.72,1.59,9.18-4.92,15.1-12.51,18.77-22.1,3.54-9.27,7.15-18.55,13.95-26.04,10.76-11.84,28.05-16.7,41.59-8.97,6.41,3.66,10.29,9.55,13.53,15.93.93,1.83,1.81,3.7,2.79,5.51,1.99,3.68,4.3,4.52,7.4,1.93,2.76-2.31,4.96-1.76,7.64-.29,5.18,2.85,10.43,5.58,15.69,8.29,2.67,1.38,3.02,2.7,1.12,5.35-10.31,14.41-29.37,19.22-43.7,10.73-5.48-3.25-9.25-8.08-12.12-13.68-.88-1.71-1.69-3.46-2.55-5.18-3.41-6.74-8.11-7.09-12.2-.4-3.13,5.12-5.8,10.61-7.97,16.21-6.43,16.65-16.79,29.81-33.26,37.25-25.28,11.41-51.77,2.76-63.05-24.08-6.43-15.3-2.9-29.66,9.71-42.39,4.34-4.38,9.15-8.29,13.59-12.58,1.54-1.49,2.88-3.33,3.83-5.25,1.56-3.15.53-4.98-2.95-4.54-3.75.47-7.46,1.79-11.03,3.13-9.12,3.43-17.88,8.36-27.28,10.41-27.02,5.9-52.37,1.69-73.92-16.81-9.41-8.07-14.86-18.57-12.99-31.46,2.46-16.9,13.28-26.7,30.63-28.45,11.59-1.16,22.81,1.46,34.13,3.13,2.41.36,4.85.69,7.28.76,7,.2,10.25-2.71,11.19-9.76.79-5.86-.93-11.23-3.3-16.43-1.71-3.74-3.81-7.3-5.38-11.09-.4-.95.15-3.14.94-3.61,6.29-3.75,12.72-7.28,19.2-10.68.63-.33,2.45.35,2.87,1.07,6.1,10.23,11.12,20.95,12.57,32.93,1.95,16.08-5.43,33.68-20.12,41.09-9.36,4.72-19.14,4.05-29.1,2.44-8.5-1.37-17.07-2.32-25.64-3.25-1.7-.18-3.63.27-5.22.97-3.39,1.47-4.31,4.73-2.48,7.97,3.8,6.71,10.11,10.34,17.05,12.49,7.3,2.26,22.56,4.4,22.64,4.03Z" style="fill:#e5e5e5;"/><path d="M271.84,197.7c2.03,8.72,3.82,18.17,6.5,27.37,1.93,6.63,4.87,12.99,7.73,19.31,1.19,2.64.8,3.97-1.68,5.2-5.76,2.85-11.56,5.65-17.13,8.85-2.64,1.52-4.03,1.05-4.99-1.52-4.22-11.31-8.83-22.49-12.4-34-2.31-7.44-3.17-15.35-4.48-23.08-.36-2.1-.98-3.04-3.25-3.38-39.4-5.88-62.95-40.97-53.77-79.88,3.59-15.21,11.73-27.52,23.47-37.59,3.11-2.67,3.99-2.44,6.39.97,3.47,4.95,6.96,9.88,10.5,14.78,1.56,2.16,1.88,3.57-.6,5.75-11.97,10.5-17.18,24.12-14.09,39.54,2.75,13.73,10.35,24.61,25.11,28.52,4.84,1.28,5.31,1.09,5.76-3.88,1.62-17.94,5.35-35.39,12.96-51.8,6.26-13.49,14.98-24.91,29.02-31.19,13.14-5.88,25.92-4.42,38.11,2.71,22.62,13.22,29.87,40,19.68,64.38-8.19,19.59-23.13,32.23-42.46,39.73-9.53,3.7-19.59,6-30.37,9.22ZM271.35,169.69c4.29-1.07,7.72-1.86,11.1-2.79,12.65-3.47,24.02-9.01,32.39-19.6,7.79-9.87,9.45-23.48,3.86-32.8-5.59-9.33-17.04-12.24-24.76-5.87-3.3,2.72-6.27,6.15-8.51,9.8-7.57,12.39-10.61,26.33-12.83,40.46-.51,3.25-.76,6.53-1.24,10.8Z" style="fill:#e5e5e5;"/><path d="M623.01,163.58c-.95,23.21-8.26,42.48-24.73,57.27-18.48,16.59-40.06,18.35-62.91,10.86-17.5-5.73-31.86-16.11-43-30.68-16.14-21.12-22.82-44.94-17.55-71.19,5.87-29.21,22.36-50.91,48.84-64.87,2.81-1.48,4.43-1.6,5.74,1.97,2.04,5.53,4.69,10.85,7.19,16.21,1.3,2.79,1.47,4.45-1.9,6.4-21.36,12.36-33.78,30.65-34.27,55.72-.46,23.56,10.54,41.32,29.72,54.32,6.46,4.38,13.57,7.25,21.33,8.47,17.32,2.71,30.13-3.44,38.07-18.96,6.44-12.6,8.64-25.81,3.65-39.56-4.34-11.96-17.63-23.46-32.83-18.77-13.92,4.29-17.56,19.13-7.18,29.06.83.8,1.35,2.83.95,3.87-2.5,6.47-5.33,12.81-7.99,19.22-.97,2.33-2.29,2.18-4.26,1.13-9.28-4.97-15.38-12.48-18.89-22.38-5.19-14.63-3.33-28.19,6.01-40.49,13.39-17.63,39-23.6,58.79-13.91,23.93,11.72,34.23,31.77,35.18,56.3Z" style="fill:#e5e5e5;"/><path d="M1097.51,246.92c-8.82,4.68-17.32,9.09-25.71,13.68-9.47,5.18-18.95,10.35-28.24,15.84-8.8,5.2-18.73-1.93-20.01-10.5-1.23-8.27-2.89-16.48-4.34-24.72-1.42-8.09-2.81-16.19-4.32-24.97-5,3.96-9.61,7.57-14.17,11.25-6.71,5.41-13.42,10.81-20.04,16.32-2.02,1.68-3.1.76-4.39-.86-4.16-5.23-8.33-10.47-12.67-15.54-1.66-1.95-1.58-3.04.44-4.65,9.83-7.88,19.53-15.92,29.3-23.88,7.27-5.92,14.67-11.7,21.85-17.72,8.51-7.14,20.84-1.46,22.23,7.9,2.37,16.03,5.4,31.97,8.19,47.94.4,2.26.98,4.49,1.67,7.58,5.2-2.86,9.97-5.43,14.7-8.09,13.45-7.55,26.81-15.26,40.35-22.64,7.16-3.9,16.17-.08,18.2,7.89,2,7.83,2.79,15.97,4.69,23.83,2.76,11.46,6.04,22.79,9.33,35.06,4.63-2.97,8.39-5.31,12.08-7.76,11.34-7.54,22.52-15.34,34.06-22.55,3.67-2.3,8.19-3.9,12.48-4.38,7.08-.79,12.36,3.64,13.48,10.73,2.66,16.78,5.01,33.6,7.52,50.41.65,4.33,1.37,8.65,2.12,12.96.51,2.92-.27,4.57-3.57,4.98-6.12.75-12.21,1.8-18.29,2.83-3.02.51-4.41-.38-4.86-3.65-1.84-13.38-3.94-26.73-5.95-40.09-.11-.73-.25-1.46-.54-3.1-3.79,2.46-7.18,4.59-10.51,6.81-11.77,7.84-23.48,15.76-35.29,23.54-9.52,6.27-18.76,3.32-22.32-7.61-5.58-17.1-10.63-34.36-15.9-51.56-.45-1.46-.88-2.93-1.59-5.26Z" style="fill:#e5e5e5;"/><path d="M1342.4,255.96c7.7,11.13,17.25,21.07,28.29,29.61,3.99,3.08,4.01,3.08,1.06,7.17-3.53,4.9-7.21,9.7-10.59,14.7-1.72,2.55-3.28,2.3-5.37.68-13.7-10.64-25.85-22.78-35.6-37.18-1.75-2.59-3.38-3.02-6.33-2.44-22.19,4.31-42.02-1.58-61.04-13.16-17.33-10.55-29.4-25.76-40.87-41.79-1.49-2.09-2.8-4.32-4.39-6.33-1.98-2.5-1.71-4.15,1.13-5.85,4.96-2.96,9.76-6.21,14.57-9.42,4.2-2.8,4.33-2.72,7.31,1.22,6.58,8.72,12.86,17.71,20.01,25.94,9.15,10.51,20.15,18.92,33.72,22.9,5.92,1.74,12.31,1.85,19.56,2.85-1.01-3.07-1.51-4.86-2.19-6.57-6.71-16.9-11.29-34.23-10.57-52.6.59-15.07,5.61-28.22,17.62-37.95,14.92-12.1,36.45-11.68,48.76.82,7.68,7.8,11.32,17.58,11.86,28.23,1.16,22.85-3.41,44.62-14.75,64.59-3.03,5.33-7.94,9.59-12.18,14.57ZM1328.04,231.61c.67-.41,1.07-.53,1.29-.81.56-.69,1.08-1.43,1.55-2.19,7.41-11.86,10.18-25.14,11.32-38.78.47-5.57-.02-11.32-.83-16.87-.75-5.12-5.49-8.22-9.74-6.96-4.41,1.3-8.15,3.64-10.38,7.98-3.04,5.92-3.88,12.22-3.33,18.72,1.14,13.43,4.62,26.27,10.12,38.92Z" style="fill:#e5e5e5;"/><path d="M526.24,275.93c-.5,31.49-12.42,57.78-36.95,77.7-16.34,13.27-35.58,19.83-56.64,20.93-18.77.98-36.64-2.32-53.43-10.98-16.88-8.7-30.15-21.35-40.21-37.31-12.03-19.1-18.13-39.94-17.39-62.65.56-17.05,5.26-32.97,13.19-47.97,9.9-18.73,23.93-33.65,41.83-44.97,7.83-4.95,7.79-5.02,12.19,3.2,2.18,4.08,4.34,8.18,6.53,12.26,1.24,2.31,1.47,3.93-1.41,5.6-15.13,8.76-27.14,20.65-35.33,36.24-9.73,18.52-12.44,37.94-7.76,58.36,3.7,16.14,11.71,29.83,23.66,41.2,15.39,14.64,33.94,20.83,54.97,20.11,15.6-.53,29.87-5.06,42.38-14.52,12-9.08,19.64-21.15,24.07-35.44,4.36-14.06,4.73-28.1.27-42.16-.9-2.82-.33-4.23,2.51-5.24,6.06-2.15,12.04-4.52,18-6.94,2.52-1.02,3.71-.33,4.57,2.19,3.36,9.84,5.34,19.87,4.96,30.37Z" style="fill:#e5e5e5;"/><path d="M1461.74,64.55c-1.92-.32-3.72.98-4.09,2.89-.74,3.82-2.35,7.53-5,10.96-8.9,11.53-24.89,11.35-33.52-.42-4.8-6.54-7.05-13.92-8.05-21.78l42.79,7.05c2.31.38,4.36-1.53,4.14-3.87-.51-5.29-2.39-10.58-5.21-15.47-1.14-1.98-3.25-3.2-5.53-3.2l-57.8.1c-3.27,0-5.88,2.67-5.88,5.94-.01,17.01,3.33,33.28,14.21,47.41,9.54,12.37,21.98,19.97,37.84,20.05,22.73.11,43.97-18.21,48.33-40.37.59-2.99-1.44-5.87-4.44-6.37l-17.79-2.94Z" style="fill:#e5e5e5;"/><path d="M134.16,165.54c4.12.46,7.54.83,10.95,1.22,9.33,1.07,18.68,2.05,28,3.23,10.69,1.35,15.89,11.37,10.74,20.94-5.43,10.07-11.17,19.96-16.75,29.95-.73,1.3-1.31,2.68-2.25,4.62,2.13.1,3.62.23,5.1.23,14.05.03,28.09.03,42.14.04,12.06.01,17.96,6.52,15.22,18.27-2.33,9.98-5.94,19.69-9.28,29.41-2.88,8.38-6.29,16.58-9.26,24.93-1.05,2.95-2.48,3.24-5.22,2.25-5.56-2-11.21-3.8-16.91-5.38-3.74-1.04-4.55-2.8-3.14-6.4,4.07-10.43,7.86-20.96,11.82-31.43,1.73-4.58,1.53-4.95-3.5-4.96-16.24,0-32.49-.47-48.71.16-10.92.43-17.87-10.63-13.09-19.48,5.19-9.61,10.46-19.17,15.72-28.73,1.72-3.13,3.54-6.2,5.68-9.94-6.82-.71-13.02-1.23-19.19-2.02-7.9-1.01-15.81-2.01-23.65-3.42-8.73-1.57-12.23-11.84-8-19.38,11.2-19.95,22.92-39.61,34.26-59.48,1.59-2.79,3.21-2.88,5.54-1.52,5.66,3.31,11.26,6.7,16.95,9.95,1.99,1.14,2.34,2.23,1.12,4.32-6.29,10.76-12.45,21.6-18.63,32.42-1.83,3.2-3.58,6.44-5.66,10.2Z" style="fill:#e5e5e5;"/><path d="M474.43,254.72c-.15,17.72-4.14,31.13-14.31,42.22-10.66,11.63-24.19,15.66-39.29,12.71-16.48-3.22-29.5-12.21-36.83-27.69-8.13-17.16-8.42-34.26,4.08-49.7,8.5-10.5,20-14.96,33.58-13.51,2.22.24,4.2.73,3.4,3.78-1.68,6.47-3.16,13-5.1,19.38-.43,1.42-2.26,3.03-3.74,3.42-6.24,1.62-9.52,4.83-10.64,11.23-2.54,14.49,12.53,29.43,26.91,26.56,8.24-1.64,11.64-7.98,13.61-15.17,3.29-12.01.47-23.47-3.84-34.71-4.64-12.12-9.61-24.14-13.71-36.44-4.78-14.33-5.74-29.04-1.34-43.72,1.13-3.77,3.08-7.33,4.97-10.81.41-.76,2.58-1.45,3.26-1.04,6.38,3.84,12.65,7.87,18.82,12.04.64.43.9,2.39.5,3.25-5.72,12.28-3.49,24.5.68,36.45,4.1,11.76,9.12,23.19,13.44,34.87,3.55,9.59,5.81,19.49,5.54,26.9Z" style="fill:#e5e5e5;"/><path d="M887.39,123.56c-.63-7.24-.94-14.53-2.03-21.7-.59-3.84-.05-5.58,4.02-6.34,5.55-1.03,10.97-2.73,16.46-4.12,4.53-1.14,5.11-.72,5.89,3.79,2.04,11.86,3.19,23.75,1.13,35.72-.4,2.34.6,3.24,2.4,4.1,15.24,7.31,28.7,17.11,40.1,29.57,7.67,8.39,8.02,6.31-.68,13.48-3.37,2.78-6.83,5.45-10.06,8.37-2.49,2.25-4.08,1.91-6.24-.62-8.51-9.99-18.83-17.79-30.16-24.37-2.9-1.69-4.14-.99-5.71,1.58-7.34,12.04-17.9,19.46-32.08,20.71-19.09,1.69-36.62-15-33.39-34.91,1.96-12.04,14.6-24.12,27.51-25.15,7.11-.57,14.31-.1,22.84-.1ZM877.73,151.39c-.1-.55-.19-1.09-.29-1.64-3.56.37-7.16.52-10.64,1.25-1.09.23-1.85,2.04-2.76,3.13,1.27.9,2.48,2.45,3.82,2.58,4.38.44,7.28-2.29,9.87-5.32Z" style="fill:#e5e5e5;"/><path d="M1242.9,78.88c3.8,6.19,7.33,12.58,11.52,18.5,2.24,3.17,2.54,4.97-.76,7.47-4.5,3.41-8.59,7.35-12.88,11.04-3.54,3.04-4.25,2.93-6.96-.75-7.12-9.69-13.47-19.82-16.98-31.44-.69-2.28-1.99-2.63-3.98-2.59-16.9.27-33.32-2.47-49.08-8.53-10.61-4.07-9.99-2.06-5.42-12.36,1.77-3.99,3.68-7.93,5.26-11.99,1.22-3.12,2.8-3.54,5.86-2.24,12.08,5.13,24.79,7.5,37.87,8.32,3.35.21,4.15-.96,4.4-3.96,1.18-14.05,7.31-25.41,19.44-32.87,16.32-10.05,39.47-2.95,45.48,16.3,3.63,11.65-2.28,28.1-13.37,34.79-6.11,3.69-12.76,6.49-20.39,10.3ZM1239.09,49.67c.33.45.66.89.99,1.34,3.01-1.92,6.17-3.66,8.96-5.88.87-.69.74-2.65,1.07-4.03-1.54-.24-3.31-1.08-4.57-.6-4.12,1.57-5.49,5.3-6.45,9.17Z" style="fill:#e5e5e5;"/><path d="M134.54,302.97c-.2,25.56-21.22,43.13-44.15,43.34-22.58.2-41.92-20.31-41.72-43.9.19-22.09,17.84-41.43,41.24-41.2,24.73.25,44.69,18.78,44.63,41.76ZM90.98,319.22c9.2-.14,16.93-7.8,16.82-16.67-.09-7.63-8.43-14.31-17.79-14.24-8.82.06-14.51,6.06-14.32,15.11.18,8.54,7.32,15.93,15.28,15.81Z" style="fill:#e5e5e5;"/><path d="M1425.41,191.87c.17,20.91-4.53,39.17-14.33,55.94-3.28,5.62-7.63,10.63-11.7,15.75-.54.68-2.79.95-3.47.42-5.75-4.49-11.37-9.16-16.85-13.98-.42-.37.19-2.54.88-3.45,6.93-9.08,12.19-18.99,15.31-30,5.86-20.69,4.13-40.72-5.19-60.11-4.86-10.1-11.4-18.95-19.9-26.22-2.88-2.46-2.75-4.13-.44-6.8,4.04-4.66,7.81-9.55,11.55-14.45,1.83-2.4,3.35-2.06,5.39-.28,10.79,9.41,19.67,20.35,26.24,33.05,8.34,16.14,12.86,33.28,12.52,50.13Z" style="fill:#e5e5e5;"/><path d="M1008.4,169.97c-7.83-2.98-15.14-5.14-21.9-8.44-16.89-8.25-29.96-20.8-38.67-37.49-8.84-16.94-11.61-34.94-8.37-53.91,2.02-11.84,6.13-22.75,12.38-32.98,1.81-2.97,3.45-3.31,6.13-1.31,5.06,3.77,10.18,7.44,15.35,11.05,2.18,1.52,2.66,2.77,1.03,5.32-13.32,20.85-12.71,48.89,3.31,68.59,8.26,10.15,18.47,17.32,31.25,20.7,6.18,1.64,6.21,2,4.94,8.21-1.09,5.29-1.86,10.65-2.98,15.93-.28,1.32-1.38,2.47-2.48,4.33Z" style="fill:#e5e5e5;"/><path d="M308.85,33.3c8.27-1.3,15.7-3.05,23.2-3.54,18.76-1.22,36.34,3.18,52.18,13.35,16.09,10.32,27.43,24.56,34.03,42.64,4.12,11.29,5.97,22.79,5.62,34.77-.1,3.47-1.35,4.59-4.67,4.18-6.26-.76-12.53-1.4-18.81-1.97-2.65-.24-3.69-1.08-3.54-4.11,1.21-24.71-13.24-48.75-36.92-57.9-12.21-4.72-24.63-5.86-37.4-2.45-6.18,1.65-6.39,1.34-8.36-4.67-1.68-5.13-3.68-10.16-5.32-15.31-.41-1.29-.03-2.83,0-4.99Z" style="fill:#e5e5e5;"/><path d="M1365.6,41.69c-1.94,7.04-3.3,13.49-5.48,19.65-6.99,19.79-17.78,37.31-32.5,52.33-10.33,10.55-21.95,19.38-35.07,26.23-2.9,1.51-4.3.98-5.61-1.92-2.54-5.63-5.31-11.15-8.09-16.66-1.26-2.51-1.08-4.03,1.72-5.53,24.02-12.89,41.2-32.13,51.85-57.11,2.65-6.23,4.13-12.97,5.91-19.54.7-2.57,1.58-3.68,4.5-3.05,6.54,1.41,13.17,2.39,19.73,3.71,1.11.22,2.05,1.25,3.04,1.89Z" style="fill:#e5e5e5;"/></svg>