<?xml version="1.0" encoding="UTF-8"?><svg id="Calque_1" xmlns="http://www.w3.org/2000/svg" viewBox="0 0 1184 549.22"><polyline points="1041.8 43.95 163.56 43.95 163.56 63.46 1041.8 63.46" style="fill:#fc638d;"/><polyline points="1041.8 226.61 734.42 226.61 734.42 246.12 1041.8 246.12" style="fill:#fc8563;"/><polyline points="1041.8 409.27 934.02 409.27 934.02 428.77 1041.8 428.77" style="fill:#65dbd1;"/><path d="M1096.68,437.76c-6.67,0-12.32-1.09-16.96-3.28v-25.68c2.08,1.6,4.63,2.87,7.64,3.8,3.01.93,5.77,1.4,8.28,1.4,4.27,0,6.4-.51,6.4-1.52,0-.64-.75-1.07-2.24-1.28-1.49-.21-3.32-.45-5.48-.72-2.16-.27-4.32-.77-6.48-1.52-2.16-.75-3.99-2.25-5.48-4.52-1.49-2.27-2.24-5.21-2.24-8.84,0-5.23,1.77-9.24,5.32-12.04,3.55-2.8,8.2-4.2,13.96-4.2,2.72,0,5.55.4,8.48,1.2,2.93.8,5.28,1.81,7.04,3.04l-2.16,23.76c-3.57-2.67-7.68-4-12.32-4s-6.64.61-6.64,1.84c0,.53.41.93,1.24,1.2.83.27,1.89.45,3.2.56,1.31.11,2.75.23,4.32.36,1.57.13,3.15.48,4.72,1.04,1.57.56,3.01,1.31,4.32,2.24,1.31.93,2.37,2.32,3.2,4.16.83,1.84,1.24,4.04,1.24,6.6,0,5.28-1.81,9.33-5.44,12.16-3.63,2.83-8.27,4.24-13.92,4.24Z" style="fill:#65dbd1;"/><path d="M1133.72,436.56h-14.96v-56h14.96c7.04,0,12.51,2.39,16.4,7.16,3.89,4.77,5.84,11.69,5.84,20.76s-1.96,16.01-5.88,20.84c-3.92,4.83-9.37,7.24-16.36,7.24ZM1136.2,404.88h-3.84v7.36h3.84c4.32,0,6.48-1.23,6.48-3.68s-2.16-3.68-6.48-3.68Z" style="fill:#65dbd1;"/><path d="M1095.88,253.91h-16v-56h16l-1.84,23.28h6.24l-1.84-23.28h15.84v56h-15.84l1.84-23.76h-6.24l1.84,23.76Z" style="fill:#fc8563;"/><path d="M1133.72,253.91h-14.96v-56h14.96c7.04,0,12.51,2.39,16.4,7.16,3.89,4.77,5.84,11.69,5.84,20.76s-1.96,16.01-5.88,20.84c-3.92,4.83-9.37,7.24-16.36,7.24ZM1136.2,222.23h-3.84v7.36h3.84c4.32,0,6.48-1.23,6.48-3.68s-2.16-3.68-6.48-3.68Z" style="fill:#fc8563;"/><path d="M1109.56,71.25h-13.44v-10h-22.16v-9.44l25.04-36.56h10.56v28.56h7.2v17.36h-7.2v10.08ZM1096.12,33.01l-7.12,10.88h7.12v-10.88Z" style="fill:#fc638d;"/><path d="M1136.12,71.25h-16.08V15.25h14.48l-1.28,25.12h.88l3.28-25.12h19.04l-19.36,28.4.88.72c2.19-4.27,4.51-6.4,6.96-6.4,4.53,0,7.72,3,9.56,9,1.84,6,2.31,14.09,1.4,24.28h-17.92c.85-3.2,1.47-6.69,1.84-10.48.37-3.79.27-7.19-.32-10.2-.59-3.01-1.71-4.52-3.36-4.52-.96,0-1.67.49-2.12,1.48-.45.99-.57,2.33-.36,4.04l2.48,19.68Z" style="fill:#fc638d;"/><path d="M58.21,176.35H22.53v-19.84l12.48-6.72c4.37-2.4,6.56-4.59,6.56-6.56,0-.69-.45-1.29-1.36-1.8-.91-.51-2.27-.76-4.08-.76-4.05,0-8.32.67-12.8,2v-20.8c4-1.81,9.31-2.72,15.92-2.72,5.07,0,9.17,1.36,12.32,4.08,3.15,2.72,4.72,6.45,4.72,11.2,0,7.31-2.77,12.75-8.32,16.32l-6.24,4.08v.88h16.48v20.64Z" style="fill:#fc638d;"/><path d="M69.01,187.47l-4.64-3.76c1.33-.69,2.65-1.79,3.96-3.28,1.31-1.49,2.12-2.93,2.44-4.32-.48.16-1.01.24-1.6.24-1.6,0-2.96-.57-4.08-1.72-1.12-1.15-1.68-2.6-1.68-4.36s.67-3.39,2-4.72c1.33-1.33,2.91-2,4.72-2,2.08,0,3.84.77,5.28,2.32,1.44,1.55,2.16,3.65,2.16,6.32,0,6.13-2.85,11.23-8.56,15.28Z" style="fill:#fc638d;"/><path d="M117.81,176.35h-35.68v-19.84l12.48-6.72c4.37-2.4,6.56-4.59,6.56-6.56,0-.69-.45-1.29-1.36-1.8-.91-.51-2.27-.76-4.08-.76-4.05,0-8.32.67-12.8,2v-20.8c4-1.81,9.31-2.72,15.92-2.72,5.07,0,9.17,1.36,12.32,4.08,3.15,2.72,4.72,6.45,4.72,11.2,0,7.31-2.77,12.75-8.32,16.32l-6.24,4.08v.88h16.48v20.64Z" style="fill:#fc638d;"/><path d="M148.61,176.35h-14.56v-56h14.8l-2.4,32h.88l3.92-16h20.08l-21.76,19.28.72.72c1.97-2.93,4.24-4.4,6.8-4.4,4.59,0,8.03,2.27,10.32,6.8,2.29,4.53,3.25,10.4,2.88,17.6h-18.32c.21-1.01.43-2.08.64-3.2.21-1.12.41-2.43.6-3.92.19-1.49.25-2.89.2-4.2-.05-1.31-.17-2.52-.36-3.64-.19-1.12-.59-2.01-1.2-2.68-.61-.67-1.37-1-2.28-1-1.01,0-1.73.53-2.16,1.6-.43,1.07-.53,2.43-.32,4.08l1.52,12.96Z" style="fill:#fc638d;"/><path d="M215.65,176.35h-16.4l-3.12-30.56h-.64l-3.12,30.56h-16.4l-4.72-56h17.92l-2.16,31.92.88.16,5.04-29.44h5.68l5.12,29.44.88-.16-2.16-31.92h17.92l-4.72,56Z" style="fill:#fc638d;"/><path d="M236.05,176.35h-13.92v-56h15.52l-3.36,32h1.04c0-2.24.17-4.33.52-6.28.35-1.95.88-3.76,1.6-5.44.72-1.68,1.76-3.01,3.12-4,1.36-.99,2.95-1.48,4.76-1.48,2.99,0,5.07,1.27,6.24,3.8,1.17,2.53,1.76,6.55,1.76,12.04v25.36h-15.2l1.44-15.6c.32-1.6.39-3.15.2-4.64-.19-1.49-.92-2.24-2.2-2.24-2.45,0-3.41,2.64-2.88,7.92l1.36,14.56Z" style="fill:#fc638d;"/><path d="M729.7,354.88c-5.92,0-10.6-2.49-14.04-7.48-3.44-4.99-5.16-12.23-5.16-21.72s1.72-16.8,5.16-21.76c3.44-4.96,8.12-7.44,14.04-7.44s10.53,2.48,14,7.44,5.2,12.21,5.2,21.76-1.73,16.73-5.2,21.72c-3.47,4.99-8.13,7.48-14,7.48ZM729.7,331.68c3.68,0,5.52-2,5.52-6s-1.84-6.08-5.52-6.08-5.6,2.03-5.6,6.08,1.87,6,5.6,6Z" style="fill:#fc8563;"/><path d="M759.78,364.8l-4.64-3.76c1.33-.69,2.65-1.79,3.96-3.28,1.31-1.49,2.12-2.93,2.44-4.32-.48.16-1.01.24-1.6.24-1.6,0-2.96-.57-4.08-1.72-1.12-1.15-1.68-2.6-1.68-4.36s.67-3.39,2-4.72c1.33-1.33,2.91-2,4.72-2,2.08,0,3.84.77,5.28,2.32,1.44,1.55,2.16,3.65,2.16,6.32,0,6.13-2.85,11.23-8.56,15.28Z" style="fill:#fc8563;"/><path d="M790.02,353.68h-14.56l16.24-34.72h-18.32v-21.28h32.88v19.12l-16.24,36.88Z" style="fill:#fc8563;"/><path d="M826.34,353.68h-14.56l16.24-34.72h-18.32v-21.28h32.88v19.12l-16.24,36.88Z" style="fill:#fc8563;"/><path d="M935.22,525.55c-5.92,0-10.6-2.49-14.04-7.48-3.44-4.99-5.16-12.23-5.16-21.72s1.72-16.8,5.16-21.76c3.44-4.96,8.12-7.44,14.04-7.44s10.53,2.48,14,7.44c3.47,4.96,5.2,12.21,5.2,21.76s-1.73,16.73-5.2,21.72c-3.47,4.99-8.13,7.48-14,7.48ZM935.22,502.35c3.68,0,5.52-2,5.52-6s-1.84-6.08-5.52-6.08-5.6,2.03-5.6,6.08,1.87,6,5.6,6Z" style="fill:#65dbd1;"/><path d="M965.3,535.47l-4.64-3.76c1.33-.69,2.65-1.79,3.96-3.28,1.31-1.49,2.12-2.93,2.44-4.32-.48.16-1.01.24-1.6.24-1.6,0-2.96-.57-4.08-1.72-1.12-1.15-1.68-2.6-1.68-4.36s.67-3.39,2-4.72c1.33-1.33,2.91-2,4.72-2,2.08,0,3.84.77,5.28,2.32,1.44,1.55,2.16,3.65,2.16,6.32,0,6.13-2.85,11.23-8.56,15.28Z" style="fill:#65dbd1;"/><path d="M1014.1,524.35h-35.68v-19.84l12.48-6.72c4.37-2.4,6.56-4.59,6.56-6.56,0-.69-.45-1.29-1.36-1.8-.91-.51-2.27-.76-4.08-.76-4.05,0-8.32.67-12.8,2v-20.8c4-1.81,9.31-2.72,15.92-2.72,5.07,0,9.17,1.36,12.32,4.08,3.15,2.72,4.72,6.45,4.72,11.2,0,7.31-2.77,12.75-8.32,16.32l-6.24,4.08v.88h16.48v20.64Z" style="fill:#65dbd1;"/><path d="M1034.34,524.35h-14.56l16.24-34.72h-18.32v-21.28h32.88v19.12l-16.24,36.88Z" style="fill:#65dbd1;"/><circle cx="911.43" cy="418.1" r="24.89" style="fill:#65dbd1;"/><circle cx="712.54" cy="235.56" r="24.89" style="fill:#fc8563;"/><circle cx="141.1" cy="52.45" r="24.89" style="fill:#fc638d;"/></svg>