<?xml version="1.0" encoding="UTF-8"?><svg id="Calque_1" xmlns="http://www.w3.org/2000/svg" viewBox="0 0 238.01 253.24"><path d="M18.74.25l204.79-.25c9.55,1.15,14.94,12.36,10.67,20.71-34.55,54.14-62.65,114.92-97.38,168.62-7.7,11.91-16.87,15.88-27.24,3.63L11.85,23.69C6.24,15.2,8.34,3.44,18.74.25Z" style="fill:#d6ea79;"/><path d="M124,232.02l99.61-154.91c4.65-7.61,14.28-5.92,14.4,3.31-34.7,57.34-72.98,112.65-108.56,169.53-2.5,4.4-9.32,4.21-12.28.42C81.48,195.4,40.4,143.72,4.79,88.74,3.45,86.67.14,82.65.01,80.45c-.43-7.22,8.51-11.01,13.43-5.36l108.13,155.87,2.43,1.05Z" style="fill:#d6ea79;"/></svg>