<svg width="380" height="208" viewBox="0 0 380 208" fill="none" xmlns="http://www.w3.org/2000/svg">
<g clip-path="url(#clip0_386_33)">
<path d="M77.88 84.9702C77.36 84.9702 76.94 85.3902 76.94 85.9102V105.31C76.94 105.83 77.36 106.25 77.88 106.25H109.4C109.92 106.25 110.34 105.83 110.34 105.31V85.9102C110.34 85.3902 109.92 84.9702 109.4 84.9702H77.88ZM108.13 104.15H79.08V87.0102H108.13V104.15Z" fill="#FC638D"/>
<path d="M110.01 106.65H77.28C77.06 106.65 76.85 106.74 76.69 106.89L73.39 109.99C72.71 110.63 73.1 111.9 73.98 111.9H113.31C114.19 111.9 114.59 110.63 113.9 109.99L110.6 106.89C110.43 106.73 110.22 106.65 110.01 106.65Z" fill="#FC638D"/>
<path d="M17.73 46.24H23.18C27.55 46.24 31.09 49.78 31.09 54.15V60.7C31.09 65.07 27.55 68.61 23.18 68.61H17.73V46.24Z" fill="#FC8563"/>
<path d="M17.73 87.25H60.87C65.24 87.25 68.78 90.79 68.78 95.16V101.71C68.78 106.08 65.24 109.62 60.87 109.62H17.73V87.25Z" fill="#FC638D"/>
<path d="M17.73 128.27H235.53C239.9 128.27 243.44 131.81 243.44 136.18V142.73C243.44 147.1 239.9 150.64 235.53 150.64H17.73V128.27Z" fill="#8D79EA"/>
<path d="M17.73 169.29H279C283.37 169.29 286.91 172.83 286.91 177.2V183.75C286.91 188.12 283.37 191.66 279 191.66H17.73V169.29Z" fill="#9EEACE"/>
<path d="M53.52 43.04H41.36C40.13 43.04 39.14 44.04 39.14 45.26V69.57C39.14 70.8 40.14 71.79 41.36 71.79H53.52C54.75 71.79 55.74 70.79 55.74 69.57V45.26C55.74 44.03 54.74 43.04 53.52 43.04ZM45.86 44.88C45.86 44.7 46 44.56 46.18 44.56H49.89C50.07 44.56 50.21 44.7 50.21 44.88V45.06C50.21 45.24 50.07 45.38 49.89 45.38H46.18C46 45.38 45.86 45.24 45.86 45.06V44.88ZM45.04 44.59C45.25 44.59 45.42 44.76 45.42 44.97C45.42 45.18 45.25 45.35 45.04 45.35C44.83 45.35 44.66 45.18 44.66 44.97C44.66 44.76 44.83 44.59 45.04 44.59ZM47.44 70.57C46.71 70.57 46.13 69.98 46.13 69.26C46.13 68.54 46.72 67.95 47.44 67.95C48.17 67.95 48.75 68.54 48.75 69.26C48.75 69.98 48.16 70.57 47.44 70.57ZM54.32 65.57C54.32 66.13 53.86 66.59 53.3 66.59H41.57C41.01 66.59 40.55 66.13 40.55 65.57V47.55C40.55 46.99 41.01 46.53 41.57 46.53H53.3C53.86 46.53 54.32 46.99 54.32 47.55V65.57Z" fill="#FC8563"/>
<path d="M283.26 148.63C283.007 146.203 282.56 141.887 281.92 135.68C281.53 131.64 278.13 128.48 273.98 128.48C272.37 128.48 270.87 128.96 269.61 129.78C266.79 131.09 264.28 131.09 261.46 129.78C260.2 128.96 258.7 128.48 257.09 128.48C252.95 128.48 249.54 131.64 249.15 135.68C248.51 141.88 248.063 146.197 247.81 148.63C247.8 148.74 247.79 148.85 247.79 148.96C247.79 150.68 249.18 152.07 250.9 152.07C251.73 152.07 252.48 151.75 253.03 151.22C254.92 149.44 255.47 148.92 258.07 146.47C263.31 144.81 267.73 144.81 272.98 146.47C275.57 148.91 276.12 149.43 278.02 151.22C278.58 151.75 279.33 152.07 280.15 152.07C281.87 152.07 283.26 150.68 283.26 148.96C283.26 148.85 283.26 148.74 283.24 148.63H283.26ZM260.31 139.12C261.12 139.44 261.76 140.09 262.07 140.91H260.31V139.12ZM251.93 134.98C251.93 133.31 253.28 131.96 254.95 131.96C256.62 131.96 257.97 133.31 257.97 134.98C257.97 136.65 256.62 138 254.95 138C253.28 138 251.93 136.65 251.93 134.98ZM258.05 139.11V140.91H256.25C256.57 140.08 257.22 139.43 258.05 139.11ZM258.05 144.92C257.24 144.61 256.59 143.97 256.27 143.16H258.05V144.92ZM260.31 144.91V143.17H262.05C261.73 143.96 261.1 144.6 260.31 144.91ZM262.42 142.6C262.42 142.75 262.3 142.87 262.15 142.87H260.01V145.01C260.01 145.16 259.89 145.28 259.74 145.28H258.6C258.45 145.28 258.33 145.16 258.33 145.01V142.87H256.19C256.04 142.87 255.92 142.75 255.92 142.6V141.46C255.92 141.31 256.04 141.19 256.19 141.19H258.33V139.05C258.33 138.9 258.45 138.78 258.6 138.78H259.74C259.89 138.78 260.01 138.9 260.01 139.05V141.19H262.15C262.3 141.19 262.42 141.31 262.42 141.46V142.6ZM265.52 137.53C264.53 137.53 263.72 136.73 263.72 135.73C263.72 134.73 264.52 133.93 265.52 133.93C266.52 133.93 267.32 134.73 267.32 135.73C267.32 136.73 266.52 137.53 265.52 137.53ZM271.09 144.75C269.6 144.75 268.4 143.54 268.4 142.06C268.4 140.58 269.61 139.37 271.09 139.37C272.57 139.37 273.78 140.58 273.78 142.06C273.78 143.54 272.57 144.75 271.09 144.75ZM273.45 136.55C272.74 136.55 272.16 135.97 272.16 135.26C272.16 134.55 272.74 133.97 273.45 133.97C274.16 133.97 274.74 134.55 274.74 135.26C274.74 135.97 274.16 136.55 273.45 136.55ZM276.35 139.46C275.64 139.46 275.06 138.88 275.06 138.17C275.06 137.46 275.64 136.88 276.35 136.88C277.06 136.88 277.64 137.46 277.64 138.17C277.64 138.88 277.06 139.46 276.35 139.46ZM276.35 133.65C275.64 133.65 275.06 133.07 275.06 132.36C275.06 131.65 275.64 131.07 276.35 131.07C277.06 131.07 277.64 131.65 277.64 132.36C277.64 133.07 277.06 133.65 276.35 133.65ZM279.25 136.55C278.54 136.55 277.96 135.97 277.96 135.26C277.96 134.55 278.54 133.97 279.25 133.97C279.96 133.97 280.54 134.55 280.54 135.26C280.54 135.97 279.96 136.55 279.25 136.55Z" fill="#8D79EA"/>
<path d="M319.11 188.9H321.4C321.89 188.9 322.78 188.17 323.01 187.73H330.1C330.39 187.73 330.39 186.83 330.1 186.83H323.33V185.31H330.1C330.39 185.31 330.39 184.41 330.1 184.41H323.33V182.89H330.01C330.45 182.89 330.37 181.99 330.1 181.99H323.33V172.44C323.33 171.69 322.06 170.42 321.31 170.42H319.11V165.8C319.11 165.74 319.42 165.1 319.48 165.01C319.77 164.58 320.25 164.3 320.77 164.23C323.81 164.48 327.39 163.9 330.37 164.23C331.24 164.33 331.98 165.1 332.03 165.97V189.74C331.98 190.84 331.25 191.53 330.18 191.65C327.35 191.98 323.94 191.42 321.04 191.65C319.55 191.47 318.92 190.28 319.11 188.87V188.9ZM326.73 166.22H324.49V168.1H326.6L326.73 167.97V166.22ZM328.23 178.43C328.01 178.48 327.83 178.66 327.83 178.89C327.88 179.61 329.85 179.49 330.14 179.26C330.43 179.03 330.43 178.57 330.06 178.45C329.81 178.37 328.5 178.37 328.24 178.43H328.23ZM328.14 180.04C327.74 180.16 327.76 180.79 328.14 180.9C328.32 180.95 329.79 180.96 330 180.91C330.34 180.85 330.36 180.54 330.3 180.26C330.19 179.94 328.43 179.95 328.13 180.04H328.14Z" fill="#9EEACE"/>
<path d="M297.2 171.35L320.77 171.32C321.82 171.41 322.34 171.93 322.43 172.98C322.8 177.27 322.14 182.09 322.43 186.44C322.33 187.37 321.91 187.92 320.95 188.01H297.35C296.67 187.97 295.96 187.52 295.87 186.8V172.54C296.01 171.87 296.52 171.45 297.2 171.36V171.35ZM297.29 172.51L297.09 172.67V186.65L297.32 186.87H320.91L321.13 186.74L321.17 179.97C321.27 179.58 321.27 179.29 321.17 178.9C321 177.03 321.41 174.7 321.17 172.89C321.15 172.74 321.14 172.62 320.99 172.54L297.29 172.51Z" fill="#9EEACE"/>
<path d="M304.18 190.42L305.56 188.84L305.96 188.71L312.49 188.73L314.07 190.38L317.76 190.46C317.89 190.55 317.97 191.68 317.6 191.75L300.5 191.69C300.25 191.53 300.34 190.7 300.44 190.43H304.16L304.18 190.42Z" fill="#9EEACE"/>
<path d="M1.06284e-05 40.32C0.360011 86.94 0.730011 133.57 1.09001 180.19C1.15001 187.42 1.20001 194.65 1.26001 201.88C1.29001 205.12 3.99001 207.89 7.26001 207.88C41.83 207.76 76.4 207.64 110.97 207.52C159.34 207.35 207.71 207.18 256.08 207.02C266.84 206.98 277.6 206.95 288.37 206.91C296.09 206.88 296.11 194.88 288.37 194.91C258.48 195.01 228.59 195.12 198.7 195.22C149.01 195.39 99.32 195.56 49.63 195.74C35.51 195.79 21.38 195.84 7.26001 195.89L13.26 201.89C12.89 154.75 12.53 107.62 12.16 60.48C12.11 53.76 12.06 47.04 12 40.32C11.94 32.61 -0.0599894 32.59 1.06284e-05 40.32Z" fill="#F8E2D8"/>
<path d="M28.04 50.4002C30.27 47.2902 32.49 44.1902 34.72 41.0802C35.85 39.5102 33.25 38.0102 32.13 39.5702C29.9 42.6802 27.68 45.7802 25.45 48.8902C24.32 50.4602 26.92 51.9602 28.04 50.4002Z" fill="#FC8563"/>
<path d="M44.632 33.48C41.0267 33.48 37.9547 33.1707 35.416 32.552V24.36C37.6987 24.9147 40.2054 25.192 42.936 25.192C44.216 25.192 45.3574 25.0427 46.36 24.744C47.384 24.4453 47.896 24.0933 47.896 23.688C47.896 22.856 46.6907 22.3867 44.28 22.28C42.68 22.2373 41.3147 22.3333 40.184 22.568L39.672 20.712L45.688 18.984V18.6L36.376 18.728V10.6H54.904V18.504L49.304 20.456V20.744C51.5654 20.8293 53.272 21.384 54.424 22.408C55.576 23.432 56.152 24.712 56.152 26.248C56.152 28.4667 55.0534 30.2267 52.856 31.528C50.68 32.8293 47.9387 33.48 44.632 33.48Z" fill="#FC8563"/>
<path d="M66.38 89.4402C68.61 86.3302 70.83 83.2302 73.06 80.1202C74.19 78.5502 71.59 77.0502 70.47 78.6102C68.24 81.7202 66.02 84.8202 63.79 87.9302C62.66 89.5002 65.26 91.0002 66.38 89.4402Z" fill="#FC638D"/>
<path d="M98.696 74H77.576V66.064L84.968 63.376C87.5494 62.416 88.84 61.5413 88.84 60.752C88.84 60.4747 88.5627 60.24 88.008 60.048C87.4747 59.8347 86.6854 59.728 85.64 59.728C83.2294 59.728 80.7014 59.9947 78.056 60.528V52.208C80.424 51.4827 83.56 51.12 87.464 51.12C90.4507 51.12 92.872 51.664 94.728 52.752C96.6054 53.84 97.544 55.3333 97.544 57.232C97.544 60.1333 95.9014 62.3093 92.616 63.76L88.84 65.424V65.744H98.696V74ZM121.071 74H99.951V66.064L107.343 63.376C109.924 62.416 111.215 61.5413 111.215 60.752C111.215 60.4747 110.938 60.24 110.383 60.048C109.85 59.8347 109.06 59.728 108.015 59.728C105.604 59.728 103.076 59.9947 100.431 60.528V52.208C102.799 51.4827 105.935 51.12 109.839 51.12C112.826 51.12 115.247 51.664 117.103 52.752C118.98 53.84 119.919 55.3333 119.919 57.232C119.919 60.1333 118.276 62.3093 114.991 63.76L111.215 65.424V65.744H121.071V74Z" fill="#FC638D"/>
<path d="M240.84 132.44C243.07 129.33 245.29 126.23 247.52 123.12C248.65 121.55 246.05 120.05 244.93 121.61C242.7 124.72 240.48 127.82 238.25 130.93C237.12 132.5 239.72 134 240.84 132.44Z" fill="#8D79EA"/>
<path d="M257.304 118H249.4V105.392H243.768V95.6H257.304V118ZM271.127 118.48C267.628 118.48 264.855 117.488 262.807 115.504C260.78 113.499 259.767 110.597 259.767 106.8C259.767 102.981 260.78 100.08 262.807 98.096C264.855 96.112 267.628 95.12 271.127 95.12C274.604 95.12 277.367 96.112 279.415 98.096C281.463 100.08 282.487 102.981 282.487 106.8C282.487 110.597 281.463 113.499 279.415 115.504C277.367 117.488 274.604 118.48 271.127 118.48ZM271.127 109.2C273.303 109.2 274.391 108.4 274.391 106.8C274.391 105.179 273.303 104.368 271.127 104.368C268.908 104.368 267.799 105.179 267.799 106.8C267.799 108.4 268.908 109.2 271.127 109.2ZM292.82 118.48C289.214 118.48 286.142 118.171 283.604 117.552V109.36C285.886 109.915 288.393 110.192 291.124 110.192C292.404 110.192 293.545 110.043 294.548 109.744C295.572 109.445 296.084 109.093 296.084 108.688C296.084 107.856 294.878 107.387 292.468 107.28C290.868 107.237 289.502 107.333 288.372 107.568L287.86 105.712L293.876 103.984V103.6L284.564 103.728V95.6H303.092V103.504L297.492 105.456V105.744C299.753 105.829 301.46 106.384 302.612 107.408C303.764 108.432 304.34 109.712 304.34 111.248C304.34 113.467 303.241 115.227 301.044 116.528C298.868 117.829 296.126 118.48 292.82 118.48Z" fill="#8D79EA"/>
<path d="M283.27 173.46C285.5 170.35 287.72 167.25 289.95 164.14C291.08 162.57 288.48 161.07 287.36 162.63C285.13 165.74 282.91 168.84 280.68 171.95C279.55 173.52 282.15 175.02 283.27 173.46Z" fill="#9EEACE"/>
<path d="M306.304 158H298.4V145.392H292.768V135.6H306.304V158ZM329.759 158H308.639V150.064L316.031 147.376C318.612 146.416 319.903 145.541 319.903 144.752C319.903 144.475 319.625 144.24 319.071 144.048C318.537 143.835 317.748 143.728 316.703 143.728C314.292 143.728 311.764 143.995 309.119 144.528V136.208C311.487 135.483 314.623 135.12 318.527 135.12C321.513 135.12 323.935 135.664 325.791 136.752C327.668 137.84 328.607 139.333 328.607 141.232C328.607 144.133 326.964 146.309 323.679 147.76L319.903 149.424V149.744H329.759V158ZM340.07 158.48C336.464 158.48 333.392 158.171 330.854 157.552V149.36C333.136 149.915 335.643 150.192 338.374 150.192C339.654 150.192 340.795 150.043 341.798 149.744C342.822 149.445 343.334 149.093 343.334 148.688C343.334 147.856 342.128 147.387 339.718 147.28C338.118 147.237 336.752 147.333 335.622 147.568L335.11 145.712L341.126 143.984V143.6L331.814 143.728V135.6H350.342V143.504L344.742 145.456V145.744C347.003 145.829 348.71 146.384 349.862 147.408C351.014 148.432 351.59 149.712 351.59 151.248C351.59 153.467 350.491 155.227 348.294 156.528C346.118 157.829 343.376 158.48 340.07 158.48Z" fill="#9EEACE"/>
</g>
<defs>
<clipPath id="clip0_386_33">
<rect width="379.54" height="207.89" fill="white"/>
</clipPath>
</defs>
</svg>
