<?xml version="1.0" encoding="UTF-8"?><svg id="Calque_1" xmlns="http://www.w3.org/2000/svg" viewBox="0 0 399.42 449.17"><path d="M12.08,67.62h56.23c5.19,0,9.41,4.22,9.41,9.41v367.46H2.67V77.03c0-5.19,4.22-9.41,9.41-9.41Z" style="fill:#9eeace;"/><path d="M116.15,125.43h56.23c5.19,0,9.41,4.22,9.41,9.41v309.65h-75.05V134.84c0-5.19,4.22-9.41,9.41-9.41Z" style="fill:#9eeace;"/><path d="M220.27,284.96h56.23c5.19,0,9.41,4.22,9.41,9.41v150.12h-75.05v-150.12c0-5.19,4.22-9.41,9.41-9.41Z" style="fill:#9eeace;"/><path d="M324.39,361.93h56.23c5.19,0,9.41,4.22,9.41,9.41v73.15h-75.05v-73.15c0-5.19,4.22-9.41,9.41-9.41Z" style="fill:#9eeace;"/><path d="M48.67,290.12c0,2.2-.28,4.09-.84,5.66h-7.42c.5-1.41.75-2.95.75-4.61,0-.79-.13-1.5-.41-2.12-.27-.62-.59-.93-.96-.93-.75,0-1.18.75-1.28,2.23-.02.66,0,1.42.03,2.29l-1.45.38-1.51-3.68h-.29v5.86h-7.37v-11.37h7.16l1.89,3.65h.23c.15-1.37.68-2.45,1.57-3.23.89-.78,2-1.17,3.33-1.17,2.01,0,3.61.67,4.79,2.02,1.18,1.34,1.77,3.02,1.77,5.03Z" style="fill:#8d79ea;"/><path d="M48.67,274.93c0,2.15-.9,3.84-2.71,5.09s-4.43,1.87-7.87,1.87-6.09-.62-7.89-1.87-2.7-2.94-2.7-5.09.9-3.82,2.7-5.08,4.43-1.88,7.89-1.88,6.07.63,7.87,1.88,2.71,2.95,2.71,5.08ZM40.26,274.93c0-1.33-.73-2-2.17-2s-2.2.67-2.2,2,.73,2.03,2.2,2.03,2.17-.68,2.17-2.03Z" style="fill:#8d79ea;"/><path d="M48.67,259.73c0,2.15-.9,3.84-2.71,5.09s-4.43,1.87-7.87,1.87-6.09-.62-7.89-1.87-2.7-2.94-2.7-5.09.9-3.82,2.7-5.08,4.43-1.88,7.89-1.88,6.07.63,7.87,1.88,2.71,2.95,2.71,5.08ZM40.26,259.73c0-1.33-.73-2-2.17-2s-2.2.67-2.2,2,.73,2.03,2.2,2.03,2.17-.68,2.17-2.03Z" style="fill:#8d79ea;"/><path d="M48.67,239.9c0,2.15-.9,3.84-2.71,5.09s-4.43,1.87-7.87,1.87-6.09-.62-7.89-1.87-2.7-2.94-2.7-5.09.9-3.82,2.7-5.08,4.43-1.88,7.89-1.88,6.07.63,7.87,1.88,2.71,2.95,2.71,5.08ZM40.26,239.9c0-1.33-.73-2-2.17-2s-2.2.67-2.2,2,.73,2.03,2.2,2.03,2.17-.68,2.17-2.03Z" style="fill:#8d79ea;"/><path d="M48.67,224.7c0,2.15-.9,3.84-2.71,5.09s-4.43,1.87-7.87,1.87-6.09-.62-7.89-1.87-2.7-2.94-2.7-5.09.9-3.82,2.7-5.08,4.43-1.88,7.89-1.88,6.07.63,7.87,1.88,2.71,2.95,2.71,5.08ZM40.26,224.7c0-1.33-.73-2-2.17-2s-2.2.67-2.2,2,.73,2.03,2.2,2.03,2.17-.68,2.17-2.03Z" style="fill:#8d79ea;"/><path d="M48.67,209.51c0,2.15-.9,3.84-2.71,5.09s-4.43,1.87-7.87,1.87-6.09-.62-7.89-1.87-2.7-2.94-2.7-5.09.9-3.82,2.7-5.08,4.43-1.88,7.89-1.88,6.07.63,7.87,1.88,2.71,2.95,2.71,5.08ZM40.26,209.51c0-1.33-.73-2-2.17-2s-2.2.67-2.2,2,.73,2.03,2.2,2.03,2.17-.68,2.17-2.03Z" style="fill:#8d79ea;"/><path d="M155.2,308.19v12.93h-7.19l-2.44-4.52c-.87-1.58-1.66-2.38-2.38-2.38-.25,0-.47.16-.65.49-.18.33-.28.82-.28,1.48,0,1.47.24,3.02.73,4.64h-7.54c-.66-1.45-.99-3.37-.99-5.77,0-1.84.49-3.33,1.48-4.47.99-1.14,2.34-1.71,4.06-1.71,2.65,0,4.62,1,5.92,3.02l1.48,2.26h.32v-5.97h7.48Z" style="fill:#8d79ea;"/><path d="M155.63,299.92c0,2.44-.88,4.21-2.64,5.34-1.64,1.12-4.09,1.68-7.34,1.68-7.46,0-11.19-2.59-11.19-7.77,0-1.49.21-2.8.64-3.94h7.4c-.42.97-.64,2.02-.64,3.16,0,.95.28,1.76.83,2.45.55.69,1.21,1.08,1.99,1.17v-.17c-.87-.66-1.31-1.71-1.31-3.16s.41-2.65,1.23-3.61c.82-.96,2.23-1.44,4.22-1.44,2.19,0,3.87.58,5.05,1.74,1.18,1.16,1.77,2.68,1.77,4.55ZM148.12,300.21c0-.56-.13-1-.38-1.3-.25-.31-.6-.46-1.04-.46-.41,0-.72.16-.94.49-.22.33-.33.77-.33,1.33s.11.97.33,1.29c.22.32.52.48.88.48.99,0,1.48-.61,1.48-1.83Z" style="fill:#8d79ea;"/><path d="M155.2,279.71v12.93h-7.19l-2.44-4.52c-.87-1.58-1.66-2.38-2.38-2.38-.25,0-.47.16-.65.49-.18.33-.28.82-.28,1.48,0,1.47.24,3.02.73,4.64h-7.54c-.66-1.45-.99-3.37-.99-5.77,0-1.84.49-3.33,1.48-4.47.99-1.14,2.34-1.71,4.06-1.71,2.65,0,4.62,1,5.92,3.02l1.48,2.26h.32v-5.97h7.48Z" style="fill:#8d79ea;"/><path d="M155.63,266.86c0,2.15-.9,3.84-2.71,5.09s-4.43,1.87-7.87,1.87-6.09-.62-7.89-1.87-2.7-2.94-2.7-5.09.9-3.82,2.7-5.08,4.43-1.88,7.89-1.88,6.07.63,7.87,1.88,2.71,2.95,2.71,5.08ZM147.22,266.86c0-1.33-.73-2-2.17-2s-2.2.67-2.2,2,.73,2.03,2.2,2.03,2.17-.68,2.17-2.03Z" style="fill:#8d79ea;"/><path d="M155.63,251.67c0,2.15-.9,3.84-2.71,5.09s-4.43,1.87-7.87,1.87-6.09-.62-7.89-1.87-2.7-2.94-2.7-5.09.9-3.82,2.7-5.08,4.43-1.88,7.89-1.88,6.07.63,7.87,1.88,2.71,2.95,2.71,5.08ZM147.22,251.67c0-1.33-.73-2-2.17-2s-2.2.67-2.2,2,.73,2.03,2.2,2.03,2.17-.68,2.17-2.03Z" style="fill:#8d79ea;"/><path d="M155.63,236.47c0,2.15-.9,3.84-2.71,5.09s-4.43,1.87-7.87,1.87-6.09-.62-7.89-1.87-2.7-2.94-2.7-5.09.9-3.82,2.7-5.08,4.43-1.88,7.89-1.88,6.07.63,7.87,1.88,2.71,2.95,2.71,5.08ZM147.22,236.47c0-1.33-.73-2-2.17-2s-2.2.67-2.2,2,.73,2.03,2.2,2.03,2.17-.68,2.17-2.03Z" style="fill:#8d79ea;"/><path d="M260.67,399.1c0,2.38-.3,4.41-.91,6.1h-8.01c.54-1.52.81-3.18.81-4.97,0-.86-.15-1.62-.44-2.28s-.64-1-1.03-1c-.81,0-1.27.8-1.38,2.41-.02.71-.01,1.53.03,2.47l-1.56.41-1.63-3.97h-.31v6.32h-7.94v-12.26h7.73l2.03,3.94h.25c.17-1.48.73-2.64,1.69-3.49.96-.84,2.16-1.27,3.6-1.27,2.17,0,3.89.73,5.16,2.17,1.27,1.45,1.91,3.26,1.91,5.43Z" style="fill:#8d79ea;"/><path d="M260.2,383.65v5.69l-13.57-6.35v7.16h-8.32v-12.85h7.47l14.42,6.35Z" style="fill:#8d79ea;"/><path d="M260.67,363.51c0,2.31-.97,4.14-2.92,5.49-1.95,1.34-4.78,2.02-8.49,2.02s-6.57-.67-8.51-2.02-2.91-3.17-2.91-5.49.97-4.12,2.91-5.47,4.77-2.03,8.51-2.03,6.54.68,8.49,2.03c1.95,1.36,2.92,3.18,2.92,5.47ZM251.6,363.51c0-1.44-.78-2.16-2.35-2.16s-2.38.72-2.38,2.16.79,2.19,2.38,2.19,2.35-.73,2.35-2.19Z" style="fill:#8d79ea;"/><path d="M260.67,347.12c0,2.31-.97,4.14-2.92,5.49-1.95,1.34-4.78,2.02-8.49,2.02s-6.57-.67-8.51-2.02-2.91-3.17-2.91-5.49.97-4.12,2.91-5.47,4.77-2.03,8.51-2.03,6.54.68,8.49,2.03c1.95,1.36,2.92,3.18,2.92,5.47ZM251.6,347.12c0-1.44-.78-2.16-2.35-2.16s-2.38.72-2.38,2.16.79,2.19,2.38,2.19,2.35-.73,2.35-2.19Z" style="fill:#8d79ea;"/><path d="M260.67,330.74c0,2.31-.97,4.14-2.92,5.49-1.95,1.34-4.78,2.02-8.49,2.02s-6.57-.67-8.51-2.02-2.91-3.17-2.91-5.49.97-4.12,2.91-5.47,4.77-2.03,8.51-2.03,6.54.68,8.49,2.03c1.95,1.36,2.92,3.18,2.92,5.47ZM251.6,330.74c0-1.44-.78-2.16-2.35-2.16s-2.38.72-2.38,2.16.79,2.19,2.38,2.19,2.35-.73,2.35-2.19Z" style="fill:#8d79ea;"/><path d="M364.55,423.25v13.95h-7.76l-2.63-4.88c-.94-1.71-1.79-2.57-2.56-2.57-.27,0-.5.18-.7.53s-.3.89-.3,1.59c0,1.58.26,3.25.78,5h-8.13c-.71-1.56-1.06-3.64-1.06-6.22,0-1.98.53-3.59,1.6-4.82,1.06-1.23,2.52-1.84,4.38-1.84,2.86,0,4.98,1.08,6.38,3.25l1.59,2.44h.34v-6.44h8.07Z" style="fill:#8d79ea;"/><path d="M364.55,410.34v5.69l-13.57-6.35v7.16h-8.32v-12.85h7.47l14.42,6.35Z" style="fill:#8d79ea;"/><path d="M363.14,390.3c1.21,1.34,1.81,3.09,1.81,5.24s-.6,3.89-1.81,5.24-2.8,2.02-4.79,2.02c-1.31,0-2.45-.3-3.41-.91s-1.62-1.45-1.97-2.53h-.25c-.35.94-.95,1.66-1.78,2.16-.83.5-1.79.75-2.88.75-1.75,0-3.18-.64-4.28-1.91-1.11-1.27-1.66-2.88-1.66-4.82s.55-3.55,1.66-4.83,2.53-1.92,4.28-1.92c1.08,0,2.04.26,2.88.77s1.43,1.24,1.78,2.17h.25c.38-1.04,1.04-1.88,1.99-2.5.95-.62,2.08-.94,3.39-.94,1.98,0,3.58.67,4.79,2.02ZM352.6,395.54c0-.56-.11-1.01-.34-1.35-.23-.33-.55-.5-.97-.5s-.74.17-.95.52c-.22.34-.33.79-.33,1.33,0,1.21.43,1.81,1.28,1.81.42,0,.74-.17.97-.5.23-.33.34-.77.34-1.31ZM356.98,395.54c0-1.36-.49-2.03-1.47-2.03-.46,0-.81.19-1.05.56-.24.38-.36.87-.36,1.47s.12,1.09.36,1.47c.24.38.59.56,1.05.56.98,0,1.47-.68,1.47-2.03Z" style="fill:#8d79ea;"/><path d="M365.02,379.5c0,2.31-.97,4.14-2.92,5.49s-4.78,2.02-8.49,2.02-6.57-.67-8.51-2.02c-1.94-1.34-2.91-3.17-2.91-5.49s.97-4.12,2.91-5.47c1.94-1.36,4.77-2.03,8.51-2.03s6.54.68,8.49,2.03,2.92,3.18,2.92,5.47ZM355.95,379.5c0-1.44-.78-2.16-2.35-2.16s-2.38.72-2.38,2.16.79,2.19,2.38,2.19,2.35-.73,2.35-2.19Z" style="fill:#8d79ea;"/><path d="M340.67,295.29v34.52c-1.81-1.11-3.94-1.76-6.22-1.76-6.6,0-11.95,5.35-11.95,11.94s5.35,11.95,11.95,11.95,11.94-5.35,11.94-11.94h0v-32.18l30.39-8.74v20.43c-1.81-1.11-3.94-1.76-6.22-1.76-6.6,0-11.95,5.35-11.95,11.94s5.35,11.95,11.95,11.95c6.21,0,11.32-4.76,11.88-10.83h.06v-47.53l-41.83,12.03Z" style="fill:#fc8563;"/><path d="M264.58,231.68c-6.01-1.82-7.9,1.63-16.31,1.63s-10.3-3.47-16.31-1.63c-6.01,1.82-9.01,8.27-11.85,20.38-2.84,12.12-2.32,20.88,1.03,22.51,3.35,1.63,7.12-2.11,10.73-6.73,2.92-3.62,4.38-3.85,16.4-3.85s13.26.1,16.4,3.85c3.6,4.62,7.38,8.36,10.73,6.73s3.87-10.38,1.03-22.51c-2.84-12.11-5.85-18.55-11.85-20.38ZM231.15,254.09c-2.91,0-5.26-2.42-5.26-5.42s2.36-5.42,5.26-5.42,5.26,2.44,5.26,5.42-2.36,5.42-5.26,5.42ZM255.46,251.34c-1.42,0-2.58-1.19-2.58-2.66s1.16-2.66,2.58-2.66,2.6,1.19,2.6,2.66c-.01,1.47-1.16,2.66-2.6,2.66ZM261.11,257.15c-1.42,0-2.58-1.19-2.58-2.66s1.16-2.66,2.58-2.66,2.6,1.19,2.6,2.66-1.16,2.66-2.6,2.66ZM261.11,245.52c-1.42,0-2.58-1.19-2.58-2.66s1.16-2.66,2.58-2.66,2.6,1.19,2.6,2.66-1.16,2.66-2.6,2.66ZM266.77,251.34c-1.43,0-2.58-1.19-2.58-2.66s1.16-2.66,2.58-2.66,2.58,1.19,2.58,2.66-1.15,2.66-2.58,2.66Z" style="fill:#fc8563;"/><path d="M143.88,87.31c-7.76,0-14.06,6.29-14.06,14.06s6.29,14.06,14.06,14.06,14.06-6.29,14.06-14.06-6.29-14.06-14.06-14.06ZM151,100.07c-1.49,0-2.95-.48-4.06-1.3v5.57c-.01,2.8-2.29,5.08-5.09,5.07s-5.08-2.28-5.07-5.08c0-2.8,2.28-5.08,5.08-5.07.22,0,.45.02.67.04v2.74c-1.27-.38-2.6.35-2.98,1.62-.38,1.27.35,2.6,1.62,2.98,1.27.38,2.6-.35,2.98-1.62.07-.22.1-.45.1-.68v-11.03h2.82c0,2.18,1.76,3.94,3.94,3.94h0v2.82Z" style="fill:#fc8563;"/><path d="M160.59,58.72c7.89,0,14.3,6.41,14.3,14.3s-6.41,14.3-14.3,14.3-14.3-6.41-14.3-14.3,6.41-14.3,14.3-14.3ZM160.59,64.08c-2.43,0-2.73.01-3.68.05-.95.04-1.6.19-2.17.42-.59.23-1.09.53-1.58,1.03s-.8,1-1.03,1.58c-.22.57-.37,1.22-.42,2.17-.04.95-.05,1.26-.05,3.68s.01,2.73.05,3.68c.04.95.19,1.6.42,2.17.23.59.53,1.09,1.03,1.58.5.5,1,.8,1.58,1.03.57.22,1.22.37,2.17.42.95.04,1.26.05,3.68.05s2.73-.01,3.68-.05c.95-.04,1.6-.19,2.17-.42.59-.23,1.09-.53,1.58-1.03.5-.5.8-1,1.03-1.58.22-.57.37-1.22.42-2.17.04-.95.05-1.26.05-3.68s-.01-2.73-.05-3.68c-.04-.95-.19-1.6-.42-2.17-.23-.59-.53-1.09-1.03-1.58-.5-.5-1-.8-1.58-1.03-.57-.22-1.22-.37-2.17-.42-.95-.04-1.26-.05-3.68-.05ZM160.59,65.69c2.39,0,2.67,0,3.61.05.87.04,1.34.19,1.66.31.42.16.71.36,1.03.67.31.31.51.61.67,1.03.12.31.27.79.31,1.66.04.94.05,1.22.05,3.61s0,2.67-.05,3.61c-.04.87-.19,1.34-.31,1.66-.16.42-.36.71-.67,1.03-.31.31-.61.51-1.03.67-.31.12-.79.27-1.66.31-.94.04-1.22.05-3.61.05s-2.67,0-3.61-.05c-.87-.04-1.34-.19-1.66-.31-.42-.16-.71-.36-1.03-.67-.31-.31-.51-.61-.67-1.03-.12-.31-.27-.79-.31-1.66-.04-.94-.05-1.22-.05-3.61s0-2.67.05-3.61c.04-.87.19-1.34.31-1.66.16-.42.36-.71.67-1.03.31-.31.61-.51,1.03-.67.31-.12.79-.27,1.66-.31.94-.04,1.22-.05,3.61-.05h0ZM160.59,68.43c-2.53,0-4.59,2.05-4.59,4.59s2.05,4.59,4.59,4.59,4.59-2.05,4.59-4.59-2.05-4.59-4.59-4.59h0ZM160.59,75.99c-1.65,0-2.98-1.33-2.98-2.98s1.33-2.98,2.98-2.98,2.98,1.33,2.98,2.98-1.33,2.98-2.98,2.98ZM166.44,68.24c0,.59-.48,1.07-1.07,1.07s-1.07-.48-1.07-1.07.48-1.07,1.07-1.07,1.07.48,1.07,1.07Z" style="fill:#fc8563; fill-rule:evenodd;"/><path d="M127.06,58.82c-7.84,0-14.19,6.35-14.19,14.19s6.35,14.19,14.19,14.19,14.19-6.35,14.19-14.19-6.35-14.19-14.19-14.19ZM133.18,73.94c-1.22,3.18-3.5,3.76-4.95,3.76s-2.32-1.19-2.32-1.19c0,0-.41,2.15-.79,3.11-.22.55-.55,1.12-.79,1.51-.01.02-.03.05-.04.07-.18.23-.4.44-.64.6-.14.09-.33.05-.42-.09-.02-.04-.04-.08-.05-.12-.03-.19-.05-.46-.08-.83-.05-.51-.07-1.19.06-1.69.22-.84,1.36-5.89,1.36-5.89-.95-2.56.47-3.99,1.69-4.05s1.39,1.56,1.17,2.27-.73,2.51-.82,2.82.22,2.11,2.07,1.69,2.6-3.22,2.6-5.16-1.22-3.7-4.11-3.74-4.36,2.12-4.71,3.68.33,2.65.54,2.94.18.37.15.66-.11.96-.53.97-1.29-.77-1.62-1.44c-1.09-2.18-.38-4.73,1.19-6.5,2.02-2.26,5.96-2.64,8.56-1.23,2.8,1.51,3.71,4.67,2.49,7.85Z" style="fill:#fc8563;"/><path d="M65.19,10.07H15.19c-2.75,0-5,2.25-5,5v37.54c0,2.75,2.25,5,5,5h50c2.75,0,5-2.25,5-5V15.07c0-2.75-2.25-5-5-5ZM35.45,19.83l11.99,8.19-11.99,8.19v-16.38ZM60.19,47.86h-26.41c-.71,1.55-2.27,2.63-4.09,2.63s-3.37-1.08-4.09-2.63h-5.42c-1.04,0-1.88-.84-1.88-1.87s.84-1.88,1.88-1.88h5.42c.71-1.55,2.27-2.63,4.09-2.63s3.38,1.08,4.09,2.63h26.41c1.03,0,1.88.84,1.88,1.88s-.84,1.87-1.88,1.87Z" style="fill:#fc8563;"/><circle cx="29.7" cy="45.99" r="1.75" style="fill:#fc8563;"/><path d="M235.76,66.08h-13.76V13.15h13.99l-2.27,30.24h.83l3.7-15.12h18.98l-20.56,18.22.68.68c1.86-2.77,4.01-4.16,6.43-4.16,4.33,0,7.58,2.14,9.75,6.43,2.17,4.28,3.07,9.83,2.72,16.63h-17.31c.2-.96.4-1.97.6-3.02.2-1.06.39-2.29.57-3.7.18-1.41.24-2.73.19-3.97-.05-1.23-.16-2.38-.34-3.44-.18-1.06-.56-1.9-1.13-2.53-.58-.63-1.3-.95-2.15-.95-.96,0-1.64.5-2.04,1.51-.4,1.01-.5,2.29-.3,3.86l1.44,12.25Z" style="fill:#9eeace;"/><path d="M269.93,67.21c-2.17,0-4.03-.28-5.59-.83-1.56-.55-2.71-1.16-3.44-1.81-.73-.66-1.3-1.52-1.7-2.61-.4-1.08-.63-1.9-.68-2.46-.05-.55-.08-1.24-.08-2.04v-11.95h-4.23v-17.24c2.92,0,4.84-.74,5.75-2.23.91-1.49,1.36-3.94,1.36-7.37h8.85v9.6h7.03v17.24h-7.03v1.36c0,.4.02.73.08.98.05.25.18.58.38.98.2.4.58.71,1.13.91.55.2,1.26.3,2.12.3,1.01,0,2.04-.15,3.1-.45v16.48c-2.37.76-4.71,1.13-7.03,1.13Z" style="fill:#9eeace;"/><path d="M312.64,67.21c-6.6,0-11.88-2.29-15.84-6.88-3.96-4.59-5.94-11.44-5.94-20.56s2.02-16.22,6.05-20.83c4.03-4.61,9.4-6.92,16.1-6.92,3.53,0,6.7.45,9.53,1.36l-1.29,25.71c-2.32-1.61-5.54-2.42-9.68-2.42-5.14,0-7.71,1.01-7.71,3.02,0,1.87,2.67,2.8,8.01,2.8,1.97,0,4.06-.3,6.28-.91,2.22-.6,4.06-1.41,5.52-2.42l.23,26.08c-3.23,1.31-6.98,1.97-11.27,1.97Z" style="fill:#9eeace;"/><path d="M345.31,67.21c-5.59,0-10.14-2.42-13.65-7.26-3.5-4.84-5.25-11.64-5.25-20.41s1.75-15.55,5.25-20.34c3.5-4.79,8.05-7.18,13.65-7.18s10.08,2.39,13.61,7.18c3.53,4.79,5.29,11.57,5.29,20.34s-1.76,15.57-5.29,20.41c-3.53,4.84-8.06,7.26-13.61,7.26ZM341,42.9c1.11.78,2.54,1.17,4.31,1.17s3.2-.39,4.31-1.17c1.11-.78,1.66-1.88,1.66-3.29s-.56-2.51-1.66-3.29c-1.11-.78-2.55-1.17-4.31-1.17s-3.2.39-4.31,1.17c-1.11.78-1.66,1.88-1.66,3.29s.55,2.51,1.66,3.29Z" style="fill:#9eeace;"/><path d="M294.84,164.37c-9.54,0-14.32-6.4-14.32-19.21,0-5.71,1.63-10.44,4.9-14.19,3.26-3.75,7.3-5.63,12.11-5.63,3.18,0,5.89.86,8.14,2.57,2.24,1.71,3.53,3.75,3.85,6.12h1.35v-1.47c0-2.61-1.22-4.89-3.67-6.85s-5.55-2.94-9.3-2.94c-2.45,0-5,.41-7.65,1.22-2.65.82-4.71,1.76-6.18,2.82v-24.72c4.81-1.71,10.16-2.57,16.03-2.57,10.11,0,17.82,2.71,23.13,8.14,5.3,5.43,6.81,12.99,4.53,22.7l-1.71,7.22h7.71v24.96h-24.72l1.96-17.5h-1.47c-.25,5.71-1.69,10.36-4.34,13.95-2.65,3.59-6.1,5.38-10.34,5.38ZM299.61,139.4c0,2.04,2.04,3.06,6.12,3.06s6.12-1.02,6.12-3.06-2.04-3.06-6.12-3.06-6.12,1.02-6.12,3.06Z" style="fill:#9eeace;"/><path d="M356.26,140.26l2.08,22.27h-21.29v-61.18h21.17l-2.57,24.47h1.59c0-7.26,1.2-13.46,3.61-18.6,2.41-5.14,5.98-7.71,10.71-7.71,4.98,0,8.42,1.86,10.34,5.57,1.92,3.71,2.88,9.93,2.88,18.66l-.12,38.79h-23.13l2.2-23.86c.57-2.45.69-4.81.37-7.1-.33-2.28-1.63-3.43-3.92-3.43-3.43,0-4.73,4.04-3.92,12.11Z" style="fill:#9eeace;"/><path d="M303.3,4.52h0c1.3,0,2.35,1.05,2.35,2.35v161.83c0,.97-.79,1.76-1.76,1.76h-1.18c-.97,0-1.76-.79-1.76-1.76V6.87c0-1.3,1.05-2.35,2.35-2.35Z" transform="translate(215.82 390.79) rotate(-90)" style="fill:#fc8563;"/><path d="M389.81,78.69h-19.05v-10.59l6.66-3.59c2.33-1.28,3.5-2.45,3.5-3.5,0-.37-.24-.69-.73-.96-.48-.27-1.21-.41-2.18-.41-2.17,0-4.44.36-6.83,1.07v-11.11c2.14-.97,4.97-1.45,8.5-1.45,2.71,0,4.9.73,6.58,2.18s2.52,3.45,2.52,5.98c0,3.9-1.48,6.81-4.44,8.71l-3.33,2.18v.47h8.8v11.02Z" style="fill:#9eeace;"/></svg>