<?xml version="1.0" encoding="UTF-8"?><svg id="Calque_1" xmlns="http://www.w3.org/2000/svg" viewBox="0 0 1771.72 978.93"><path d="M1618.2,879.36c-12.38,0-22.88-2.03-31.5-6.09v-47.7c3.86,2.97,8.59,5.33,14.19,7.06,5.6,1.73,10.72,2.6,15.38,2.6,7.92,0,11.89-.94,11.89-2.82,0-1.19-1.39-1.98-4.16-2.38-2.77-.4-6.17-.84-10.18-1.34-4.01-.49-8.02-1.43-12.04-2.82-4.01-1.39-7.41-4.18-10.18-8.4-2.77-4.21-4.16-9.68-4.16-16.42,0-9.71,3.29-17.16,9.88-22.36,6.59-5.2,15.23-7.8,25.93-7.8,5.05,0,10.3.74,15.75,2.23,5.45,1.49,9.81,3.37,13.08,5.65l-4.01,44.13c-6.64-4.95-14.26-7.43-22.88-7.43s-12.33,1.14-12.33,3.42c0,.99.77,1.73,2.3,2.23,1.53.5,3.51.84,5.94,1.04,2.43.2,5.1.42,8.02.67,2.92.25,5.84.89,8.77,1.93,2.92,1.04,5.6,2.43,8.02,4.16,2.43,1.73,4.41,4.31,5.94,7.73,1.53,3.42,2.3,7.5,2.3,12.26,0,9.81-3.37,17.34-10.1,22.59-6.74,5.25-15.36,7.88-25.85,7.88Z" style="fill:#65dbd1;"/><path d="M1687,877.13h-27.79v-104.01h27.79c13.08,0,23.23,4.43,30.46,13.3,7.23,8.87,10.85,21.72,10.85,38.56s-3.64,29.74-10.92,38.71c-7.28,8.97-17.41,13.45-30.39,13.45ZM1691.61,818.29h-7.13v13.67h7.13c8.02,0,12.04-2.28,12.04-6.84s-4.01-6.83-12.04-6.83Z" style="fill:#65dbd1;"/><path d="M1616.42,547.62h-29.72v-104.01h29.72l-3.42,43.24h11.59l-3.42-43.24h29.42v104.01h-29.42l3.42-44.13h-11.59l3.42,44.13Z" style="fill:#fc8563;"/><path d="M1686.7,547.62h-27.79v-104.01h27.79c13.08,0,23.23,4.43,30.46,13.3,7.23,8.87,10.85,21.72,10.85,38.56s-3.64,29.74-10.92,38.71c-7.28,8.97-17.41,13.45-30.39,13.45ZM1691.31,488.78h-7.13v13.67h7.13c8.02,0,12.04-2.28,12.04-6.84s-4.01-6.83-12.04-6.83Z" style="fill:#fc8563;"/><path d="M1652.82,214.96h-24.96v-18.57h-41.16v-17.53l46.51-67.91h19.61v53.05h13.37v32.24h-13.37v18.72ZM1627.86,143.93l-13.22,20.21h13.22v-20.21Z" style="fill:#fc638d;"/><path d="M1702.15,214.96h-29.87v-104.01h26.9l-2.38,46.66h1.63l6.09-46.66h35.37l-35.96,52.75,1.63,1.34c4.06-7.92,8.37-11.89,12.93-11.89,8.42,0,14.34,5.57,17.76,16.72,3.42,11.14,4.28,26.18,2.6,45.1h-33.29c1.58-5.94,2.72-12.43,3.42-19.47.69-7.03.49-13.35-.59-18.95-1.09-5.6-3.17-8.4-6.24-8.4-1.78,0-3.1.92-3.94,2.75-.84,1.83-1.07,4.33-.67,7.5l4.61,36.55Z" style="fill:#fc638d;"/><polygon points="110.77 71.81 117.89 60.93 117.89 71.81 110.77 71.81" style="fill:#fc638d;"/><path d="M60.12,13.75v119.76h811.7V13.75H60.12ZM138.53,89.09h-7.2v10.08h-13.44v-10h-22.16v-9.44l25.04-36.56h10.56v28.56h7.2v17.36ZM181.65,74.53h-3.76l1.36,24.64h-12.08l2.8-19.92h-.96c-.8,5.71-1.75,10.08-2.84,13.12-1.1,3.04-2.38,5.13-3.84,6.28-1.47,1.15-3.38,1.72-5.72,1.72-3.95,0-7.54-2.55-10.76-7.64-3.23-5.09-4.84-12.23-4.84-21.4,0-9.81,2.13-17.16,6.4-22.04,4.26-4.88,9.94-7.32,17.04-7.32,4.42,0,8.58.56,12.48,1.68l-1.68,23.04c-2.88-1.28-6.32-1.92-10.32-1.92-3.1,0-5.56.57-7.4,1.72-1.84,1.15-2.76,2.73-2.76,4.76,0,2.13.72,3.76,2.16,4.88,1.44,1.12,3.3,1.68,5.6,1.68,3.2,0,4.88-1.09,5.04-3.28h-8.8v-7.28h22.96l-.08,7.28Z" style="fill:#fc638d;"/><path d="M60.12,180.08v119.76h306.05v-119.76H60.12ZM138.93,265.5h-16.4l-3.12-30.56h-.64l-3.12,30.56h-16.4l-4.72-56h17.92l-2.16,31.92.88.16,5.04-29.44h5.68l5.12,29.44.88-.16-2.16-31.92h17.92l-4.72,56ZM162.93,265.5h-12.4v-21.76h-6.4v-18.24h18.8v40ZM161.41,221.58c-1.39,1.44-3.52,2.16-6.4,2.16s-5.02-.72-6.4-2.16c-1.39-1.44-2.08-3.36-2.08-5.76s.7-4.16,2.12-5.6c1.41-1.44,3.53-2.16,6.36-2.16s4.94.72,6.36,2.16c1.41,1.44,2.12,3.31,2.12,5.6s-.7,4.32-2.08,5.76ZM183.24,250.7h-16.16v-9.12h16.16v9.12ZM217.97,232.7l-16.48-.8v3.2l10.32-.8v10.08l-10.32-.8,2.4,21.92h-16v-56h30.08v23.2ZM238.85,265.5h-12.4v-21.76h-6.4v-18.24h18.8v40ZM237.33,221.58c-1.39,1.44-3.52,2.16-6.4,2.16s-5.02-.72-6.4-2.16c-1.39-1.44-2.08-3.36-2.08-5.76s.7-4.16,2.12-5.6c1.41-1.44,3.53-2.16,6.36-2.16s4.94.72,6.36,2.16c1.41,1.44,2.12,3.31,2.12,5.6s-.7,4.32-2.08,5.76Z" style="fill:#fc638d;"/><rect x="60.11" y="346.42" width="345.97" height="119.76" style="fill:#fc8563;"/><rect x="60.11" y="512.75" width="133.07" height="119.76" style="fill:#fc8563;"/><rect x="60.11" y="679.08" width="86.49" height="119.76" style="fill:#65dbd1;"/><rect x="60.11" y="845.42" width="33.27" height="119.76" style="fill:#65dbd1;"/><rect x="24.89" y="13.75" width="19" height="951.42" style="fill:#fc8563;"/><path d="M935.66,92.94h-19.76v-31.52h-14.08v-24.48h33.84v56Z" style="fill:#fc638d;"/><path d="M951.34,104.7l-5.04-5.04c1.44-.69,2.84-1.71,4.2-3.04,1.36-1.33,2.2-2.56,2.52-3.68-.64.21-1.28.32-1.92.32-2.08,0-3.85-.72-5.32-2.16-1.47-1.44-2.2-3.31-2.2-5.6s.84-4.36,2.52-5.88c1.68-1.52,3.83-2.28,6.44-2.28s4.89.89,6.68,2.68c1.79,1.79,2.68,4.23,2.68,7.32-.05,3.68-1.07,7.07-3.04,10.16-1.97,3.09-4.48,5.49-7.52,7.2Z" style="fill:#fc638d;"/><path d="M1019.26,92.94h-52.8v-19.84l18.48-6.72c6.45-2.4,9.68-4.59,9.68-6.56,0-.69-.68-1.29-2.04-1.8-1.36-.51-3.35-.76-5.96-.76-6.03,0-12.35.67-18.96,2v-20.8c5.92-1.81,13.76-2.72,23.52-2.72,7.47,0,13.53,1.36,18.2,4.08,4.67,2.72,7,6.45,7,11.2,0,7.25-4.11,12.69-12.32,16.32l-9.44,4.16v.8h24.64v20.64Z" style="fill:#fc638d;"/><path d="M1075.18,92.94h-52.8v-19.84l18.48-6.72c6.45-2.4,9.68-4.59,9.68-6.56,0-.69-.68-1.29-2.04-1.8-1.36-.51-3.35-.76-5.96-.76-6.03,0-12.35.67-18.96,2v-20.8c5.92-1.81,13.76-2.72,23.52-2.72,7.47,0,13.53,1.36,18.2,4.08,4.67,2.72,7,6.45,7,11.2,0,7.25-4.11,12.69-12.32,16.32l-9.44,4.16v.8h24.64v20.64Z" style="fill:#fc638d;"/><path d="M424.57,265.5c-8.75,0-15.67-2.49-20.76-7.48-5.09-4.99-7.64-12.23-7.64-21.72s2.55-16.8,7.64-21.76c5.09-4.96,12.01-7.44,20.76-7.44s15.6,2.48,20.72,7.44,7.68,12.21,7.68,21.76-2.56,16.73-7.68,21.72c-5.12,4.99-12.03,7.48-20.72,7.48ZM424.57,242.3c5.44,0,8.16-2,8.16-6s-2.72-6.08-8.16-6.08-8.32,2.03-8.32,6.08,2.77,6,8.32,6Z" style="fill:#fc638d;"/><path d="M466.01,276.06l-5.04-5.04c1.44-.69,2.84-1.71,4.2-3.04,1.36-1.33,2.2-2.56,2.52-3.68-.64.21-1.28.32-1.92.32-2.08,0-3.85-.72-5.32-2.16-1.47-1.44-2.2-3.31-2.2-5.6s.84-4.36,2.52-5.88c1.68-1.52,3.83-2.28,6.44-2.28s4.89.89,6.68,2.68c1.79,1.79,2.68,4.23,2.68,7.32-.05,3.68-1.07,7.07-3.04,10.16-1.97,3.09-4.48,5.49-7.52,7.2Z" style="fill:#fc638d;"/><path d="M533.53,264.3h-19.92v-10h-32.72v-9.44l37.04-36.56h15.6v28.56h10.64v17.36h-10.64v10.08ZM513.61,226.06l-10.48,10.88h10.48v-10.88Z" style="fill:#fc638d;"/><path d="M575.61,265.5c-9.97,0-17.23-2.43-21.76-7.28-4.59-4.59-6.88-11.33-6.88-20.24,0-10.45,2.73-18.21,8.2-23.28,5.47-5.07,13.29-7.6,23.48-7.6,6.08,0,11.47.59,16.16,1.76v20.4c-4-1.17-8.32-1.76-12.96-1.76-4,0-7.4.76-10.2,2.28-2.8,1.52-4.33,3.4-4.6,5.64h.48c2.13-2.51,6.51-3.76,13.12-3.76,2.19,0,4.23.13,6.12.4,1.89.27,3.75.75,5.56,1.44,1.81.69,3.36,1.59,4.64,2.68,1.28,1.09,2.32,2.55,3.12,4.36.8,1.81,1.2,3.87,1.2,6.16,0,6.03-2.37,10.67-7.12,13.92-4.75,3.25-10.93,4.88-18.56,4.88ZM574.41,244.78c2.24,0,4-.35,5.28-1.04,1.28-.69,1.92-1.65,1.92-2.88,0-1.12-.67-1.99-2-2.6-1.33-.61-3.15-.92-5.44-.92s-3.93.31-5.24.92c-1.31.61-1.96,1.43-1.96,2.44,0,2.72,2.48,4.08,7.44,4.08Z" style="fill:#fc638d;"/><path d="M464.49,428.78c-8.75,0-15.67-2.49-20.76-7.48-5.09-4.99-7.64-12.23-7.64-21.72s2.55-16.8,7.64-21.76c5.09-4.96,12.01-7.44,20.76-7.44s15.6,2.48,20.72,7.44,7.68,12.21,7.68,21.76-2.56,16.73-7.68,21.72c-5.12,4.99-12.03,7.48-20.72,7.48ZM464.49,405.58c5.44,0,8.16-2,8.16-6s-2.72-6.08-8.16-6.08-8.32,2.03-8.32,6.08,2.77,6,8.32,6Z" style="fill:#fc8563;"/><path d="M505.93,439.34l-5.04-5.04c1.44-.69,2.84-1.71,4.2-3.04,1.36-1.33,2.2-2.56,2.52-3.68-.64.21-1.28.32-1.92.32-2.08,0-3.85-.72-5.32-2.16-1.47-1.44-2.2-3.31-2.2-5.6s.84-4.36,2.52-5.88c1.68-1.52,3.83-2.28,6.44-2.28s4.89.89,6.68,2.68c1.79,1.79,2.68,4.23,2.68,7.32-.05,3.68-1.07,7.07-3.04,10.16-1.97,3.09-4.48,5.49-7.52,7.2Z" style="fill:#fc8563;"/><path d="M541.93,428.78c-6.61,0-13.17-.91-19.68-2.72l-.48-20.16c5.44,1.55,12.03,2.32,19.76,2.32,6.88,0,10.32-1.28,10.32-3.84,0-1.12-.83-2-2.48-2.64-1.65-.64-3.84-.96-6.56-.96-1.81,0-4.15.27-7,.8-2.85.53-4.81,1.09-5.88,1.68l-7.44-3.44.16-28.24h46v20.88h-29.36v4.4c2.99-.43,6.35-.64,10.08-.64s7.44.51,10.8,1.52c3.36,1.01,6.16,2.63,8.4,4.84,2.24,2.21,3.36,4.81,3.36,7.8,0,6.13-2.72,10.73-8.16,13.8-5.44,3.07-12.72,4.6-21.84,4.6Z" style="fill:#fc8563;"/><path d="M627.45,427.58h-52.8v-19.84l18.48-6.72c6.45-2.4,9.68-4.59,9.68-6.56,0-.69-.68-1.29-2.04-1.8-1.36-.51-3.35-.76-5.96-.76-6.03,0-12.35.67-18.96,2v-20.8c5.92-1.81,13.76-2.72,23.52-2.72,7.47,0,13.53,1.36,18.2,4.08,4.67,2.72,7,6.45,7,11.2,0,7.25-4.11,12.69-12.32,16.32l-9.44,4.16v.8h24.64v20.64Z" style="fill:#fc8563;"/><path d="M608.61,921.89h-8.8l.72-13.52-11.2,7.44-4.4-7.6,12-6-12-6,4.4-7.76,11.2,7.36-.72-13.36h8.8l-.72,13.44,11.2-7.44,4.48,7.76-12.08,6,12.08,6-4.48,7.6-11.2-7.36.72,13.44Z" style="fill:#fc8563;"/><path d="M643.65,927.41l1.44,11.04h-18.64v-56h19.12l-3.04,33.52h.8l4.96-17.52h26.16l-27.12,19.04.64.8c2.67-2.93,5.76-4.4,9.28-4.4,5.76,0,10.07,2.27,12.92,6.8,2.85,4.53,4.23,10.45,4.12,17.76h-20.96c.32-1.97.51-3.89.56-5.76.05-1.87-.03-3.83-.24-5.88-.21-2.05-.81-3.69-1.8-4.92-.99-1.23-2.31-1.81-3.96-1.76-1.65,0-2.85.68-3.6,2.04-.75,1.36-.96,3.11-.64,5.24Z" style="fill:#fc8563;"/><path d="M686.53,955.65c-4.69,0-8.33-1.89-10.92-5.68-2.59-3.79-2.95-8.45-1.08-14l4.08-13.28,10.32,2.24.32-.88c-4.32-.8-7.69-2.27-10.12-4.4-2.43-2.13-3.64-4.83-3.64-8.08,0-4.32,2.09-7.79,6.28-10.4,4.19-2.61,9.67-3.92,16.44-3.92s15.97.4,27.28,1.2v17.6l-11.52-10.64-.56.64c3.09,2.24,4.64,5.25,4.64,9.04,0,3.47-1.73,6.2-5.2,8.2-3.47,2-8.35,3-14.64,3h-5.84l-1.28,2.8c-.69,1.81-.77,3.16-.24,4.04.53.88,1.44,1.32,2.72,1.32,1.49,0,3.07-.61,4.72-1.84,1.65-1.23,3.53-2.45,5.64-3.68,2.11-1.23,4.44-1.84,7-1.84,12.64,0,16.56,9.12,11.76,27.36h-17.04c2.19-5.65,1.92-8.48-.8-8.48-1.01,0-2.11.51-3.28,1.52-1.17,1.01-2.27,2.12-3.28,3.32-1.01,1.2-2.56,2.31-4.64,3.32-2.08,1.01-4.45,1.52-7.12,1.52ZM693.33,920.81c1.12.56,2.67.84,4.64.84s3.52-.28,4.64-.84c1.12-.56,1.68-1.29,1.68-2.2,0-2.08-2.11-3.12-6.32-3.12-1.97,0-3.52.28-4.64.84-1.12.56-1.68,1.32-1.68,2.28,0,.91.56,1.64,1.68,2.2Z" style="fill:#fc8563;"/><path d="M767.49,939.65c-7.09,0-12.71-1.93-16.84-5.8-4.13-3.87-6.2-9-6.2-15.4s2.07-11.6,6.2-15.44c4.13-3.84,9.77-5.76,16.92-5.76,5.87,0,10.61.59,14.24,1.76l-1.04,18.48c-3.31-1.39-6.88-2.08-10.72-2.08-6.24,0-9.36.96-9.36,2.88,0,2.03,3.47,3.04,10.4,3.04,4.48,0,8.45-.83,11.92-2.48v18.64c-4,1.44-9.17,2.16-15.52,2.16Z" style="fill:#fc8563;"/><path d="M807.65,939.65c-7.15,0-12.75-1.88-16.8-5.64-4.05-3.76-6.08-8.95-6.08-15.56s2.03-11.8,6.08-15.56c4.05-3.76,9.65-5.64,16.8-5.64s12.84,1.88,16.92,5.64c4.08,3.76,6.12,8.95,6.12,15.56s-2.04,11.8-6.12,15.56c-4.08,3.76-9.72,5.64-16.92,5.64ZM807.65,921.57c5.33,0,8-1.04,8-3.12s-2.67-3.2-8-3.2-7.84,1.07-7.84,3.2,2.61,3.12,7.84,3.12Z" style="fill:#fc8563;"/><path d="M885.89,938.45h-52.8v-19.84l18.48-6.72c6.45-2.4,9.68-4.59,9.68-6.56,0-.69-.68-1.29-2.04-1.8-1.36-.51-3.35-.76-5.96-.76-6.03,0-12.35.67-18.96,2v-20.8c5.92-1.81,13.76-2.72,23.52-2.72,7.47,0,13.53,1.36,18.2,4.08,4.67,2.72,7,6.45,7,11.2,0,7.25-4.11,12.69-12.32,16.32l-9.44,4.16v.8h24.64v20.64Z" style="fill:#fc8563;"/><path d="M912.53,939.65c-7.68,0-13.6-1.91-17.76-5.72-4.16-3.81-6.24-9.03-6.24-15.64s1.99-11.64,5.96-15.4c3.97-3.76,9.29-5.64,15.96-5.64s11.93,1.79,15.64,5.36c3.71,3.57,5.56,8.45,5.56,14.64,0,1.23-.13,2.32-.4,3.28h-26.8c.05,1.12,1.13,1.97,3.24,2.56,2.11.59,4.71.88,7.8.88,5.12,0,9.6-.93,13.44-2.8l.48,15.36c-4.64,2.08-10.27,3.12-16.88,3.12ZM904.37,917.49h12.24c-.11-1.55-.72-2.75-1.84-3.6-1.12-.85-2.53-1.28-4.24-1.28-3.47,0-5.52,1.63-6.16,4.88Z" style="fill:#fc8563;"/><path d="M963.17,938.77h-13.28l21.04-56.08h13.2l-20.96,56.08Z" style="fill:#fc8563;"/><path d="M1021.49,939.65c-2.56,0-5.83-.27-9.8-.8-3.97-.53-7.19-1.15-9.64-1.84v-18.32c2.67,1.28,5.69,2.31,9.08,3.08,3.39.77,6.33,1.16,8.84,1.16,2.67,0,4.51-.09,5.52-.28,1.01-.19,1.52-.68,1.52-1.48,0-.53-.85-.89-2.56-1.08-1.71-.19-3.79-.39-6.24-.6-2.45-.21-4.91-.59-7.36-1.12-2.45-.53-4.53-1.61-6.24-3.24-1.71-1.63-2.56-3.75-2.56-6.36,0-3.63,1.81-6.45,5.44-8.48,3.63-2.03,8.83-3.04,15.6-3.04,5.76,0,11.23.83,16.4,2.48l.16,16.72c-4.05-2.4-9.01-3.6-14.88-3.6-2.24,0-3.85.09-4.84.28-.99.19-1.48.63-1.48,1.32,0,.43.85.73,2.56.92,1.71.19,3.79.43,6.24.72,2.45.29,4.91.76,7.36,1.4,2.45.64,4.53,1.79,6.24,3.44,1.71,1.65,2.56,3.76,2.56,6.32,0,4-1.92,7.07-5.76,9.2s-9.23,3.2-16.16,3.2Z" style="fill:#fc8563;"/><path d="M1067.97,939.65c-7.68,0-13.6-1.91-17.76-5.72-4.16-3.81-6.24-9.03-6.24-15.64s1.99-11.64,5.96-15.4c3.97-3.76,9.29-5.64,15.96-5.64s11.93,1.79,15.64,5.36c3.71,3.57,5.56,8.45,5.56,14.64,0,1.23-.13,2.32-.4,3.28h-26.8c.05,1.12,1.13,1.97,3.24,2.56,2.11.59,4.71.88,7.8.88,5.12,0,9.6-.93,13.44-2.8l.48,15.36c-4.64,2.08-10.27,3.12-16.88,3.12ZM1059.81,917.49h12.24c-.11-1.55-.72-2.75-1.84-3.6-1.12-.85-2.53-1.28-4.24-1.28-3.47,0-5.52,1.63-6.16,4.88Z" style="fill:#fc8563;"/><path d="M1107.24,938.45h-17.44v-40h17.6l-1.44,15.2h.96c.48-4.75,1.83-8.67,4.04-11.76,2.21-3.09,5.08-4.64,8.6-4.64,4.21,0,7.17,1.39,8.88,4.16,1.71,2.77,2.51,6.85,2.4,12.24h.96c.43-4.69,1.79-8.6,4.08-11.72,2.29-3.12,5.2-4.68,8.72-4.68,4.48,0,7.61,1.35,9.4,4.04,1.79,2.69,2.68,6.84,2.68,12.44l-.08,24.72h-18.24l1.76-14.64c.59-5.07-.8-7.6-4.16-7.6s-5.04,2.77-4.88,8.32l.64,13.92h-18.16l1.52-14.64c.53-5.07-.85-7.6-4.16-7.6-1.76,0-3.07.73-3.92,2.2-.85,1.47-1.17,3.51-.96,6.12l1.2,13.92Z" style="fill:#fc8563;"/><path d="M1172.52,939.65c-9.12,0-13.68-4.16-13.68-12.48,0-3.79,1.37-6.84,4.12-9.16,2.75-2.32,6.39-3.48,10.92-3.48,3.04,0,5.56.56,7.56,1.68s3.21,2.53,3.64,4.24h1.12v-.96c0-1.87-1.19-3.49-3.56-4.88-2.37-1.39-5.27-2.08-8.68-2.08-4.37,0-8.53.99-12.48,2.96v-15.76c4.96-1.65,10.32-2.48,16.08-2.48,8.43,0,15,1.77,19.72,5.32,4.72,3.55,6.41,8.39,5.08,14.52l-.96,4.56h5.2v16.8h-21.68l1.52-10.72h-1.28c-.11,3.47-1.44,6.32-4,8.56s-5.44,3.36-8.64,3.36ZM1181.08,925.97c3.73,0,5.6-.69,5.6-2.08s-1.87-2.08-5.6-2.08-5.52.69-5.52,2.08,1.84,2.08,5.52,2.08Z" style="fill:#fc8563;"/><path d="M1228.84,938.45h-16.72v-21.6h-6.96v-18.4h23.68v40ZM1218.68,896.45c-3.2,0-5.69-.75-7.48-2.24-1.79-1.49-2.68-3.44-2.68-5.84s.89-4.32,2.68-5.76c1.79-1.44,4.28-2.16,7.48-2.16s5.76.72,7.52,2.16c1.76,1.44,2.64,3.36,2.64,5.76s-.88,4.41-2.64,5.88c-1.76,1.47-4.27,2.2-7.52,2.2Z" style="fill:#fc8563;"/><path d="M1249.08,924.53l1.12,13.92h-18.08v-40h18.32l-1.44,15.2h1.04c.43-4.69,1.76-8.6,4-11.72,2.24-3.12,5.17-4.68,8.8-4.68,4.64,0,7.97,1.37,10,4.12,2.03,2.75,3.04,6.87,3.04,12.36l-.08,24.72h-18.64l1.6-14.64c.59-5.07-.91-7.6-4.48-7.6-1.76,0-3.12.75-4.08,2.24-.96,1.49-1.33,3.52-1.12,6.08Z" style="fill:#fc8563;"/><path d="M1302.28,939.65c-7.68,0-13.6-1.91-17.76-5.72-4.16-3.81-6.24-9.03-6.24-15.64s1.99-11.64,5.96-15.4c3.97-3.76,9.29-5.64,15.96-5.64s11.93,1.79,15.64,5.36c3.71,3.57,5.56,8.45,5.56,14.64,0,1.23-.13,2.32-.4,3.28h-26.8c.05,1.12,1.13,1.97,3.24,2.56,2.11.59,4.71.88,7.8.88,5.12,0,9.6-.93,13.44-2.8l.48,15.36c-4.64,2.08-10.27,3.12-16.88,3.12ZM1294.12,917.49h12.24c-.11-1.55-.72-2.75-1.84-3.6-1.12-.85-2.53-1.28-4.24-1.28-3.47,0-5.52,1.63-6.16,4.88Z" style="fill:#fc8563;"/><path d="M251.58,600.87c-8.75,0-15.67-2.49-20.76-7.48-5.09-4.99-7.64-12.23-7.64-21.72s2.55-16.8,7.64-21.76c5.09-4.96,12.01-7.44,20.76-7.44s15.6,2.48,20.72,7.44,7.68,12.21,7.68,21.76-2.56,16.73-7.68,21.72c-5.12,4.99-12.03,7.48-20.72,7.48ZM251.58,577.67c5.44,0,8.16-2,8.16-6s-2.72-6.08-8.16-6.08-8.32,2.03-8.32,6.08,2.77,6,8.32,6Z" style="fill:#fc8563;"/><path d="M293.02,611.43l-5.04-5.04c1.44-.69,2.84-1.71,4.2-3.04,1.36-1.33,2.2-2.56,2.52-3.68-.64.21-1.28.32-1.92.32-2.08,0-3.85-.72-5.32-2.16-1.47-1.44-2.2-3.31-2.2-5.6s.84-4.36,2.52-5.88c1.68-1.52,3.83-2.28,6.44-2.28s4.89.89,6.68,2.68c1.79,1.79,2.68,4.23,2.68,7.32-.05,3.68-1.07,7.07-3.04,10.16-1.97,3.09-4.48,5.49-7.52,7.2Z" style="fill:#fc8563;"/><path d="M360.94,599.67h-52.8v-19.84l18.48-6.72c6.45-2.4,9.68-4.59,9.68-6.56,0-.69-.68-1.29-2.04-1.8-1.36-.51-3.35-.76-5.96-.76-6.03,0-12.35.67-18.96,2v-20.8c5.92-1.81,13.76-2.72,23.52-2.72,7.47,0,13.53,1.36,18.2,4.08,4.67,2.72,7,6.45,7,11.2,0,7.25-4.11,12.69-12.32,16.32l-9.44,4.16v.8h24.64v20.64Z" style="fill:#fc8563;"/><path d="M205.1,762.88c-8.75,0-15.67-2.49-20.76-7.48-5.09-4.99-7.64-12.23-7.64-21.72s2.55-16.8,7.64-21.76c5.09-4.96,12.01-7.44,20.76-7.44s15.6,2.48,20.72,7.44,7.68,12.21,7.68,21.76-2.56,16.73-7.68,21.72c-5.12,4.99-12.03,7.48-20.72,7.48ZM205.1,739.68c5.44,0,8.16-2,8.16-6s-2.72-6.08-8.16-6.08-8.32,2.03-8.32,6.08,2.77,6,8.32,6Z" style="fill:#65dbd1;"/><path d="M246.54,773.44l-5.04-5.04c1.44-.69,2.84-1.71,4.2-3.04,1.36-1.33,2.2-2.56,2.52-3.68-.64.21-1.28.32-1.92.32-2.08,0-3.85-.72-5.32-2.16-1.47-1.44-2.2-3.31-2.2-5.6s.84-4.36,2.52-5.88c1.68-1.52,3.83-2.28,6.44-2.28s4.89.89,6.68,2.68c1.79,1.79,2.68,4.23,2.68,7.32-.05,3.68-1.07,7.07-3.04,10.16-1.97,3.09-4.48,5.49-7.52,7.2Z" style="fill:#65dbd1;"/><path d="M295.98,761.68h-19.76v-31.52h-14.08v-24.48h33.84v56Z" style="fill:#65dbd1;"/><path d="M324.46,762.88c-9.01,0-16.69-.77-23.04-2.32v-20.48c5.71,1.39,11.97,2.08,18.8,2.08,3.2,0,6.07-.37,8.6-1.12,2.53-.75,3.8-1.63,3.8-2.64,0-2.08-3.01-3.25-9.04-3.52-4-.11-7.41.13-10.24.72l-1.28-4.64,15.04-4.32v-.96l-23.28.32v-20.32h46.32v19.76l-14,4.88v.72c5.65.21,9.92,1.6,12.8,4.16,2.88,2.56,4.32,5.76,4.32,9.6,0,5.55-2.73,9.95-8.2,13.2-5.47,3.25-12.33,4.88-20.6,4.88Z" style="fill:#65dbd1;"/><path d="M151.78,930.66c-8.75,0-15.67-2.49-20.76-7.48-5.09-4.99-7.64-12.23-7.64-21.72s2.55-16.8,7.64-21.76c5.09-4.96,12.01-7.44,20.76-7.44s15.6,2.48,20.72,7.44,7.68,12.21,7.68,21.76-2.56,16.73-7.68,21.72c-5.12,4.99-12.03,7.48-20.72,7.48ZM151.78,907.46c5.44,0,8.16-2,8.16-6s-2.72-6.08-8.16-6.08-8.32,2.03-8.32,6.08,2.77,6,8.32,6Z" style="fill:#65dbd1;"/><path d="M193.22,941.22l-5.04-5.04c1.44-.69,2.84-1.71,4.2-3.04,1.36-1.33,2.2-2.56,2.52-3.68-.64.21-1.28.32-1.92.32-2.08,0-3.85-.72-5.32-2.16-1.47-1.44-2.2-3.31-2.2-5.6s.84-4.36,2.52-5.88c1.68-1.52,3.83-2.28,6.44-2.28s4.89.89,6.68,2.68c1.79,1.79,2.68,4.23,2.68,7.32-.05,3.68-1.07,7.07-3.04,10.16-1.97,3.09-4.48,5.49-7.52,7.2Z" style="fill:#65dbd1;"/><path d="M237.06,930.66c-8.75,0-15.67-2.49-20.76-7.48-5.09-4.99-7.64-12.23-7.64-21.72s2.55-16.8,7.64-21.76c5.09-4.96,12.01-7.44,20.76-7.44s15.6,2.48,20.72,7.44,7.68,12.21,7.68,21.76-2.56,16.73-7.68,21.72c-5.12,4.99-12.03,7.48-20.72,7.48ZM237.06,907.46c5.44,0,8.16-2,8.16-6s-2.72-6.08-8.16-6.08-8.32,2.03-8.32,6.08,2.77,6,8.32,6Z" style="fill:#65dbd1;"/><path d="M289.54,930.66c-6.61,0-13.17-.91-19.68-2.72l-.48-20.16c5.44,1.55,12.03,2.32,19.76,2.32,6.88,0,10.32-1.28,10.32-3.84,0-1.12-.83-2-2.48-2.64-1.65-.64-3.84-.96-6.56-.96-1.81,0-4.15.27-7,.8-2.85.53-4.81,1.09-5.88,1.68l-7.44-3.44.16-28.24h46v20.88h-29.36v4.4c2.99-.43,6.35-.64,10.08-.64s7.44.51,10.8,1.52c3.36,1.01,6.16,2.63,8.4,4.84,2.24,2.21,3.36,4.81,3.36,7.8,0,6.13-2.72,10.73-8.16,13.8-5.44,3.07-12.72,4.6-21.84,4.6Z" style="fill:#65dbd1;"/></svg>