<svg width="295" height="185" viewBox="0 0 295 185" fill="none" xmlns="http://www.w3.org/2000/svg">
<g clip-path="url(#clip0_386_14)">
<path d="M48.58 50.45C48.06 50.45 47.64 50.8699 47.64 51.3899V70.79C47.64 71.31 48.06 71.73 48.58 71.73H80.1C80.62 71.73 81.04 71.31 81.04 70.79V51.3899C81.04 50.8699 80.62 50.45 80.1 50.45H48.58ZM78.83 69.62H49.78V52.4799H78.83V69.62Z" fill="#FC638D"/>
<path d="M80.7 72.1199H47.97C47.75 72.1199 47.54 72.2099 47.38 72.3599L44.08 75.4599C43.4 76.0999 43.79 77.3699 44.67 77.3699H84C84.88 77.3699 85.28 76.0999 84.59 75.4599L81.29 72.3599C81.12 72.1999 80.91 72.1199 80.7 72.1199Z" fill="#FC638D"/>
<path d="M17.73 11.71C22.1 11.71 25.64 15.25 25.64 19.62V26.17C25.64 30.54 22.1 34.08 17.73 34.08V11.71Z" fill="#FC8563"/>
<path d="M17.73 52.72C22.1 52.72 25.64 56.26 25.64 60.63V67.18C25.64 71.55 22.1 75.09 17.73 75.09V52.72Z" fill="#FC638D"/>
<path d="M17.73 93.74C22.1 93.74 25.64 97.28 25.64 101.65V108.2C25.64 112.57 22.1 116.11 17.73 116.11V93.74Z" fill="#8D79EA"/>
<path d="M17.73 134.76C22.1 134.76 25.64 138.3 25.64 142.67V149.22C25.64 153.59 22.1 157.13 17.73 157.13V134.76Z" fill="#9EEACE"/>
<path d="M58.12 7.6499H45.96C44.73 7.6499 43.74 8.6499 43.74 9.8699V34.1799C43.74 35.4099 44.74 36.3999 45.96 36.3999H58.12C59.35 36.3999 60.34 35.3999 60.34 34.1799V9.8699C60.34 8.6399 59.34 7.6499 58.12 7.6499ZM50.46 9.4899C50.46 9.3099 50.6 9.1699 50.78 9.1699H54.49C54.67 9.1699 54.81 9.3099 54.81 9.4899V9.6699C54.81 9.8499 54.67 9.9899 54.49 9.9899H50.78C50.6 9.9899 50.46 9.8499 50.46 9.6699V9.4899ZM49.64 9.1999C49.85 9.1999 50.02 9.3699 50.02 9.5799C50.02 9.7899 49.85 9.9599 49.64 9.9599C49.43 9.9599 49.26 9.7899 49.26 9.5799C49.26 9.3699 49.43 9.1999 49.64 9.1999ZM52.04 35.1799C51.31 35.1799 50.73 34.5899 50.73 33.8699C50.73 33.1499 51.32 32.5599 52.04 32.5599C52.77 32.5599 53.35 33.1499 53.35 33.8699C53.35 34.5899 52.76 35.1799 52.04 35.1799ZM58.93 30.1699C58.93 30.7299 58.47 31.1899 57.91 31.1899H46.18C45.62 31.1899 45.16 30.7299 45.16 30.1699V12.1499C45.16 11.5899 45.62 11.1299 46.18 11.1299H57.91C58.47 11.1299 58.93 11.5899 58.93 12.1499V30.1699Z" fill="#FC8563"/>
<path d="M79.2 109.87C78.9467 107.443 78.5 103.127 77.86 96.92C77.47 92.88 74.07 89.72 69.92 89.72C68.31 89.72 66.81 90.2 65.55 91.02C62.73 92.33 60.22 92.33 57.4 91.02C56.14 90.2 54.64 89.72 53.03 89.72C48.89 89.72 45.48 92.88 45.09 96.92C44.45 103.12 44.0033 107.437 43.75 109.87C43.74 109.98 43.73 110.09 43.73 110.2C43.73 111.92 45.12 113.31 46.84 113.31C47.67 113.31 48.42 112.99 48.97 112.46C50.86 110.68 51.41 110.16 54.01 107.71C59.25 106.05 63.67 106.05 68.92 107.71C71.51 110.15 72.06 110.67 73.96 112.46C74.52 112.99 75.27 113.31 76.09 113.31C77.81 113.31 79.2 111.92 79.2 110.2C79.2 110.09 79.2 109.98 79.18 109.87H79.2ZM56.24 100.36C57.05 100.68 57.69 101.33 58 102.15H56.24V100.36ZM47.87 96.22C47.87 94.55 49.22 93.2 50.89 93.2C52.56 93.2 53.91 94.55 53.91 96.22C53.91 97.89 52.56 99.24 50.89 99.24C49.22 99.24 47.87 97.89 47.87 96.22ZM53.99 100.35V102.15H52.19C52.51 101.32 53.16 100.67 53.99 100.35ZM53.99 106.17C53.18 105.86 52.53 105.22 52.21 104.41H53.99V106.17ZM56.24 106.15V104.41H57.98C57.66 105.2 57.03 105.84 56.24 106.15ZM58.35 103.84C58.35 103.99 58.23 104.11 58.08 104.11H55.94V106.25C55.94 106.4 55.82 106.52 55.67 106.52H54.53C54.38 106.52 54.26 106.4 54.26 106.25V104.11H52.12C51.97 104.11 51.85 103.99 51.85 103.84V102.7C51.85 102.55 51.97 102.43 52.12 102.43H54.26V100.29C54.26 100.14 54.38 100.02 54.53 100.02H55.67C55.82 100.02 55.94 100.14 55.94 100.29V102.43H58.08C58.23 102.43 58.35 102.55 58.35 102.7V103.84ZM61.46 98.77C60.47 98.77 59.66 97.97 59.66 96.97C59.66 95.97 60.46 95.17 61.46 95.17C62.46 95.17 63.26 95.97 63.26 96.97C63.26 97.97 62.46 98.77 61.46 98.77ZM67.02 105.99C65.53 105.99 64.33 104.78 64.33 103.3C64.33 101.82 65.54 100.61 67.02 100.61C68.5 100.61 69.71 101.82 69.71 103.3C69.71 104.78 68.5 105.99 67.02 105.99ZM69.38 97.8C68.67 97.8 68.09 97.22 68.09 96.51C68.09 95.8 68.67 95.22 69.38 95.22C70.09 95.22 70.67 95.8 70.67 96.51C70.67 97.22 70.09 97.8 69.38 97.8ZM72.28 100.7C71.57 100.7 70.99 100.12 70.99 99.41C70.99 98.7 71.57 98.12 72.28 98.12C72.99 98.12 73.57 98.7 73.57 99.41C73.57 100.12 72.99 100.7 72.28 100.7ZM72.28 94.89C71.57 94.89 70.99 94.31 70.99 93.6C70.99 92.89 71.57 92.31 72.28 92.31C72.99 92.31 73.57 92.89 73.57 93.6C73.57 94.31 72.99 94.89 72.28 94.89ZM75.19 97.8C74.48 97.8 73.9 97.22 73.9 96.51C73.9 95.8 74.48 95.22 75.19 95.22C75.9 95.22 76.48 95.8 76.48 96.51C76.48 97.22 75.9 97.8 75.19 97.8Z" fill="#8D79EA"/>
<path d="M66.97 151.78H69.26C69.75 151.78 70.64 151.05 70.87 150.61H77.96C78.25 150.61 78.25 149.71 77.96 149.71H71.19V148.19H77.96C78.25 148.19 78.25 147.29 77.96 147.29H71.19V145.77H77.87C78.31 145.77 78.23 144.87 77.96 144.87H71.19V135.32C71.19 134.57 69.92 133.3 69.17 133.3H66.97V128.68C66.97 128.62 67.28 127.98 67.34 127.89C67.63 127.46 68.11 127.18 68.63 127.11C71.67 127.36 75.25 126.78 78.23 127.11C79.1 127.21 79.84 127.98 79.89 128.85V152.62C79.84 153.72 79.11 154.41 78.04 154.53C75.21 154.86 71.8 154.3 68.9 154.53C67.41 154.35 66.78 153.16 66.97 151.75V151.78ZM74.59 129.09H72.35V130.97H74.46L74.59 130.84V129.09ZM76.09 141.31C75.87 141.36 75.69 141.54 75.69 141.77C75.74 142.49 77.71 142.37 78 142.14C78.29 141.91 78.29 141.45 77.92 141.33C77.67 141.25 76.36 141.25 76.1 141.31H76.09ZM76 142.92C75.6 143.04 75.62 143.67 76 143.78C76.18 143.83 77.65 143.84 77.86 143.79C78.2 143.73 78.22 143.42 78.16 143.14C78.05 142.82 76.29 142.83 75.99 142.92H76Z" fill="#9EEACE"/>
<path d="M45.06 134.23L68.63 134.2C69.68 134.29 70.2 134.81 70.29 135.86C70.66 140.15 70 144.97 70.29 149.32C70.19 150.25 69.77 150.8 68.81 150.89H45.21C44.53 150.85 43.82 150.4 43.73 149.68V135.42C43.87 134.75 44.38 134.33 45.06 134.24V134.23ZM45.15 135.39L44.95 135.55V149.53L45.18 149.75H68.77L68.99 149.62L69.03 142.85C69.13 142.46 69.13 142.17 69.03 141.78C68.86 139.91 69.27 137.58 69.03 135.77C69.01 135.62 69 135.5 68.85 135.42L45.15 135.39Z" fill="#9EEACE"/>
<path d="M52.03 153.3L53.41 151.72L53.81 151.59L60.34 151.61L61.92 153.26L65.61 153.34C65.74 153.43 65.82 154.56 65.45 154.63L48.35 154.57C48.1 154.41 48.19 153.58 48.29 153.31H52.01L52.03 153.3Z" fill="#9EEACE"/>
<path d="M1.06284e-05 5.79994C0.360011 52.4199 0.730011 99.0499 1.09001 145.67C1.15001 152.9 1.20001 160.13 1.26001 167.36C1.29001 170.6 3.99001 173.37 7.26001 173.36C41.83 173.24 76.4 173.12 110.97 173C159.34 172.83 207.71 172.66 256.08 172.5C266.84 172.46 277.6 172.43 288.37 172.39C296.09 172.36 296.11 160.36 288.37 160.39C258.48 160.49 228.59 160.6 198.7 160.7C149.01 160.87 99.32 161.04 49.63 161.22C35.51 161.27 21.38 161.32 7.26001 161.37L13.26 167.37C12.89 120.23 12.53 73.0999 12.16 25.9599C12.11 19.2399 12.06 12.5199 12 5.79994C11.94 -1.92006 -0.0599894 -1.94006 1.06284e-05 5.79994Z" fill="#F8E2D8"/>
<path d="M132 68.0625C138.708 68.0625 144.75 69.375 150.125 72C155.542 74.625 159.75 79.125 162.75 85.5C165.792 91.8333 167.313 99.3125 167.313 107.938C167.313 114.688 166.375 121.375 164.5 128C162.667 134.625 160.146 139.958 156.938 144C153.771 148 149.583 151.104 144.375 153.312C139.167 155.521 133.604 156.625 127.688 156.625C122.646 156.625 117.917 155.812 113.5 154.188C109.083 152.562 105.208 149.917 101.875 146.25C98.5417 142.583 96.2084 138.25 94.875 133.25C93.5417 128.208 92.875 122.833 92.875 117.125C92.875 110.208 93.7917 103.417 95.625 96.75C97.5 90.0833 100.104 84.6458 103.438 80.4375C106.771 76.2292 110.958 73.125 116 71.125C121.042 69.0833 126.375 68.0625 132 68.0625ZM131.563 86.5625C129.604 86.5625 127.854 87.1458 126.313 88.3125C124.438 89.7292 122.958 91.6667 121.875 94.125C120.542 97.0833 119.542 100.479 118.875 104.312C118.125 108.521 117.75 113.146 117.75 118.188C117.75 122.604 118.167 126.271 119 129.188C119.833 132.062 121.083 134.292 122.75 135.875C124.458 137.458 126.438 138.25 128.688 138.25C129.938 138.25 131.146 137.979 132.313 137.438C133.521 136.896 134.771 135.812 136.063 134.188C137.396 132.562 138.563 130.229 139.563 127.188C140.563 124.146 141.292 120.979 141.75 117.688C142.208 114.354 142.438 110.979 142.438 107.562C142.438 100.479 141.458 95.2083 139.5 91.75C137.542 88.2917 134.896 86.5625 131.563 86.5625Z" fill="#F8E2D8"/>
<path d="M182.24 150.96L182.84 155H177.56V141H182.5L182.02 147.56H182.28L183.62 141H190.74L183.5 147.86L183.72 148.12C184.6 147.067 185.46 146.54 186.3 146.54C187.913 146.54 189.093 147.32 189.84 148.88C190.587 150.427 190.82 152.467 190.54 155H184.76C184.947 154.293 185.067 153.58 185.12 152.86C185.187 152.14 185.187 151.467 185.12 150.84C185.067 150.213 184.9 149.707 184.62 149.32C184.353 148.92 183.993 148.72 183.54 148.72C183.02 148.72 182.64 148.933 182.4 149.36C182.173 149.773 182.12 150.307 182.24 150.96ZM205.246 155H199.686L198.626 149.54H198.406L197.346 155H191.786L190.186 145H196.266L195.546 150.7L195.826 150.72L197.546 145.48H199.486L201.206 150.72L201.486 150.7L200.766 145H206.846L205.246 155ZM211.841 155H207.401V141H212.281L211.541 148.8H211.801C211.908 147.6 212.241 146.62 212.801 145.86C213.361 145.087 214.128 144.7 215.101 144.7C216.221 144.7 217.028 145.053 217.521 145.76C218.014 146.453 218.261 147.473 218.261 148.82V155H213.561L213.961 151.4C214.134 150.093 213.781 149.44 212.901 149.44C212.421 149.44 212.061 149.647 211.821 150.06C211.594 150.473 211.508 150.96 211.561 151.52L211.841 155ZM221.941 155.08H218.621L223.881 141.06H227.181L221.941 155.08ZM230.776 155.3C228.496 155.3 227.356 154.26 227.356 152.18C227.356 151.233 227.696 150.473 228.376 149.9C229.069 149.313 229.982 149.02 231.116 149.02C231.876 149.02 232.502 149.16 232.996 149.44C233.502 149.72 233.809 150.073 233.916 150.5H234.196V150.26C234.196 149.793 233.896 149.387 233.296 149.04C232.709 148.693 231.989 148.52 231.136 148.52C230.042 148.52 229.002 148.767 228.016 149.26V145.32C229.256 144.907 230.596 144.7 232.036 144.7C234.142 144.7 235.782 145.147 236.956 146.04C238.142 146.92 238.569 148.127 238.236 149.66L237.996 150.8H239.296V155H233.876L234.256 152.32H233.936C233.909 153.187 233.576 153.9 232.936 154.46C232.296 155.02 231.576 155.3 230.776 155.3ZM232.916 151.88C233.849 151.88 234.316 151.707 234.316 151.36C234.316 151.013 233.849 150.84 232.916 150.84C231.996 150.84 231.536 151.013 231.536 151.36C231.536 151.707 231.996 151.88 232.916 151.88ZM244.082 151.52L244.362 155H239.842V145H244.422L244.062 148.8H244.322C244.429 147.627 244.762 146.653 245.322 145.88C245.882 145.093 246.616 144.7 247.522 144.7C248.682 144.7 249.516 145.047 250.022 145.74C250.529 146.42 250.782 147.447 250.782 148.82L250.762 155H246.102L246.502 151.34C246.649 150.073 246.276 149.44 245.382 149.44C244.942 149.44 244.602 149.627 244.362 150C244.122 150.373 244.029 150.88 244.082 151.52Z" fill="#F8E2D8"/>
</g>
<defs>
<clipPath id="clip0_386_14">
<rect width="294.17" height="184.97" fill="white"/>
</clipPath>
</defs>
</svg>
